<svg xmlns="http://www.w3.org/2000/svg" width="19" height="26" viewBox="0 0 19 26">
    <g fill="none" fill-rule="evenodd" stroke="#5C5C5C" stroke-linecap="round">
        <path stroke-linejoin="round" stroke-width="1.55" d="M16.533 23.6v-2.067c0-2.282-1.85-4.133-4.133-4.133H4.133C1.851 17.4 0 19.25 0 21.533V23.6M8.267 13.267c2.282 0 4.133-1.85 4.133-4.134 0-.5.163-3.694 0-4.137-.58-1.582-1.531-3.382-4.133-3.382-2.602 0-3.52 1.737-4.134 3.248-.195.48 0 3.721 0 4.271 0 2.283 1.85 4.134 4.134 4.134z" transform="translate(1 1)"/>
        <path stroke-width="1.5" d="M6.5 4.5L6.5.5M10 4.5L10 .5M12 22L12 18M4 22L4 18M1.5 7.5L14.5 7.5" transform="translate(1 1)"/>
    </g>
</svg>
