<svg xmlns="http://www.w3.org/2000/svg" width="27" height="22" viewBox="0 0 27 22">
    <g fill="none" fill-rule="evenodd">
        <path fill="#FFF" fill-rule="nonzero" d="M25.78 10.8c-.32-.321-.843-.321-1.164 0l-7.276 7.277-3.83-3.83c-.322-.322-.844-.322-1.166 0-.322.321-.322.843 0 1.165l4.413 4.412c.16.161.372.242.582.242.211 0 .422-.08.583-.242l7.859-7.858c.322-.322.322-.844 0-1.166z" transform="translate(1 1)"/>
        <path stroke="#FFF" stroke-width="1.5" d="M11.058 18.75H2.5c-1.38 0-2.5-1.12-2.5-2.5V2.5C0 1.12 1.12 0 2.5 0h15C18.88 0 20 1.12 20 2.5v7.13c0 .65-.254 1.276-.708 1.743" transform="translate(1 1)"/>
    </g>
</svg>
