<svg xmlns="http://www.w3.org/2000/svg" xmlns:xlink="http://www.w3.org/1999/xlink" width="67" height="67" viewBox="0 0 67 67">
    <defs>
        <circle id="prefix__a" cx="33.5" cy="33.5" r="33.5"/>
    </defs>
    <g fill="none" fill-rule="evenodd">
        <mask id="prefix__b" fill="#fff">
            <use xlink:href="#prefix__a"/>
        </mask>
        <use fill="#FFF" xlink:href="#prefix__a"/>
        <g mask="url(#prefix__b)">
            <g>
                <path fill="#53AEE0" d="M0 74L139 74 139 0 0 0z" transform="translate(-36 -4)"/>
                <path fill="#FFF" d="M0 53.493L139 53.493 139 22.238 0 22.238z" transform="translate(-36 -4)"/>
                <g>
                    <path fill="#FFB40E" d="M12.39.187c-.203.261-.33 6.945-.33 7.67h.77S12.889.72 12.635.158c-.12-.244-.244.029-.244.029" transform="translate(-36 -4) translate(56.857 25.019)"/>
                    <path fill="#99310C" d="M12.118 7.811h.791c.005-.608.053-7.11-.22-7.633-.028-.048-.057-.076-.081-.076-.038 0-.09.062-.112.105-.22.256-.373 6.578-.378 7.604zm.891.091h-.992v-.045c0-.39.131-7.409.394-7.699.002-.007.08-.147.197-.147.066 0 .123.043.171.127.296.566.233 7.427.23 7.72v.044z" transform="translate(-36 -4) translate(56.857 25.019)"/>
                    <path fill="#99310C" d="M12.396 7.838L12.434 3.236 12.51 7.825z" transform="translate(-36 -4) translate(56.857 25.019)"/>
                    <path fill="#FFB40E" d="M7.644 1.258c-.086.325 2.382 6.495 2.662 7.158l.704-.324S8.306 1.537 7.857 1.13c-.204-.173-.213.13-.213.13" transform="translate(-36 -4) translate(56.857 25.019)"/>
                    <path fill="#99310C" d="M7.748 1.12c-.041 0-.059.096-.06.14-.074.313 2.247 6.155 2.64 7.096l.625-.287c-.232-.559-2.706-6.526-3.124-6.906-.044-.036-.07-.042-.081-.042zm2.535 7.356l-.017-.042c-.15-.356-2.76-6.828-2.664-7.188.001-.074.035-.216.146-.216.041 0 .086.02.137.064.452.41 3.054 6.712 3.165 6.98l.017.042-.784.36z" transform="translate(-36 -4) translate(56.857 25.019)"/>
                    <path fill="#99310C" d="M10.605 8.258L8.862 4.03 10.705 8.198z" transform="translate(-36 -4) translate(56.857 25.019)"/>
                    <path fill="#FFB40E" d="M17.193 1.256c-.288.153-2.99 6.215-3.27 6.878l.703.324s2.815-6.504 2.802-7.125c-.015-.274-.235-.077-.235-.077" transform="translate(-36 -4) translate(56.857 25.019)"/>
                    <path fill="#99310C" d="M13.98 8.11l.624.288c.24-.555 2.793-6.485 2.78-7.064-.004-.066-.02-.1-.05-.1-.04 0-.096.042-.113.057-.272.154-2.84 5.883-3.24 6.82zm.668.408l-.783-.36.018-.043c.15-.356 2.97-6.73 3.29-6.9 0-.002.082-.073.162-.073.047 0 .127.025.136.189.014.626-2.69 6.88-2.805 7.146l-.018.04z" transform="translate(-36 -4) translate(56.857 25.019)"/>
                    <path fill="#99310C" d="M14.236 8.258L16.052 4.064 14.346 8.295z" transform="translate(-36 -4) translate(56.857 25.019)"/>
                    <path fill="#FFB40E" d="M20.975 3.874c-.321.033-4.947 4.658-5.44 5.17l.544.568s4.886-4.993 5.088-5.577c.082-.261-.192-.161-.192-.161" transform="translate(-36 -4) translate(56.857 25.019)"/>
                    <path fill="#99310C" d="M15.597 9.043l.482.505c.416-.426 4.858-4.985 5.047-5.529.015-.047.017-.084.005-.101-.01-.015-.034-.018-.053-.018-.043 0-.088.017-.089.017-.306.04-4.692 4.405-5.392 5.126zm.481.633l-.604-.633.03-.032c.265-.275 5.105-5.14 5.466-5.182-.002 0 .052-.02.108-.02.07 0 .107.03.124.056.03.042.032.103.007.184-.205.588-4.9 5.391-5.1 5.595l-.03.032z" transform="translate(-36 -4) translate(56.857 25.019)"/>
                    <path fill="#99310C" d="M15.785 9.278L18.936 6.058 15.874 9.354z" transform="translate(-36 -4) translate(56.857 25.019)"/>
                    <path fill="#FFB40E" d="M15.123.51c-.203-.008-.86.386-.882 1.227-.022.84-.152 1.76-.24 2.056-.087.295-.61 1.598-.768 2.344-.153.723-.157 1.734-.157 1.734l.73.193s.153-1.17.142-1.534c-.01-.363.488-1.97.609-2.294.174-.466.163-1.227.12-1.727-.044-.5-.273-.977.032-1.306.292-.316.708-.682.414-.693" transform="translate(-36 -4) translate(56.857 25.019)"/>
                    <path fill="#99310C" d="M13.12 7.836l.65.171c.028-.228.144-1.163.135-1.475-.011-.377.49-1.987.611-2.313.2-.534.14-1.44.117-1.706-.012-.134-.037-.267-.062-.396-.067-.354-.13-.69.107-.946.05-.054.103-.109.156-.163.137-.143.367-.38.345-.438 0-.003-.013-.013-.058-.015-.191 0-.815.369-.836 1.183-.022.849-.156 1.777-.242 2.068-.026.09-.091.268-.174.494-.192.529-.483 1.327-.593 1.847-.134.634-.153 1.504-.156 1.689zm.722.284l-.81-.214v-.035c0-.01.007-1.025.159-1.743.112-.527.404-1.33.597-1.86.082-.225.147-.402.172-.489.084-.286.216-1.203.238-2.044.02-.825.661-1.27.919-1.27.08.002.126.027.143.072.04.108-.105.265-.365.535l-.155.162c-.205.223-.149.52-.083.865.025.131.05.267.063.406.023.27.084 1.194-.123 1.747-.13.349-.616 1.927-.605 2.277.01.363-.137 1.493-.143 1.541l-.007.05z" transform="translate(-36 -4) translate(56.857 25.019)"/>
                    <path fill="#99310C" d="M13.425 7.916s-.033-.681.01-1.045c0 0 .033-1.158.632-2.295.228-.465.261-.75.294-.897 0 0-.055.5-.25.954-.197.455-.545 1-.61 2.681l.022.67-.098-.068z" transform="translate(-36 -4) translate(56.857 25.019)"/>
                    <path fill="#FFB40E" d="M19.446 2.567c-.185-.09-.936.006-1.27.771-.334.766-.798 1.56-.988 1.797-.191.236-1.16 1.224-1.583 1.847-.41.603-.792 1.532-.792 1.532l.6.475s.578-1.016.704-1.355c.125-.34 1.184-1.617 1.416-1.866.335-.358.609-1.063.755-1.541.147-.478.114-1.01.518-1.19.387-.172.906-.34.64-.47" transform="translate(-36 -4) translate(56.857 25.019)"/>
                    <path fill="#99310C" d="M14.867 8.5l.533.422c.112-.198.568-1.012.676-1.304.13-.352 1.192-1.63 1.426-1.881.384-.411.667-1.27.745-1.524.039-.128.065-.261.09-.39.071-.354.137-.688.452-.828.066-.03.135-.058.204-.087.18-.075.48-.201.482-.263 0-.003-.008-.017-.048-.037-.166-.08-.886.001-1.212.75-.337.772-.806 1.572-.994 1.806-.058.071-.184.21-.344.384-.375.408-.941 1.025-1.237 1.46-.36.53-.702 1.322-.773 1.492zm.558.556l-.665-.527.013-.032c.004-.01.388-.941.796-1.542.3-.44.868-1.06 1.245-1.47.159-.173.285-.31.34-.38.185-.23.648-1.02.982-1.786.284-.651.854-.825 1.146-.825.076 0 .14.01.182.032.067.032.1.073.098.122-.003.115-.196.202-.536.344-.069.029-.138.058-.203.087-.273.121-.332.418-.4.762-.026.131-.053.267-.093.4-.08.258-.368 1.134-.765 1.56-.25.267-1.286 1.523-1.408 1.85-.125.338-.683 1.32-.707 1.361l-.025.044z" transform="translate(-36 -4) translate(56.857 25.019)"/>
                    <path fill="#99310C" d="M15.117 8.698s.224-.641.4-.958c0 0 .463-1.054 1.438-1.857.384-.336.52-.584.606-.707 0 0-.237.438-.587.777s-.874.7-1.562 2.221l-.23.627-.065-.103z" transform="translate(-36 -4) translate(56.857 25.019)"/>
                    <path fill="#FFB40E" d="M23.67 8.164c-.306-.107-6.348 2.115-6.998 2.37l.27.75s6.424-2.446 6.84-2.89c.177-.203-.112-.23-.112-.23" transform="translate(-36 -4) translate(56.857 25.019)"/>
                    <path fill="#99310C" d="M16.728 10.56l.24.667c.547-.21 6.395-2.451 6.782-2.865.035-.04.051-.075.044-.094-.012-.033-.083-.054-.128-.058-.01-.003-.014-.004-.027-.004-.52 0-6.013 2.008-6.911 2.354zm.188.783l-.3-.836.04-.016c.554-.217 6.412-2.376 6.983-2.376.018 0 .033.002.045.006.009-.002.154.017.19.113.022.056.001.12-.06.19-.42.448-6.594 2.804-6.857 2.904l-.04.015z" transform="translate(-36 -4) translate(56.857 25.019)"/>
                    <path fill="#99310C" d="M16.806 10.854L20.949 9.277 16.858 10.962z" transform="translate(-36 -4) translate(56.857 25.019)"/>
                    <path fill="#FFB40E" d="M24.559 12.804c-.25-.213-6.655-.35-7.35-.351v.802s6.837.068 7.376-.196c.235-.124-.026-.255-.026-.255" transform="translate(-36 -4) translate(56.857 25.019)"/>
                    <path fill="#99310C" d="M17.252 13.298c.18.002.893.008 1.8.008 3.294 0 5.252-.078 5.515-.221.046-.027.073-.057.073-.08 0-.039-.06-.09-.1-.112-.246-.22-6.304-.379-7.287-.385v.79zm1.8.11c-1.046 0-1.836-.01-1.844-.01h-.043v-.99h.044c.374 0 7.1.138 7.377.4.007.002.14.08.14.195.001.066-.04.125-.12.173-.354.191-3.215.231-5.553.231z" transform="translate(-36 -4) translate(56.857 25.019)"/>
                    <path fill="#99310C" d="M17.227 12.802L21.637 12.847 17.239 12.922z" transform="translate(-36 -4) translate(56.857 25.019)"/>
                    <path fill="#FFB40E" d="M22.712 6.132c-.136-.157-.865-.371-1.456.2-.591.572-1.313 1.118-1.577 1.26-.263.14-1.521.662-2.143 1.065-.602.391-1.297 1.095-1.297 1.095l.377.68s.91-.704 1.15-.967c.242-.262 1.691-1.014 1.998-1.15.44-.195.955-.736 1.267-1.118.312-.382.479-.886.917-.889.42-.002.962.052.764-.176" transform="translate(-36 -4) translate(56.857 25.019)"/>
                    <path fill="#99310C" d="M16.294 9.76l.336.604c.176-.137.898-.704 1.106-.93.25-.272 1.702-1.024 2.011-1.16.506-.225 1.085-.904 1.25-1.106.084-.102.158-.215.23-.323.195-.299.38-.58.721-.582h.034c.061 0 .124 0 .187.002l.18.002c.308 0 .355-.035.362-.05 0-.003-.001-.02-.03-.054-.058-.066-.261-.158-.535-.158-.222 0-.552.062-.86.36-.598.577-1.326 1.127-1.586 1.267-.08.042-.248.119-.46.215-.497.226-1.247.567-1.681.849-.528.343-1.137.937-1.265 1.064zm.309.738l-.419-.754.024-.024c.008-.008.706-.712 1.305-1.101.44-.285 1.193-.628 1.692-.855.21-.096.377-.172.455-.213.255-.138.975-.68 1.566-1.252.33-.319.682-.385.92-.385.286 0 .518.094.599.188.049.056.064.107.045.152-.036.086-.19.103-.441.103l-.181-.001-.186-.002h-.033c-.297.002-.46.252-.65.542-.073.11-.148.225-.235.33-.169.207-.76.899-1.283 1.13-.33.148-1.75.889-1.983 1.141-.24.262-1.118.942-1.156.97l-.039.031z" transform="translate(-36 -4) translate(56.857 25.019)"/>
                    <path fill="#99310C" d="M16.451 10.044s.444-.501.724-.723c0 0 .816-.785 2.013-1.133.479-.155.697-.33.82-.408 0 0-.38.309-.828.48-.449.172-1.066.293-2.263 1.42l-.444.485-.022-.121z" transform="translate(-36 -4) translate(56.857 25.019)"/>
                    <path fill="#FFB40E" d="M24.326 10.796c-.068-.2-.66-.694-1.417-.408-.758.286-1.626.495-1.921.519-.296.023-1.65-.01-2.372.11-.7.115-1.604.481-1.604.481l.094.779s1.1-.278 1.42-.422c.321-.143 1.936-.247 2.27-.247.478-.001 1.153-.29 1.583-.515.43-.225.772-.621 1.177-.445.388.168.867.438.77.148" transform="translate(-36 -4) translate(56.857 25.019)"/>
                    <path fill="#99310C" d="M17.06 11.528l.083.693c.214-.055 1.09-.284 1.366-.408.332-.148 1.951-.25 2.286-.25.55-.002 1.337-.391 1.565-.51.115-.06.225-.134.331-.205.222-.15.432-.29.66-.29.075 0 .15.016.222.048.066.028.135.06.203.091.194.09.394.181.489.181.02 0 .027-.004.028-.005.002-.004.005-.021-.009-.062-.043-.128-.388-.465-.912-.465-.15 0-.3.029-.448.085-.765.288-1.641.498-1.933.521-.09.007-.273.009-.504.012-.542.006-1.36.015-1.865.098-.614.101-1.396.4-1.563.466zm.01.805l-.105-.865.031-.012c.01-.004.916-.369 1.613-.484.51-.084 1.333-.093 1.877-.1.23-.002.412-.004.499-.01.286-.023 1.152-.23 1.91-.517.157-.06.318-.09.477-.09.537 0 .933.343.995.526.02.063.02.11-.003.144-.02.03-.053.044-.1.044-.112 0-.312-.092-.523-.189-.068-.03-.136-.062-.201-.09-.063-.028-.124-.04-.19-.04-.201 0-.4.133-.612.274-.108.073-.22.147-.34.21-.232.121-1.034.518-1.603.52-.358 0-1.943.105-2.251.243-.32.143-1.383.413-1.428.424l-.047.012z" transform="translate(-36 -4) translate(56.857 25.019)"/>
                    <path fill="#99310C" d="M17.099 11.853s.596-.28.936-.371c0 0 1.045-.392 2.278-.226.498.052.764-.02.907-.042 0 0-.465.13-.942.106-.477-.025-1.09-.164-2.614.387l-.59.266.025-.12z" transform="translate(-36 -4) translate(56.857 25.019)"/>
                    <path fill="#FFB40E" d="M23.637 17.813c-.149-.3-5.976-3.076-6.613-3.364l-.306.737s6.252 2.891 6.847 2.872c.262-.017.072-.245.072-.245" transform="translate(-36 -4) translate(56.857 25.019)"/>
                    <path fill="#99310C" d="M16.775 15.163c.531.245 6.196 2.85 6.784 2.85v.046l.004-.046c.052-.003.087-.017.095-.037.012-.032-.025-.098-.054-.134-.15-.282-5.657-2.921-6.558-3.333l-.27.654zm6.784 2.94c-.632 0-6.605-2.758-6.859-2.875l-.04-.019.34-.82.04.019c.343.154 6.47 3.051 6.636 3.384.005.004.1.123.062.22-.022.054-.08.086-.17.092h-.009z" transform="translate(-36 -4) translate(56.857 25.019)"/>
                    <path fill="#99310C" d="M16.907 14.778L20.938 16.643 16.872 14.893z" transform="translate(-36 -4) translate(56.857 25.019)"/>
                    <path fill="#FFB40E" d="M24.295 15.618c.006-.212-.377-.895-1.182-.912-.806-.016-1.689-.146-1.972-.235-.284-.088-1.536-.625-2.252-.785-.693-.154-1.663-.151-1.663-.151l-.18.762s1.123.152 1.471.138c.348-.014 1.892.495 2.203.619.448.178 1.177.161 1.656.112.478-.049.934-.29 1.251.025.305.302.659.733.668.427" transform="translate(-36 -4) translate(56.857 25.019)"/>
                    <path fill="#99310C" d="M23.211 14.986c.187 0 .328.055.447.172l.157.161c.155.16.346.359.418.359.016 0 .018-.051.018-.061.002-.074-.062-.264-.242-.462-.163-.179-.45-.394-.897-.403-.814-.017-1.704-.15-1.984-.237-.086-.027-.257-.094-.475-.178-.507-.197-1.274-.495-1.773-.606-.61-.136-1.448-.15-1.62-.15l-.16.678c.22.028 1.113.143 1.416.13h.016c.388 0 1.902.502 2.204.622.234.094.581.143 1.005.143.256 0 .485-.018.63-.033.128-.013.257-.04.38-.067.162-.035.315-.068.46-.068m1.022.783c-.103 0-.249-.147-.479-.385l-.156-.16c-.101-.1-.224-.147-.387-.147-.136 0-.285.032-.443.066-.125.027-.255.055-.388.069-.148.015-.379.033-.639.033-.303 0-.728-.026-1.036-.149-.323-.128-1.811-.615-2.173-.615h-.013c-.35.013-1.434-.133-1.478-.138l-.048-.007.2-.846h.033c.106 0 1.007.004 1.672.152.505.113 1.276.412 1.786.61.216.083.386.15.47.176.275.086 1.153.216 1.96.233.371.008.712.16.958.431.18.196.27.414.266.527-.004.13-.067.15-.105.15" transform="translate(-36 -4) translate(56.857 25.019)"/>
                    <path fill="#99310C" d="M17.185 13.899s.653-.04 1.002.004c0 0 1.11.025 2.203.642.448.235.72.267.862.3 0 0-.479-.053-.916-.254-.437-.201-.962-.56-2.573-.617l-.642.027.064-.102z" transform="translate(-36 -4) translate(56.857 25.019)"/>
                    <path fill="#FFB40E" d="M21.034 21.719c-.036-.335-4.535-5.095-5.031-5.601l-.538.575s4.855 5.025 5.418 5.229c.251.08.151-.203.151-.203" transform="translate(-36 -4) translate(56.857 25.019)"/>
                    <path fill="#99310C" d="M15.527 16.692c.414.428 4.846 4.997 5.37 5.187.024.008.046.012.064.012.03 0 .037-.01.04-.015.018-.029.007-.1-.008-.142-.043-.319-4.289-4.832-4.99-5.552l-.476.51zm5.434 5.29c-.027 0-.057-.006-.091-.017-.567-.205-5.237-5.035-5.435-5.24l-.03-.032.596-.64.032.032c.267.272 5.004 5.258 5.045 5.629.002.004.046.136-.006.214-.017.024-.05.054-.11.054z" transform="translate(-36 -4) translate(56.857 25.019)"/>
                    <path fill="#99310C" d="M15.781 16.381L18.912 19.623 15.71 16.476z" transform="translate(-36 -4) translate(56.857 25.019)"/>
                    <path fill="#FFB40E" d="M17.026 24.638c.094-.323-2.227-6.555-2.491-7.224l-.712.305s2.548 6.623 2.987 7.042c.2.178.216-.123.216-.123" transform="translate(-36 -4) translate(56.857 25.019)"/>
                    <path fill="#99310C" d="M13.88 17.744c.218.564 2.55 6.593 2.96 6.984.043.038.069.044.08.044.042 0 .06-.1.063-.137.081-.311-2.102-6.212-2.472-7.162l-.631.27zm3.04 7.119c-.042 0-.087-.022-.138-.067-.443-.423-2.895-6.79-3-7.06l-.015-.042.791-.34.017.042c.142.36 2.597 6.897 2.493 7.255-.003.072-.039.212-.148.212z" transform="translate(-36 -4) translate(56.857 25.019)"/>
                    <path fill="#99310C" d="M14.231 17.564L15.874 21.835 14.13 17.621z" transform="translate(-36 -4) translate(56.857 25.019)"/>
                    <path fill="#FFB40E" d="M18.964 23.543c.147-.147.329-.915-.238-1.513-.566-.598-1.111-1.334-1.255-1.604-.144-.27-.683-1.566-1.09-2.202-.393-.615-1.09-1.318-1.09-1.318l-.638.416s.703.925.962 1.169c.259.243 1.025 1.73 1.165 2.047.201.453.735.972 1.111 1.285.376.313.864.471.88.93.017.437-.018 1.004.193.79" transform="translate(-36 -4) translate(56.857 25.019)"/>
                    <path fill="#99310C" d="M14.718 17.333c.137.18.703.915.926 1.124.269.253 1.034 1.744 1.175 2.061.232.521.9 1.103 1.1 1.27.1.083.21.157.316.228.291.194.567.378.58.734.003.075.004.153.005.23.003.17.01.564.065.564.001 0 .017 0 .049-.033.05-.052.133-.234.135-.507.003-.247-.06-.61-.374-.942-.571-.604-1.12-1.347-1.263-1.614-.043-.082-.122-.254-.22-.472-.232-.511-.584-1.283-.867-1.727-.345-.54-.934-1.156-1.06-1.286l-.567.37zm4.167 6.302c-.141 0-.146-.274-.152-.653 0-.077-.002-.154-.005-.228-.011-.31-.256-.473-.54-.662-.108-.072-.22-.147-.324-.233-.203-.17-.884-.763-1.124-1.302-.15-.34-.905-1.798-1.154-2.032-.26-.244-.938-1.137-.967-1.175l-.03-.04.708-.461.025.024c.006.007.704.714 1.095 1.326.288.45.64 1.225.873 1.738.099.217.176.388.219.467.14.262.682.995 1.248 1.594.262.276.403.634.4 1.007-.003.27-.084.492-.162.57-.04.04-.076.06-.11.06z" transform="translate(-36 -4) translate(56.857 25.019)"/>
                    <path fill="#99310C" d="M15.019 17.137s.494.447.715.732c0 0 .778.826 1.15 2.064.163.494.337.716.416.842 0 0-.307-.387-.486-.849-.178-.462-.314-1.102-1.432-2.315l-.478-.447.115-.027z" transform="translate(-36 -4) translate(56.857 25.019)"/>
                    <path fill="#FFB40E" d="M22.379 20.15c.085-.194-.013-.977-.748-1.32-.736-.343-1.5-.822-1.729-1.019-.228-.197-1.181-1.2-1.78-1.638-.582-.424-1.475-.815-1.475-.815l-.45.629s.977.596 1.303.725c.326.128 1.557 1.224 1.798 1.465.345.346 1.023.627 1.482.776.46.15.97.112 1.144.532.167.402.332.943.455.664" transform="translate(-36 -4) translate(56.857 25.019)"/>
                    <path fill="#99310C" d="M16.26 15.973c.191.115.974.585 1.255.696.338.134 1.571 1.233 1.813 1.475.396.397 1.222.687 1.465.766.123.04.25.067.375.092.339.071.66.138.796.465l.085.212c.073.188.197.502.255.502.003 0 .017-.009.035-.05.03-.068.042-.269-.05-.524-.084-.23-.268-.546-.676-.736-.743-.346-1.513-.83-1.739-1.025-.068-.06-.202-.191-.371-.358-.394-.387-.989-.973-1.407-1.278-.51-.372-1.272-.723-1.435-.797l-.4.56zm6.044 4.299c-.112 0-.196-.202-.336-.558-.028-.071-.056-.143-.084-.21-.118-.284-.403-.344-.733-.412-.126-.027-.257-.054-.384-.095-.248-.08-1.09-.376-1.5-.787-.258-.26-1.469-1.332-1.783-1.456-.325-.128-1.27-.704-1.31-.728L16.133 16l.5-.698.032.014c.009.004.904.397 1.482.82.423.309 1.021.897 1.416 1.286.169.166.301.296.368.354.221.192.982.669 1.718 1.012.34.158.596.438.722.787.092.253.094.49.049.593-.03.069-.07.104-.115.104z" transform="translate(-36 -4) translate(56.857 25.019)"/>
                    <path fill="#99310C" d="M16.473 15.676s.616.23.921.41c0 0 1.013.476 1.79 1.488.324.399.563.54.681.627 0 0-.421-.244-.748-.607-.328-.363-.677-.907-2.14-1.614l-.602-.236.098-.068z" transform="translate(-36 -4) translate(56.857 25.019)"/>
                    <path fill="#FFB40E" d="M12.606 25.505c.203-.263.294-6.948.29-7.672l-.769.004s-.021 7.137.235 7.697c.12.244.244-.03.244-.03" transform="translate(-36 -4) translate(56.857 25.019)"/>
                    <path fill="#99310C" d="M12.185 17.882c0 .61-.01 7.11.269 7.633.027.047.057.075.081.075.038 0 .09-.062.113-.105.218-.257.335-6.58.334-7.606l-.797.003zm.35 7.8c-.066 0-.124-.043-.172-.127-.301-.565-.28-7.426-.28-7.718l.001-.045 1-.005v.046c.002.39-.088 7.41-.35 7.7-.003.007-.08.148-.199.148z" transform="translate(-36 -4) translate(56.857 25.019)"/>
                    <path fill="#99310C" d="M12.561 17.853L12.547 22.456 12.447 17.867z" transform="translate(-36 -4) translate(56.857 25.019)"/>
                    <path fill="#FFB40E" d="M9.863 25.284c.203.005.854-.398.865-1.239.011-.84.13-1.763.213-2.06.084-.296.59-1.606.738-2.354.144-.725.135-1.736.135-1.736l-.732-.183s-.138 1.173-.123 1.536c.016.363-.462 1.977-.579 2.303-.168.468-.147 1.229-.097 1.728.05.5.285.973-.016 1.307-.288.32-.698.691-.404.698" transform="translate(-36 -4) translate(56.857 25.019)"/>
                    <path fill="#99310C" d="M11.12 17.768c-.026.229-.13 1.165-.117 1.478.016.378-.464 1.993-.582 2.32-.193.538-.12 1.443-.094 1.708.013.134.04.267.066.396.072.353.14.687-.094.947-.049.054-.102.11-.154.165-.135.145-.362.386-.34.443.001.003.014.013.059.014l.002.045v-.045c.165 0 .808-.37.819-1.194.01-.849.132-1.779.214-2.072.026-.09.088-.269.168-.495.186-.532.466-1.334.57-1.857.126-.635.133-1.505.133-1.69l-.65-.163zM9.866 25.33h-.004c-.074-.002-.12-.026-.137-.071-.042-.107.101-.267.358-.54.052-.055.104-.11.152-.165.204-.225.143-.522.073-.865-.027-.131-.054-.267-.068-.405-.027-.27-.1-1.194.1-1.75.126-.35.59-1.934.576-2.284-.016-.363.118-1.495.123-1.543l.006-.05.812.202v.036c0 .01.008 1.024-.135 1.745-.105.529-.387 1.335-.573 1.869-.08.225-.142.403-.166.49-.081.288-.2 1.206-.211 2.047-.012.884-.699 1.284-.906 1.284z" transform="translate(-36 -4) translate(56.857 25.019)"/>
                    <path fill="#99310C" d="M11.465 17.855s.042.68.003 1.045c0 0-.018 1.159-.602 2.303-.223.469-.252.753-.282.902 0 0 .048-.501.238-.958.19-.457.531-1.007.575-2.69l-.03-.669.098.067z" transform="translate(-36 -4) translate(56.857 25.019)"/>
                    <path fill="#FFB40E" d="M14.487 25.411c.191-.072.658-.695.376-1.483-.283-.787-.493-1.691-.518-2-.026-.307-.01-1.72-.133-2.473-.118-.73-.478-1.668-.478-1.668l-.745.107s.278 1.145.42 1.477c.14.333.257 2.017.261 2.365.007.5.29 1.201.511 1.647.22.446.604.799.44 1.224-.157.406-.41.909-.134.804" transform="translate(-36 -4) translate(56.857 25.019)"/>
                    <path fill="#99310C" d="M13.043 17.932c.055.222.284 1.135.405 1.42.147.347.262 2.034.266 2.383.007.574.389 1.39.506 1.627.059.12.13.233.2.343.19.302.37.587.242.919l-.085.211c-.08.194-.2.486-.164.542 0 .002.005.003.011.003.009 0 .024-.002.048-.012.067-.025.213-.157.322-.405.1-.224.185-.582.028-1.019-.285-.795-.496-1.707-.521-2.011-.008-.093-.012-.285-.017-.527-.012-.565-.03-1.418-.114-1.944-.104-.64-.4-1.453-.464-1.625l-.663.095zm1.381 7.539c-.047 0-.071-.024-.084-.044-.058-.092.022-.299.156-.627.03-.07.059-.142.085-.21.11-.287-.05-.54-.234-.835-.07-.112-.144-.227-.205-.35-.119-.242-.508-1.075-.515-1.668-.005-.374-.123-2.026-.258-2.347-.141-.333-.411-1.438-.423-1.485l-.012-.05.828-.118.012.033c.004.01.364.951.481 1.677.087.532.105 1.39.116 1.957.005.24.01.43.017.521.025.299.233 1.2.516 1.987.13.364.12.75-.03 1.09-.11.245-.27.413-.372.452-.03.011-.055.017-.078.017z" transform="translate(-36 -4) translate(56.857 25.019)"/>
                    <path fill="#99310C" d="M13.395 17.881s.275.62.366.973c0 0 .387 1.087.24 2.374-.043.521.029.797.051.947 0 0-.129-.485-.111-.982.018-.498.145-1.14-.4-2.724l-.262-.612.116.024z" transform="translate(-36 -4) translate(56.857 25.019)"/>
                    <path fill="#FFB40E" d="M7.735 24.61c.286-.156 2.923-6.249 3.196-6.915l-.707-.316s-2.746 6.536-2.726 7.157c.018.273.237.074.237.074" transform="translate(-36 -4) translate(56.857 25.019)"/>
                    <path fill="#99310C" d="M10.247 17.438c-.234.558-2.724 6.518-2.705 7.096.005.066.021.1.05.1.04 0 .097-.043.114-.058.27-.158 2.777-5.916 3.168-6.857l-.627-.28zm-2.655 7.288c-.047 0-.126-.025-.137-.187-.02-.626 2.617-6.911 2.73-7.178l.017-.042.786.352-.016.042c-.148.358-2.9 6.764-3.217 6.937-.001.003-.083.076-.163.076z" transform="translate(-36 -4) translate(56.857 25.019)"/>
                    <path fill="#99310C" d="M10.616 17.574L8.845 21.789 10.506 17.539z" transform="translate(-36 -4) translate(56.857 25.019)"/>
                    <path fill="#FFB40E" d="M4.046 21.924c.322-.033 4.959-4.645 5.451-5.156l-.541-.57s-4.898 4.981-5.102 5.565c-.082.26.192.161.192.161" transform="translate(-36 -4) translate(56.857 25.019)"/>
                    <path fill="#99310C" d="M8.955 16.262c-.417.426-4.87 4.973-5.06 5.516-.015.047-.017.085-.005.102.01.014.035.017.053.017.044 0 .088-.015.089-.016.307-.04 4.703-4.394 5.404-5.113l-.48-.506zm-5.012 5.726c-.07 0-.106-.03-.124-.055-.03-.043-.032-.103-.006-.184.206-.588 4.912-5.38 5.112-5.583l.031-.032.603.635-.031.032c-.265.274-5.115 5.126-5.477 5.168.002 0-.052.02-.108.02z" transform="translate(-36 -4) translate(56.857 25.019)"/>
                    <path fill="#99310C" d="M9.249 16.533L6.09 19.745 9.159 16.457z" transform="translate(-36 -4) translate(56.857 25.019)"/>
                    <path fill="#FFB40E" d="M5.427 23.26c.184.092.936.003 1.278-.759.34-.761.812-1.55 1.004-1.786.193-.234 1.17-1.212 1.6-1.83.416-.6.806-1.525.806-1.525l-.595-.48s-.588 1.009-.717 1.347c-.128.338-1.199 1.604-1.434 1.851-.337.355-.618 1.057-.769 1.534-.15.477-.123 1.01-.529 1.185-.388.167-.909.33-.644.463" transform="translate(-36 -4) translate(56.857 25.019)"/>
                    <path fill="#99310C" d="M9.532 16.947c-.114.196-.577 1.006-.688 1.297-.134.35-1.208 1.618-1.444 1.866-.387.407-.678 1.263-.758 1.516-.04.128-.069.26-.095.39-.074.353-.143.686-.46.822-.065.03-.135.058-.204.086-.18.073-.482.196-.484.257 0 .003.007.018.047.038.032.016.087.025.152.025.27 0 .798-.16 1.067-.762.344-.77.821-1.565 1.011-1.796.059-.071.186-.208.348-.38.378-.405.95-1.017 1.25-1.448.365-.526.715-1.315.787-1.484l-.529-.427zm-3.934 6.388c-.08 0-.145-.012-.19-.034-.066-.033-.098-.075-.097-.123.005-.116.198-.2.54-.339l.204-.084c.273-.119.335-.415.407-.759.027-.13.055-.266.097-.398.081-.258.378-1.13.78-1.552.252-.265 1.3-1.51 1.424-1.836.129-.338.696-1.313.72-1.354l.025-.043.66.533-.013.032c-.004.01-.396.937-.81 1.533-.304.437-.879 1.051-1.259 1.458-.16.171-.287.307-.344.376-.186.228-.657 1.013-.998 1.776-.288.642-.856.814-1.146.814z" transform="translate(-36 -4) translate(56.857 25.019)"/>
                    <path fill="#99310C" d="M9.813 17.173s-.23.639-.409.954c0 0-.472 1.05-1.455 1.842-.388.332-.526.58-.612.701 0 0 .24-.436.593-.771.354-.335.881-.69 1.583-2.205l.236-.624.064.103z" transform="translate(-36 -4) translate(56.857 25.019)"/>
                    <path fill="#FFB40E" d="M2.171 19.778c.14.155.872.356 1.454-.226.581-.582 1.294-1.141 1.554-1.287.261-.147 1.51-.69 2.126-1.105.595-.402 1.28-1.118 1.28-1.118l-.39-.672s-.897.72-1.134.986c-.237.267-1.674 1.045-1.978 1.186-.438.204-.942.753-1.248 1.14-.306.388-.464.895-.903.906-.42.01-.962-.034-.76.19" transform="translate(-36 -4) translate(56.857 25.019)"/>
                    <path fill="#99310C" d="M8.183 15.437c-.174.14-.886.72-1.09.95-.246.276-1.686 1.054-1.992 1.197-.502.234-1.07.922-1.232 1.128-.082.104-.154.217-.223.327-.191.302-.371.586-.713.595l-.22.002c-.194 0-.518.001-.542.058 0 .002.002.02.032.053.056.062.252.149.515.149.228 0 .565-.066.876-.377.588-.588 1.308-1.15 1.565-1.294.079-.045.245-.124.456-.224.492-.235 1.237-.59 1.666-.88.523-.352 1.122-.956 1.248-1.086l-.346-.598zm-5.465 4.55c-.275 0-.499-.09-.579-.178-.05-.056-.066-.107-.047-.151.043-.106.253-.112.62-.113.074 0 .148 0 .219-.002.296-.007.456-.26.642-.554.07-.112.144-.227.228-.335.166-.21.745-.911 1.264-1.153.328-.153 1.736-.92 1.964-1.176.237-.266 1.103-.962 1.14-.991l.038-.031.432.746-.024.025c-.007.007-.694.724-1.286 1.124-.435.293-1.183.65-1.678.885-.21.1-.374.179-.45.222-.254.142-.964.697-1.547 1.28-.331.332-.692.401-.936.401z" transform="translate(-36 -4) translate(56.857 25.019)"/>
                    <path fill="#99310C" d="M8.367 15.754s-.436.51-.712.736c0 0-.803.8-1.994 1.17-.476.163-.69.341-.814.422 0 0 .376-.316.821-.495.445-.18 1.06-.312 2.24-1.46l.435-.493.024.12z" transform="translate(-36 -4) translate(56.857 25.019)"/>
                    <path fill="#FFB40E" d="M1.377 17.994c.312.088 6.215-2.509 6.85-2.803l-.313-.734s-6.272 2.845-6.661 3.314c-.165.214.124.223.124.223" transform="translate(-36 -4) translate(56.857 25.019)"/>
                    <path fill="#99310C" d="M7.892 14.517c-.535.243-6.244 2.847-6.606 3.284-.032.042-.046.078-.038.097.014.032.086.049.13.05l.02.002c.455 0 5.881-2.374 6.771-2.782l-.277-.651zM1.398 18.04c-.013 0-.023-.001-.032-.004-.005.002-.155-.006-.197-.1-.024-.055-.007-.12.05-.194.392-.473 6.421-3.211 6.678-3.327l.04-.018.347.816-.04.018c-.55.256-6.344 2.81-6.846 2.81z" transform="translate(-36 -4) translate(56.857 25.019)"/>
                    <path fill="#99310C" d="M8.074 14.879L4.029 16.713 8.016 14.775z" transform="translate(-36 -4) translate(56.857 25.019)"/>
                    <path fill="#FFB40E" d="M.202 13.11c.253.209 6.659.252 7.353.243l-.01-.803s-6.838.033-7.374.304c-.232.128.03.255.03.255" transform="translate(-36 -4) translate(56.857 25.019)"/>
                    <path fill="#99310C" d="M7.502 12.607c-.583.003-6.813.051-7.312.334-.045.028-.072.058-.071.082 0 .039.06.09.1.111.223.193 5.07.269 7.056.269h.236l-.01-.796zm-.227.897c-.068 0-6.816-.02-7.1-.284-.007-.002-.14-.078-.143-.194-.002-.067.038-.126.119-.176.54-.305 7.114-.344 7.394-.345h.043l.011.997-.043.001-.281.001z" transform="translate(-36 -4) translate(56.857 25.019)"/>
                    <path fill="#99310C" d="M7.533 13.003L3.123 13.024 7.519 12.884z" transform="translate(-36 -4) translate(56.857 25.019)"/>
                    <path fill="#FFB40E" d="M.537 9.932c-.012.212.35.906 1.155.948.805.043 1.683.2 1.964.298.281.098 1.517.674 2.228.856.689.177 1.657.205 1.657.205l.202-.757s-1.117-.187-1.466-.184c-.348.002-1.876-.555-2.183-.689-.443-.192-1.172-.198-1.652-.165-.48.034-.942.261-1.25-.064-.296-.312-.637-.754-.655-.448" transform="translate(-36 -4) translate(56.857 25.019)"/>
                    <path fill="#99310C" d="M.6 9.874c-.012 0-.018.038-.019.06-.004.074.054.267.228.47.158.184.44.408.885.431.813.043 1.698.204 1.976.3.085.03.254.102.469.193.501.213 1.26.535 1.756.662.604.155 1.436.195 1.613.202l.18-.673c-.216-.035-1.095-.176-1.403-.176l-.01-.045v.045c-.367 0-1.891-.558-2.199-.692-.336-.146-.83-.177-1.185-.177-.149 0-.299.005-.446.016-.128.009-.257.032-.381.055-.152.027-.295.053-.43.053-.203 0-.353-.059-.474-.186-.05-.053-.101-.11-.152-.166C.858 10.08.67 9.874.6 9.874zm6.974 2.41H7.54c-.01 0-.981-.03-1.666-.206-.503-.128-1.264-.452-1.768-.666-.213-.09-.381-.162-.464-.19-.273-.096-1.147-.254-1.952-.296-.372-.02-.707-.184-.946-.462-.173-.201-.257-.421-.25-.535.007-.127.07-.146.106-.146.103 0 .246.152.471.4l.151.165c.104.109.234.16.411.16.129 0 .268-.026.416-.053.126-.023.257-.047.39-.056.15-.01.301-.016.452-.016.363 0 .87.032 1.22.184.328.144 1.823.685 2.164.685h.01c.357 0 1.42.178 1.465.185l.048.008-.224.84z" transform="translate(-36 -4) translate(56.857 25.019)"/>
                    <path fill="#99310C" d="M7.593 11.876s-.654.018-1-.035c0 0-1.11-.062-2.185-.713-.44-.249-.712-.29-.852-.327 0 0 .477.068.908.283.43.215.945.591 2.554.699l.642-.007-.067.1z" transform="translate(-36 -4) translate(56.857 25.019)"/>
                    <path fill="#FFB40E" d="M1.137 8.099c.151.298 6.004 3.016 6.643 3.298l.3-.74S1.8 7.827 1.206 7.852c-.262.02-.07.247-.07.247" transform="translate(-36 -4) translate(56.857 25.019)"/>
                    <path fill="#99310C" d="M1.215 7.897c-.058.005-.093.019-.1.038-.013.032.025.099.054.134.153.28 5.684 2.865 6.588 3.268l.265-.656c-.533-.24-6.208-2.784-6.807-2.784zm6.589 3.56l-.04-.018C7.42 11.287 1.266 8.45 1.098 8.12c-.005-.004-.102-.122-.064-.219.022-.055.078-.087.17-.094h.01c.644 0 6.628 2.694 6.883 2.808l.04.018-.333.823z" transform="translate(-36 -4) translate(56.857 25.019)"/>
                    <path fill="#99310C" d="M7.894 11.067L3.846 9.242 7.927 10.952z" transform="translate(-36 -4) translate(56.857 25.019)"/>
                    <path fill="#FFB40E" d="M.431 15.057c.068.2.66.693 1.418.405.757-.288 1.625-.5 1.92-.523.295-.024 1.649.005 2.372-.116.7-.117 1.603-.484 1.603-.484l-.096-.779s-1.1.28-1.42.425c-.32.144-1.935.251-2.268.252-.48.002-1.153.292-1.583.518-.43.226-.77.623-1.176.449-.389-.168-.868-.437-.77-.147" transform="translate(-36 -4) translate(56.857 25.019)"/>
                    <path fill="#99310C" d="M.492 14.974c-.02 0-.027.005-.028.006-.003.003-.005.021.008.062.043.127.389.462.912.462.15 0 .3-.028.45-.085.764-.29 1.64-.502 1.932-.525.089-.008.272-.01.505-.013.54-.007 1.359-.018 1.863-.103.614-.102 1.396-.403 1.562-.469l-.085-.693c-.214.056-1.09.287-1.366.41-.332.15-1.95.255-2.285.257-.55.002-1.335.393-1.564.513-.114.06-.224.134-.33.205-.223.15-.433.291-.66.291-.077 0-.15-.015-.222-.046l-.203-.091c-.194-.089-.394-.18-.489-.18m.892.62c-.537 0-.932-.34-.994-.523-.021-.063-.02-.11.003-.144.02-.03.053-.045.1-.045.112 0 .312.092.524.189l.2.09c.062.026.124.04.188.04.203 0 .402-.135.614-.277.108-.073.22-.148.338-.21.232-.122 1.034-.52 1.603-.523.358-.002 1.943-.11 2.251-.249.32-.144 1.381-.416 1.426-.427l.047-.012.107.864-.032.013c-.009.004-.915.37-1.611.487-.51.085-1.333.096-1.877.104-.23.003-.412.005-.499.012-.286.024-1.151.233-1.909.52-.158.06-.32.091-.48.091" transform="translate(-36 -4) translate(56.857 25.019)"/>
                    <path fill="#99310C" d="M7.656 13.984s-.595.282-.936.373c0 0-1.044.394-2.277.23-.499-.05-.764.022-.907.045 0 0 .465-.13.942-.108.477.024 1.091.161 2.613-.393l.59-.267-.025.12z" transform="translate(-36 -4) translate(56.857 25.019)"/>
                    <path fill="#FFB40E" d="M10.499.386c-.192.071-.663.69-.387 1.48.277.79.48 1.695.504 2.003.023.308-.003 1.721.113 2.476.113.73.466 1.671.466 1.671l.747-.1s-.271-1.148-.41-1.481c-.138-.334-.242-2.02-.244-2.367-.002-.5-.281-1.204-.498-1.652-.217-.447-.598-.803-.431-1.226.16-.406.417-.906.14-.804" transform="translate(-36 -4) translate(56.857 25.019)"/>
                    <path fill="#99310C" d="M10.56.418c-.007 0-.022.002-.047.011-.066.025-.213.156-.324.402-.101.223-.19.581-.036 1.02.279.796.483 1.71.506 2.015.007.093.01.284.013.526.007.565.019 1.419.1 1.945.099.641.389 1.457.452 1.63l.663-.09c-.053-.223-.275-1.137-.394-1.424-.144-.346-.247-2.035-.248-2.385-.003-.573-.38-1.393-.494-1.631-.058-.12-.129-.234-.197-.345-.188-.303-.366-.59-.236-.92l.087-.212c.081-.192.203-.483.168-.539-.002-.002-.008-.003-.012-.003zm.607 7.648l-.012-.033c-.004-.01-.357-.955-.469-1.681-.082-.533-.094-1.391-.101-1.96-.004-.24-.006-.429-.013-.52-.023-.298-.224-1.2-.5-1.99-.128-.365-.115-.752.038-1.09.11-.244.272-.41.374-.449.093-.034.144-.001.162.029.058.092-.023.297-.16.625-.03.07-.06.141-.087.21-.113.286.045.54.228.836.07.112.141.229.202.353.117.242.5 1.078.503 1.671.002.375.107 2.028.24 2.35.14.333.4 1.44.412 1.488l.011.049-.828.112z" transform="translate(-36 -4) translate(56.857 25.019)"/>
                    <path fill="#99310C" d="M11.535 7.925s-.27-.622-.359-.976c0 0-.379-1.09-.223-2.376.048-.521-.022-.798-.044-.947 0 0 .126.485.104.983-.021.498-.152 1.139.38 2.727l.257.614-.115-.025z" transform="translate(-36 -4) translate(56.857 25.019)"/>
                    <path fill="#FFB40E" d="M3.88 3.876c.029.336 4.396 5.227 4.88 5.747l.551-.559S4.594 3.898 4.038 3.678c-.249-.089-.157.198-.157.198" transform="translate(-36 -4) translate(56.857 25.019)"/>
                    <path fill="#99310C" d="M3.955 3.706c-.026 0-.033.01-.036.014-.022.031-.007.109.003.141.035.32 4.157 4.958 4.838 5.698l.49-.496c-.403-.44-4.71-5.138-5.228-5.343-.025-.009-.049-.014-.067-.014zm4.803 5.981l-.03-.032c-.26-.28-4.86-5.403-4.89-5.775-.003-.004-.043-.136.01-.213.024-.035.09-.073.203-.032.562.221 5.099 5.187 5.292 5.398l.03.033-.615.621z" transform="translate(-36 -4) translate(56.857 25.019)"/>
                    <path fill="#99310C" d="M8.987 9.367L5.946 6.034 9.061 9.274z" transform="translate(-36 -4) translate(56.857 25.019)"/>
                    <path fill="#FFB40E" d="M6.005 2.125c-.152.142-.36.902.185 1.522.545.62 1.065 1.375 1.199 1.65.134.275.628 1.591 1.012 2.242.372.63 1.043 1.359 1.043 1.359l.653-.392s-.67-.951-.92-1.205c-.251-.253-.965-1.768-1.094-2.089-.186-.46-.7-1-1.066-1.327-.364-.327-.847-.504-.848-.961 0-.439.054-1.004-.164-.799" transform="translate(-36 -4) translate(56.857 25.019)"/>
                    <path fill="#99310C" d="M6.082 2.13c-.008 0-.023.005-.048.03-.053.049-.14.228-.153.5-.011.247.039.613.34.956.55.625 1.074 1.388 1.207 1.66.04.084.113.259.204.48.214.52.538 1.305.806 1.759.326.553.893 1.19 1.014 1.325l.58-.348c-.13-.184-.67-.94-.886-1.158-.26-.262-.973-1.782-1.103-2.104-.213-.529-.86-1.137-1.054-1.31-.097-.088-.205-.165-.309-.24-.285-.206-.553-.4-.554-.756l.003-.231c.004-.227.01-.51-.04-.563h-.007zm3.355 6.825l-.024-.026c-.007-.007-.68-.74-1.049-1.366-.272-.46-.597-1.249-.812-1.77-.091-.22-.163-.395-.202-.475-.13-.268-.648-1.021-1.193-1.64-.25-.286-.38-.649-.363-1.021.012-.27.1-.49.181-.565.07-.065.132-.071.175-.025.072.076.072.288.066.628l-.003.228c0 .31.24.482.517.682.106.076.215.155.316.246.197.177.857.797 1.077 1.344.139.345.843 1.83 1.084 2.074.25.253.897 1.172.925 1.21l.029.042-.724.434z" transform="translate(-36 -4) translate(56.857 25.019)"/>
                    <path fill="#99310C" d="M9.725 8.677s-.478-.465-.69-.758c0 0-.749-.856-1.077-2.107-.146-.5-.312-.728-.387-.857 0 0 .294.398.457.867.162.468.275 1.113 1.35 2.367l.462.466-.115.022z" transform="translate(-36 -4) translate(56.857 25.019)"/>
                    <path fill="#FFB40E" d="M2.582 5.503c-.09.19-.016.977.71 1.343.725.366 1.475.869 1.697 1.073.222.204 1.145 1.238 1.732 1.695.568.442 1.45.862 1.45.862l.468-.615s-.96-.627-1.281-.766c-.322-.14-1.52-1.274-1.754-1.522-.335-.357-1.005-.66-1.46-.824-.454-.164-.964-.143-1.127-.568-.155-.407-.304-.953-.435-.678" transform="translate(-36 -4) translate(56.857 25.019)"/>
                    <path fill="#99310C" d="M2.658 5.474c-.003 0-.018.008-.037.049-.031.066-.05.267.035.525.077.233.252.554.654.757.732.37 1.488.878 1.708 1.08.067.062.196.197.36.368.382.4.96 1.005 1.369 1.324.499.388 1.25.764 1.411.842l.417-.546c-.188-.122-.956-.616-1.234-.736-.333-.144-1.533-1.282-1.768-1.532-.385-.41-1.201-.726-1.442-.813-.122-.044-.25-.074-.372-.104-.337-.081-.656-.159-.782-.49-.027-.07-.053-.143-.08-.216-.067-.19-.182-.508-.24-.508zm5.526 5.058l-.031-.015c-.009-.004-.893-.427-1.458-.867-.414-.323-.995-.931-1.38-1.333-.162-.17-.29-.304-.355-.364-.216-.198-.962-.7-1.688-1.066-.334-.17-.583-.457-.699-.81-.083-.256-.079-.493-.03-.594.012-.025.047-.1.115-.1.112 0 .192.205.321.568l.079.213c.11.288.393.356.72.435.126.03.255.062.381.107.246.089 1.078.411 1.476.835.251.267 1.43 1.378 1.74 1.512.321.139 1.248.744 1.287.77l.042.027-.52.682z" transform="translate(-36 -4) translate(56.857 25.019)"/>
                    <path fill="#99310C" d="M8.354 10.163s-.61-.25-.909-.44c0 0-.998-.507-1.745-1.544-.312-.409-.547-.557-.663-.649 0 0 .414.258.73.63.317.374.65.93 2.092 1.683l.594.255-.1.065z" transform="translate(-36 -4) translate(56.857 25.019)"/>
                    <path fill="#FFB40E" d="M17.227 12.88c0 2.785-2.163 5.043-4.831 5.043-2.669 0-4.832-2.258-4.832-5.043 0-2.784 2.163-5.042 4.832-5.042 2.668 0 4.831 2.258 4.831 5.042" transform="translate(-36 -4) translate(56.857 25.019)"/>
                    <path fill="#99310C" d="M12.396 7.884c-2.64 0-4.788 2.241-4.788 4.996 0 2.756 2.148 4.997 4.788 4.997s4.788-2.241 4.788-4.997c0-2.755-2.148-4.996-4.788-4.996m0 10.084c-2.688 0-4.875-2.282-4.875-5.088 0-2.805 2.187-5.087 4.875-5.087s4.875 2.282 4.875 5.087c0 2.806-2.187 5.088-4.875 5.088" transform="translate(-36 -4) translate(56.857 25.019)"/>
                    <path fill="#99310C" d="M13.996 10.873c-.629 0-1.113.548-1.255 1.099-.141.55.155 1.193.232 1.306.076.114.43.429.544.534.114.105-.1.318-.196.369-.095.051-.378.017-.44-.008-.061-.025-.35.066-.37.072-.022-.006-.31-.097-.37-.072-.063.025-.346.06-.442.008-.095-.05-.31-.264-.195-.369.114-.105.467-.42.544-.534.076-.113.372-.755.23-1.306-.14-.551-.625-1.1-1.254-1.1-.628 0-1.204.513-1.368.822 0 0 .59-.673 1.383-.597.793.077 1.162.54 1.217.924.055.385-.037 1.097-.313 1.328-.277.23-.627.481-.498.654.129.174.313.25.442.25.13 0 .185-.057.277-.019.09.038.199.093.342.096h.008c.143-.003.252-.058.343-.096.092-.038.147.02.276.02.13 0 .314-.077.443-.25.129-.174-.222-.424-.498-.655-.277-.23-.369-.943-.314-1.328.056-.385.424-.847 1.217-.924.793-.076 1.383.597 1.383.597-.163-.309-.74-.821-1.368-.821" transform="translate(-36 -4) translate(56.857 25.019)"/>
                    <path fill="#99310C" d="M9.702 12.097s.533-.648 1.176-.648c.642 0 1.023.432 1.088.625 0 0-.49-.534-1.121-.534s-1.143.557-1.143.557" transform="translate(-36 -4) translate(56.857 25.019)"/>
                    <path fill="#99310C" d="M10.05 12.017s0 .83.915.83c.914 0 .925-.648.925-.648s-.185.557-.958.557c-.773 0-.86-.66-.882-.739" transform="translate(-36 -4) translate(56.857 25.019)"/>
                    <path fill="#99310C" d="M11.122 12.207c0 .154-.12.278-.267.278-.147 0-.267-.124-.267-.278 0-.154.12-.278.267-.278.147 0 .267.124.267.278" transform="translate(-36 -4) translate(56.857 25.019)"/>
                    <path fill="#99310C" d="M9.963 12.045s1.156-.718 1.94.054c0 0-.937-.603-1.94-.054M15.319 12.097s-.534-.648-1.176-.648c-.642 0-1.023.432-1.088.625 0 0 .49-.534 1.12-.534.632 0 1.144.557 1.144.557" transform="translate(-36 -4) translate(56.857 25.019)"/>
                    <path fill="#99310C" d="M14.97 12.017s0 .83-.914.83-.925-.648-.925-.648.185.557.958.557c.772 0 .86-.66.881-.739" transform="translate(-36 -4) translate(56.857 25.019)"/>
                    <path fill="#99310C" d="M13.9 12.207c0 .154.118.278.266.278.147 0 .267-.124.267-.278 0-.154-.12-.278-.267-.278-.148 0-.267.124-.267.278" transform="translate(-36 -4) translate(56.857 25.019)"/>
                    <path fill="#99310C" d="M15.058 12.045s-1.156-.718-1.94.054c0 0 .937-.603 1.94-.054M12.896 15.062c-.113-.037-.417.031-.417.031s-.304-.068-.417-.03c-.113.037-.62.086-.62.086.072.062.542 0 .62-.025.077-.024.417.1.417.1s.34-.124.417-.1c.077.025.548.087.62.025 0 0-.507-.05-.62-.087" transform="translate(-36 -4) translate(56.857 25.019)"/>
                    <path fill="#99310C" d="M13.123 14.668c-.066-.084-.348-.235-.465-.099-.116.136-.123.144-.195.144-.072 0-.08-.008-.196-.144-.116-.136-.399.015-.464.099-.066.083-.515.431-.515.431.159 0 .667-.446.79-.5.123-.052.38.266.384.272v.001h.001v-.001c.005-.006.262-.324.384-.271.123.053.631.5.79.5 0 0-.449-.349-.514-.432M13.327 15.236c-.066 0-.254.166-.349.25-.078.068-.258.178-.319.214-.033-.008-.068-.014-.105-.014h-.18c-.042 0-.08.007-.116.017-.056-.033-.244-.147-.325-.217-.094-.084-.283-.25-.348-.25s-.276-.03-.305-.068c0 0 .095.113.233.113.137 0 .224.129.275.197.047.063.273.215.444.232-.338.112-.445.601-.445.601.274-.62.628-.523.675-.507v.002l.002-.001h.003v-.001c.046-.016.4-.113.675.507 0 0-.108-.493-.45-.602.17-.023.386-.17.432-.231.05-.068.137-.197.275-.197s.232-.113.232-.113c-.028.037-.239.068-.304.068" transform="translate(-36 -4) translate(56.857 25.019)"/>
                </g>
            </g>
        </g>
    </g>
</svg>
