<svg xmlns="http://www.w3.org/2000/svg" width="220" height="146" viewBox="0 0 220 146">
    <g fill="none" fill-rule="evenodd" transform="translate(0 -2)">
        <path fill="#56C5FF" d="M83.407 3.007l85 19.066C173.43 23.199 177 27.658 177 32.806V137c0 6.075-4.925 11-11 11H81c-6.075 0-11-4.925-11-11V13.74c0-6.075 4.925-11 11-11 .81 0 1.617.09 2.407.267z"/>
        <path fill="#FFF" d="M99 42H117V82H99zM132 54H150V94H132z"/>
        <g fill="#36355E">
            <path d="M103.115 80.843H.68c-.376 0-.68-.307-.68-.685 0-.379.304-.684.68-.684h102.434c.38 0 .68.305.68.684 0 .378-.3.685-.68.685" transform="translate(0 67)"/>
            <path d="M60.408 80.843c-.376 0-.68-.307-.68-.685V54.995c0-.378.304-.685.68-.685.375 0 .68.307.68.685v25.163c0 .378-.305.685-.68.685" transform="translate(0 67)"/>
            <path d="M60.408 72.835c-.189 0-.376-.08-.51-.233-.249-.284-.222-.716.06-.966l9.103-8.065c.282-.25.711-.221.96.062.248.284.22.716-.061.966l-9.102 8.065c-.13.114-.29.17-.45.17M60.408 65.794c-.167 0-.334-.062-.466-.187L53.375 59.4c-.273-.26-.287-.692-.03-.968.258-.275.688-.29.962-.03l6.567 6.21c.273.258.287.692.03.967-.134.143-.315.216-.496.216M36.871 80.843c-.376 0-.68-.307-.68-.685V65.827c0-.378.304-.684.68-.684.375 0 .68.306.68.684v14.33c0 .379-.305.686-.68.686" transform="translate(0 67)"/>
            <path d="M36.871 78.078c-.196 0-.392-.085-.526-.25-.238-.292-.196-.723.095-.963l5.332-4.402c.291-.24.719-.196.957.095.239.292.196.723-.094.963l-5.332 4.402c-.127.105-.28.155-.431.155M36.87 74.687c-.155 0-.313-.054-.441-.164l-6.302-5.417c-.285-.246-.32-.678-.075-.965.244-.288.673-.321.959-.076l6.302 5.417c.285.245.319.677.075.965-.134.158-.325.24-.517.24" transform="translate(0 67)"/>
            <path d="M19.783 79.474h36.148c-.358-9.72-8.328-17.516-18.074-17.516-9.745 0-17.715 7.796-18.074 17.516zm36.841 1.369H19.09c-.375 0-.68-.307-.68-.685 0-10.79 8.724-19.568 19.447-19.568 10.723 0 19.447 8.778 19.447 19.568 0 .378-.305.685-.68.685z" transform="translate(0 67)"/>
            <path d="M57.292 79.474H83.39c.422-1.823.636-3.7.636-5.585 0-13.491-10.908-24.467-24.316-24.467-8.254 0-15.986 4.275-20.445 11.23 9.826.715 17.681 8.87 18.027 18.822zm26.632 1.369h-27.3c-.376 0-.68-.307-.68-.685 0-9.911-8.017-18.07-17.87-18.188-.242-.003-.465-.135-.584-.347-.12-.21-.118-.47.003-.68 4.587-7.951 13.1-12.89 22.217-12.89 14.158 0 25.677 11.59 25.677 25.836 0 2.178-.27 4.345-.805 6.439-.077.303-.348.515-.658.515z" transform="translate(0 67)"/>
            <path d="M48.559 51.896c-.376 0-.68-.307-.68-.684V11.939C47.879 5.356 53.2 0 59.744 0s11.865 5.356 11.865 11.94c0 .377-.304.683-.68.683-.376 0-.68-.306-.68-.684 0-5.828-4.712-10.57-10.505-10.57-5.792 0-10.505 4.742-10.505 10.57v39.273c0 .377-.304.684-.68.684" transform="translate(0 67)"/>
            <path d="M69.078 25.263h3.702l2.365-8.175-4.216-4.243-4.216 4.243 2.365 8.175zm4.212 1.37h-4.723c-.302 0-.568-.202-.652-.494l-2.62-9.057c-.07-.239-.004-.498.172-.675l4.981-5.014c.255-.256.707-.256.962 0l4.981 5.014c.175.177.241.436.172.675l-2.62 9.057c-.084.292-.35.493-.653.493zM48.559 51.896c-.376 0-.68-.307-.68-.684V25.137c0-3.743-3.027-6.789-6.747-6.789-3.72 0-6.746 3.046-6.746 6.789 0 .377-.305.684-.68.684-.376 0-.68-.307-.68-.684 0-4.498 3.636-8.158 8.106-8.158s8.107 3.66 8.107 8.158v26.075c0 .377-.304.684-.68.684" transform="translate(0 67)"/>
            <path d="M32.648 33.753h2.115l1.485-5.131-2.542-2.558-2.542 2.558 1.484 5.131zm2.625 1.37h-3.135c-.302 0-.568-.202-.653-.494l-1.74-6.013c-.069-.24-.003-.499.172-.676l3.308-3.329c.255-.256.706-.256.962 0l3.307 3.33c.175.176.242.435.172.675l-1.739 6.013c-.084.292-.351.493-.654.493z" transform="translate(0 67)"/>
        </g>
        <rect width="65" height="48" x="155" y="100" fill="#2C5A91" rx="11"/>
        <g stroke="#36355E" stroke-width="1.5" transform="translate(188 53)">
            <circle cx="14" cy="14" r="14"/>
            <path stroke-linecap="round" d="M14.5 47L14.5 12M14.5 23.5L5 15.5M15 19.5L20.5 14"/>
        </g>
    </g>
</svg>
