<svg xmlns="http://www.w3.org/2000/svg" width="42" height="52" viewBox="0 0 42 52">
    <g fill="none">
        <path fill="#1D88C0" d="M59.062 9.502H52.12L8.784 30.4v7.433c.075 2.164 1.832 3.89 3.997 3.927h46.281c2.091-.037 3.756-1.763 3.719-3.854l-.002-.073V13.569c.117-2.126-1.512-3.946-3.638-4.063l-.079-.004z" transform="rotate(90 21.5 21)"/>
        <g transform="rotate(90 21.5 21) translate(.16 .624)">
            <path fill="#56C5FF" d="M54.904 9.019v19.564c0 2.169-1.758 3.927-3.926 3.927H4.697c-2.13 0-3.858-1.726-3.858-3.856V4.39C.802 2.26 2.497.503 4.627.464h46.351c2.17 0 3.927 1.758 3.927 3.927v4.628z"/>
            <circle cx="47.822" cy="25.568" r="2.805" fill="#1D88C0"/>
            <circle cx="27.837" cy="16.522" r="12.482" fill="#1D88C0"/>
            <circle cx="7.852" cy="7.336" r="2.805" fill="#1D88C0"/>
            <path fill="#FFF" d="M31.64 18.649c0 .807-.268 1.488-.801 2.043-.534.555-1.252.903-2.156 1.044v.953c0 .232-.067.421-.202.568-.134.146-.312.22-.533.22-.221 0-.4-.074-.534-.22-.134-.147-.202-.336-.202-.568v-.923c-.548-.05-1.081-.171-1.6-.363-.445-.164-.837-.373-1.176-.626l-.165-.13c-.125-.091-.212-.192-.26-.303-.048-.111-.072-.247-.072-.409 0-.212.06-.398.18-.56.12-.161.258-.242.411-.242.097 0 .185.018.267.053.082.035.19.093.325.174.442.303.877.525 1.305.666.427.141.877.212 1.348.212.644 0 1.141-.131 1.492-.394.351-.262.527-.64.527-1.135 0-.292-.097-.53-.289-.71-.192-.182-.432-.326-.72-.432l-.239-.083c-.173-.057-.375-.119-.605-.185l-.368-.103c-.721-.191-1.307-.386-1.76-.582-.451-.197-.84-.497-1.167-.9-.327-.404-.49-.95-.49-1.635 0-.817.278-1.513.836-2.088.557-.575 1.288-.933 2.192-1.075v-.953c0-.232.067-.421.201-.567.135-.147.313-.22.534-.22.221 0 .399.073.534.22.134.146.201.335.201.567v.938c.971.131 1.808.5 2.51 1.105.23.181.345.418.345.711 0 .212-.06.399-.18.56-.12.161-.262.242-.425.242-.087 0-.17-.015-.253-.045-.081-.03-.19-.091-.324-.182-.394-.292-.767-.512-1.117-.658-.351-.146-.767-.22-1.248-.22-.596 0-1.072.14-1.427.417-.356.277-.534.658-.534 1.142 0 .333.101.603.303.81.202.206.457.365.764.476l.291.1c.212.067.46.14.744.219l.22.06c.701.181 1.273.368 1.716.56.442.191.82.481 1.132.87.312.388.468.915.468 1.58z"/>
        </g>
    </g>
</svg>
