<?xml version="1.0" encoding="UTF-8"?>
<svg width="125px" height="119px" viewBox="0 0 125 119" version="1.1" xmlns="http://www.w3.org/2000/svg" xmlns:xlink="http://www.w3.org/1999/xlink">
    <!-- Generator: Sketch 59 (86127) - https://sketch.com -->
    <title>bot_debt</title>
    <desc>Created with Sketch.</desc>
    <defs>
        <polygon id="path-1" points="0.0149936404 0.00868354029 10.4526178 0.00868354029 10.4526178 12.75 0.0149936404 12.75"></polygon>
        <polygon id="path-3" points="0.018088 0.1173 33.543788 0.1173 33.543788 23.264432 0.018088 23.264432"></polygon>
    </defs>
    <g id="Home" stroke="none" stroke-width="1" fill="none" fill-rule="evenodd">
        <g id="Partner_removal_modal_shares-Copy" transform="translate(-127.000000, -363.000000)">
            <g id="bot_debt" transform="translate(127.000000, 363.000000)">
                <ellipse id="Shadow" fill="#D8D8D8" cx="52" cy="114.862069" rx="32" ry="3.86206897"></ellipse>
                <path d="M89.380152,90.716981 L89.239052,85.819961 C103.587052,86.813271 108.741452,81.707151 108.776982,79.865371 C108.847192,76.220741 97.606112,66.415481 82.446192,65.392251 L82.585932,63.321481 C98.525472,64.397071 112.903902,72.547721 112.752262,80.421441 C112.667772,84.813051 108.544422,90.163801 89.380152,90.716981" id="Fill-1" fill="#EFCE2E"></path>
                <path d="M98.710228,37.110371 C98.710228,37.110371 86.184628,83.323171 72.375528,102.876571 C71.880828,103.580371 71.382728,104.250171 70.882928,104.880871 C61.648528,107.935771 50.564528,108.350741 50.564528,108.350741 C50.564528,108.350741 38.878728,98.184571 36.491928,93.167871 C35.341028,84.547171 41.216228,40.175471 48.402128,23.348871 C48.419128,23.308241 48.436128,23.268971 48.453128,23.228171 C48.453128,23.228171 48.594228,23.168671 48.873028,23.070071 L48.878128,23.066841 L48.881528,23.066841 C51.047328,22.299971 61.357828,19.236571 77.885228,23.549471 C94.123628,27.785871 98.710228,37.110371 98.710228,37.110371" id="Fill-3" fill="#F4E9DC"></path>
                <path d="M72.375494,102.876622 C71.880794,103.580422 71.382694,104.250222 70.882894,104.880922 C61.648494,107.935822 50.564494,108.350622 50.564494,108.350622 C50.564494,108.350622 38.878694,98.184452 36.491894,93.167922 C35.340994,84.547222 41.216194,40.175522 48.402094,23.348752 L48.872994,23.070122 L48.878094,23.066722 L48.881494,23.066722 L58.311394,23.316622 C58.311394,23.316622 44.580494,78.726252 47.363394,94.278022 C54.974294,99.315122 65.835594,101.943322 72.375494,102.876622" id="Fill-5" fill="#EDD9C3"></path>
                <path d="M98.709888,37.110864 C98.709888,37.110864 97.644838,34.955434 94.741748,32.247504 C97.036748,46.307694 76.114338,84.286884 62.737718,101.900754 C57.079438,103.961494 54.047828,107.101224 49.798338,107.673954 C50.281818,108.105414 50.564018,108.351064 50.564018,108.351064 C50.564018,108.351064 61.648868,107.935244 70.883268,104.881364 C85.266798,86.709044 98.709888,37.110864 98.709888,37.110864" id="Fill-7" fill="#F9F1E8"></path>
                <path d="M59.471015,21.332076 C54.763715,25.763466 43.967695,90.874146 46.465845,94.724136 C47.993635,97.078296 67.452685,102.702916 72.185145,103.215806 C72.289185,103.051586 72.420595,102.835856 72.576145,102.595136 C70.345575,103.144576 49.928745,96.459836 48.266485,93.898786 C45.640835,89.852616 55.692085,24.462626 60.422675,21.305216 C60.138435,21.310656 59.634895,21.324086 59.471015,21.332076" id="Fill-9" fill="#E5C9AE"></path>
                <path d="M53.576724,109.212114 C52.705644,108.656724 50.981164,103.169974 50.981164,103.169974 L53.963814,101.140004 C56.688234,99.076204 59.498334,100.810374 59.661194,103.484814 C59.766764,105.228164 55.044504,110.147284 53.576724,109.212114" id="Fill-11" fill="#C6A98D"></path>
                <path d="M59.649566,103.393099 C59.428056,100.772039 56.656886,99.100429 53.963916,101.139919 L50.981096,103.170059 C50.981096,103.170059 51.189856,103.830169 51.494836,104.709409 C54.022396,103.662379 57.068966,103.178049 59.649566,103.393099" id="Fill-13" fill="#AF8461"></path>
                <g id="Group-17" transform="translate(45.900000, 101.882700)">
                    <mask id="mask-2" fill="white">
                        <use xlink:href="#path-1"></use>
                    </mask>
                    <g id="Clip-16"></g>
                    <path d="M9.952956,7.986838 C11.238836,4.211478 9.929326,1.132438 7.323226,0.244698 C4.717296,-0.643042 1.800606,0.996778 0.514556,4.772138 C-0.771154,8.546818 0.538356,11.625858 3.144286,12.513938 C5.750216,13.402018 8.667246,11.761688 9.952956,7.986838" id="Fill-15" fill="#594547" mask="url(#mask-2)"></path>
                </g>
                <path d="M55.062643,103.34827 C54.566923,102.79509 53.947103,102.37417 53.223243,102.12733 C50.617313,101.23976 47.700623,102.87941 46.414573,106.65477 C45.128863,110.42945 46.438373,113.50866 49.044303,114.39657 C50.240423,114.80389 51.500463,114.67214 52.640143,114.05266 C49.934083,112.90346 51.467823,104.12653 55.062643,103.34827" id="Fill-18" fill="#443235"></path>
                <path d="M51.29359,107.965504 C52.08647,105.637354 51.68442,103.876154 50.57721,103.499264 C49.47,103.122204 48.07685,104.271574 47.2838,106.599894 C46.49058,108.928044 46.8928,110.688904 47.99984,111.065794 C49.10739,111.443024 50.50071,110.293824 51.29359,107.965504" id="Fill-20" fill="#D6C2B4"></path>
                <path d="M49.945371,107.489198 C50.158891,106.862238 50.007081,106.243268 49.606901,106.106928 C49.207231,105.970928 48.709131,106.368558 48.495611,106.995688 C48.282091,107.622308 48.434071,108.241618 48.833401,108.377618 C49.233751,108.513788 49.732021,108.116158 49.945371,107.489198" id="Fill-22" fill="#594547"></path>
                <path d="M57.138581,58.787853 C58.576951,61.673773 80.661821,69.226533 84.385161,67.631253 C86.546541,66.704753 96.333611,42.767563 95.618081,37.156713 C95.240341,34.206703 68.617151,23.740653 63.338481,26.712593 C60.579721,28.266393 55.083961,54.666033 57.138581,58.787853" id="Fill-24" fill="#7A646F"></path>
                <path d="M58.09682,58.268571 C59.47875,61.036341 80.66687,68.287521 84.23993,66.759221 C86.31478,65.872331 95.727,42.893261 95.04156,37.498991 C94.68099,34.662541 69.09072,24.605681 64.02132,27.467121 C61.37323,28.961761 56.12261,54.314201 58.09682,58.268571" id="Fill-26" fill="#42323A"></path>
                <path d="M45.997529,63.711716 C46.830529,59.253976 46.060599,56.000686 44.527199,55.710326 C42.993629,55.420646 41.277309,58.203716 40.444989,62.661966 C39.612499,67.119876 40.180129,70.969016 41.713869,71.259036 C43.246759,71.548716 45.165209,68.169966 45.997529,63.711716" id="Fill-28" fill="#D3BCA9"></path>
                <path d="M40.177919,64.503117 C41.448669,63.266537 42.937019,62.704687 44.240069,63.148387 C44.901029,63.373467 45.437719,63.838247 45.843509,64.464697 C45.897909,64.217177 45.949929,63.966767 45.997529,63.711767 C46.830529,59.254027 46.060599,56.000567 44.527199,55.710207 C42.993459,55.420527 41.277309,58.203597 40.444989,62.662017 C40.327179,63.291357 40.240819,63.906247 40.177919,64.503117" id="Fill-30" fill="#C6A98D"></path>
                <path d="M45.64109,63.607965 C46.28692,60.151015 45.97089,57.681085 45.10559,57.516865 C44.23995,57.352135 43.1528,59.555675 42.50731,63.012625 C41.86233,66.469575 42.04032,69.405645 42.90562,69.570035 C43.77126,69.734595 44.99628,67.065255 45.64109,63.607965" id="Fill-32" fill="#3F3137"></path>
                <path d="M48.765826,107.617208 C49.778346,108.159848 53.963916,101.139868 53.963916,101.139868 C53.963916,101.139868 41.543716,96.703378 36.556936,93.300148 C37.777026,96.435288 44.834066,105.509888 48.765826,107.617208" id="Fill-34" fill="#EDD9C3"></path>
                <path d="M87.747047,32.90469 C79.676297,29.32517 67.371017,25.57684 64.021337,27.46724 C61.493777,28.89371 56.600667,52.04108 57.876517,57.58563 C69.549227,48.61201 78.090197,42.01788 87.747047,32.90469" id="Fill-36" fill="#3A2C32"></path>
                <path d="M66.080853,62.592283 C72.934403,65.250913 82.011383,67.712173 84.239913,66.759323 C86.159893,65.938563 94.354403,46.214993 95.027773,38.996963 C85.345763,48.302423 77.223673,55.264773 66.080853,62.592283" id="Fill-38" fill="#3A2C32"></path>
                <polygon id="Fill-40" fill="#B8FAFF" points="84.23483 46.049311 88.41139 47.471531 86.04941 54.405151 81.87302 52.982931"></polygon>
                <polygon id="Fill-42" fill="#B8FAFF" points="84.816961 47.119954 87.296751 47.964004 85.466871 53.334814 82.987081 52.490424"></polygon>
                <polygon id="Fill-44" fill="#B8FAFF" points="65.717529 42.001526 73.614879 44.691776 72.632109 47.577186 64.734759 44.887446"></polygon>
                <polygon id="Fill-46" fill="#B8FAFF" points="67.210996 42.873099 71.900106 44.470589 71.138676 46.705579 66.449566 45.108259"></polygon>
                <path d="M95.041526,37.499008 C94.680956,34.662388 69.090856,24.605698 64.021286,27.467138 C64.002076,27.478018 63.980996,27.502498 63.961786,27.515928 C69.885266,25.350298 94.204446,34.973148 94.555836,37.737858 C95.218666,42.954818 86.437146,64.619108 83.983026,66.838288 C84.072446,66.813638 84.165946,66.791368 84.239896,66.759238 C86.314916,65.872178 95.727136,42.893108 95.041526,37.499008" id="Fill-48" fill="#2B1F25"></path>
                <polygon id="Fill-50" fill="#B8FAFF" points="84.472218 46.638837 87.863378 47.793987 85.811988 53.815727 82.420828 52.660577"></polygon>
                <polygon id="Fill-52" fill="#B8FAFF" points="66.476715 42.472171 72.890135 44.656331 72.036225 47.162811 65.623655 44.978311"></polygon>
                <path d="M94.973713,77.246147 C94.973713,77.246147 79.995013,96.546757 83.492423,97.453197 C87.625633,98.524877 96.769253,77.724527 96.769253,77.724527 L94.973713,77.246147 Z" id="Fill-54" fill="#7F4B42"></path>
                <path d="M87.615484,90.89577 C87.615484,92.18998 87.561084,93.44084 87.461124,94.6271 C91.744614,89.14987 96.769134,77.72451 96.769134,77.72451 L94.973764,77.24613 C94.973764,77.24613 90.901754,82.49488 87.499204,87.6469 C87.574514,88.68832 87.615484,89.77581 87.615484,90.89577" id="Fill-56" fill="#6B3932"></path>
                <path d="M117.611933,66.316507 C112.994903,74.778767 104.002413,78.774617 97.525923,75.241677 C91.050283,71.707717 89.543743,61.983887 94.160773,53.520947 C98.777803,45.058347 107.770463,41.063007 114.246443,44.596117 C120.722253,48.130077 122.228963,57.853907 117.611933,66.316507 M114.922873,41.366967 C106.907373,36.993717 95.952573,41.616697 90.454773,51.693957 C84.956633,61.771047 86.997483,73.484897 95.012813,77.858487 C103.028483,82.231567 113.982943,77.607907 119.481253,67.531327 C124.979053,57.454067 122.938203,45.740727 114.922873,41.366967" id="Fill-58" fill="#FFC76C"></path>
                <path d="M102.714017,44.940656 C106.384997,43.070316 110.361977,42.734056 113.731887,44.337156 C115.942567,44.694836 118.045127,45.332336 119.993157,46.212086 C118.738217,44.195716 117.041447,42.523256 114.922737,41.367086 C106.907407,36.993666 95.952607,41.616646 90.454807,51.694076 C89.698817,53.079236 89.090727,54.495166 88.615917,55.918916 C91.411567,50.698386 96.508677,46.678056 102.714017,44.940656" id="Fill-60" fill="#FFE197"></path>
                <path d="M118.309443,67.101431 C113.688843,75.560461 104.689383,79.554781 98.207623,76.023201 C91.727563,72.490261 90.219663,62.770001 94.840093,54.310801 C99.460693,45.850751 108.460323,41.856771 114.941403,45.388861 C121.421973,48.921801 122.929873,58.641891 118.309443,67.101431" id="Fill-62" fill="#B8FAFF"></path>
                <path d="M118.913164,68.076602 C114.295964,76.539202 105.303644,80.535052 98.827154,77.002282 C92.351514,73.468152 90.844974,63.744322 95.462004,55.281552 C100.079034,46.818952 109.071694,42.823442 115.547674,46.356552 C122.023484,49.890342 123.530194,59.614342 118.913164,68.076602 M116.683274,42.668232 C108.667774,38.294812 97.712974,42.917962 92.215174,52.995052 C86.717034,63.072142 88.757884,74.786162 96.773384,79.159582 C104.789054,83.532832 115.743514,78.909172 121.241654,68.832422 C126.739624,58.755332 124.698604,47.041992 116.683274,42.668232" id="Fill-64" fill="#FF903E"></path>
                <path d="M8.531365,88.604272 L3.655935,88.124702 C4.992475,74.538472 9.839515,64.629002 17.673115,59.467972 C24.830625,54.753872 34.382585,54.094272 45.296075,57.562272 L44.604855,59.737762 C35.012775,56.689832 25.610755,58.339682 19.645795,62.268722 C13.088895,66.588592 9.717965,76.539202 8.531365,88.604272" id="Fill-66" fill="#EFCE2E"></path>
                <path d="M94.768268,86.696073 L92.197018,84.831003 L89.963388,91.034983 L92.838598,91.356113 C94.393248,90.147413 94.999128,89.167533 94.768268,86.696073" id="Fill-68" fill="#2A2A2A"></path>
                <path d="M82.959575,90.728932 C82.473035,91.999172 84.591235,92.729832 86.585505,93.175062 C88.482195,93.597512 90.482415,91.874562 91.665615,90.208562 L90.914555,89.794612 C90.303065,90.449962 87.784685,91.030852 86.881815,90.661782 C85.470135,90.082082 83.447305,89.456142 82.959575,90.728932" id="Fill-70" fill="#2A2A2A"></path>
                <path d="M88.527738,81.48202 C89.045218,80.15738 90.780918,80.65004 92.261788,81.31627 C93.669898,81.95173 93.770198,84.45073 93.416258,86.47475 L92.703278,86.43089 C92.755468,85.55896 91.614768,83.75169 90.837358,83.59223 C89.620498,83.34097 88.007198,82.81091 88.527738,81.48202" id="Fill-72" fill="#2A2A2A"></path>
                <path d="M5.738231,96.629785 C4.465781,96.953975 4.207041,94.809935 4.189191,92.820935 C4.171851,90.928665 4.590901,88.449385 6.371481,87.497385 L6.605911,88.272755 C5.876781,88.790065 6.414831,91.905825 6.579901,92.826375 C6.836601,94.266445 7.014931,96.305425 5.738231,96.629785" id="Fill-74" fill="#2A2A2A"></path>
                <path d="M3.822246,85.674424 L2.777256,88.674414 L9.361356,89.025634 L8.840646,86.180514 C7.235166,85.039814 6.122686,84.741634 3.822246,85.674424" id="Fill-76" fill="#2A2A2A"></path>
                <path d="M11.086261,95.821129 C12.442691,95.920579 12.532111,93.682189 12.383871,91.644229 C12.242261,89.706059 10.015941,88.286729 8.079471,87.634099 L7.899611,88.472369 C8.703201,88.869149 9.985341,91.113489 9.892181,92.084359 C9.743601,93.602799 9.726941,95.720659 11.086261,95.821129" id="Fill-78" fill="#2A2A2A"></path>
                <path d="M1.375266,95.30897 C0.087176,95.56839 -0.062254,93.415 0.017646,91.42668 C0.095336,89.5356 2.174266,87.89646 3.999726,87.03303 L4.195056,87.82115 C3.441616,88.29936 2.285956,90.62445 2.404956,91.55146 C2.589236,93.00394 2.667606,95.05006 1.375266,95.30897" id="Fill-80" fill="#2A2A2A"></path>
                <path d="M93.945485,31.535901 C90.737245,28.760141 85.647445,25.574681 77.885415,23.549301 C70.645795,21.660091 64.605355,21.189021 59.913185,21.317541 C59.880375,21.318391 59.852835,21.319241 59.821385,21.320091 C59.085625,21.341681 58.383695,21.377041 57.715935,21.424811 C57.692305,21.426681 57.669015,21.428551 57.645725,21.430251 C55.950485,21.554011 54.477605,21.751041 53.237115,21.972041 C53.232185,21.972891 53.227425,21.973911 53.222665,21.974761 C51.981835,22.196271 50.974755,22.438351 50.211455,22.651531 C50.201425,22.654251 50.191565,22.657311 50.181365,22.660031 C49.998105,22.711541 49.827595,22.761011 49.673065,22.807931 C49.671025,22.808611 49.668815,22.809291 49.666775,22.809801 C49.349215,22.906531 49.093025,22.991871 48.899565,23.060041 C48.891745,23.062931 48.886305,23.065141 48.878655,23.067521 C48.795185,23.097441 48.724975,23.122941 48.666325,23.145041 C48.652555,23.150141 48.642355,23.153881 48.629945,23.158811 C48.581495,23.177001 48.543415,23.191621 48.515705,23.202501 C48.506695,23.206241 48.501935,23.208111 48.495135,23.211001 C48.469635,23.221201 48.453655,23.227831 48.453655,23.227831 C46.516165,27.725181 44.673195,34.233121 43.035925,41.512691 C72.472615,43.274061 87.770915,35.779271 93.945485,31.535901" id="Fill-82" fill="#66250E" opacity="0.187244234"></path>
                <g id="Group-86" transform="translate(51.340000, 0.052700)">
                    <mask id="mask-4" fill="white">
                        <use xlink:href="#path-3"></use>
                    </mask>
                    <g id="Clip-85"></g>
                    <path d="M26.888628,0.143922 C24.689508,-0.220558 19.849778,3.261892 17.264078,3.557862 C14.678718,3.854512 7.468508,1.444592 4.952678,2.349162 C2.437018,3.253732 0.018088,22.483112 0.018088,22.483112 L33.543788,23.264432 C33.543788,23.264432 29.087408,0.508572 26.888628,0.143922" id="Fill-84" fill="#C46C51" mask="url(#mask-4)"></path>
                </g>
                <path d="M64.760769,15.446812 C60.368309,11.229452 57.634879,6.437322 56.858149,2.265522 C56.651599,2.297992 56.460519,2.341342 56.292729,2.401862 C53.777069,3.306432 51.358139,22.535812 51.358139,22.535812 L77.815749,23.152402 C73.513219,22.002692 68.817819,19.342022 64.760769,15.446812" id="Fill-87" fill="#AA523D"></path>
                <path d="M29.817796,24.342776 C37.868826,26.886826 75.297216,27.826246 101.419926,26.262926 C101.419926,26.262926 102.066096,24.825576 100.972656,24.610866 C99.879216,24.396496 66.553266,20.922036 66.553266,20.922036 C66.553266,20.922036 31.836546,22.789146 31.061346,22.701256 C30.285466,22.613366 29.817796,24.342776 29.817796,24.342776" id="Fill-89" fill="#C46C51"></path>
                <path d="M86.565428,26.645902 C74.175148,26.072492 64.041448,23.683142 62.612258,21.132632 C53.496858,21.618662 31.674298,22.770582 31.061278,22.701222 C30.285398,22.613332 29.817728,24.342742 29.817728,24.342742 C36.784668,26.544242 65.748248,27.543672 90.349458,26.760142 C89.115258,26.742632 87.851648,26.705402 86.565428,26.645902" id="Fill-91" fill="#AA523D"></path>
                <polygon id="Fill-93" fill="#AA523D" points="64.167928 23.589557 85.319158 22.893747 83.915808 21.063697 62.177738 21.369867"></polygon>
                <polygon id="Fill-95" fill="#EDAB74" points="85.319243 22.893781 51.236453 21.661111 52.288073 16.189321 83.665823 16.479511"></polygon>
                <path d="M63.790256,16.295656 L52.288056,16.189236 L51.236436,21.661196 L71.492956,22.393556 C67.764176,20.853186 64.962066,18.614796 63.790256,16.295656" id="Fill-97" fill="#E08761"></path>
                <path d="M85.334764,86.179103 C85.265744,84.804653 86.958944,84.957653 88.497784,85.327913 C89.962674,85.680323 91.817884,86.597133 92.299494,88.617753 L91.667264,88.707683 C91.371464,87.855303 88.887594,87.800223 88.153024,87.790193 C87.004334,87.773193 85.403274,87.558313 85.334764,86.179103" id="Fill-99" fill="#2A2A2A"></path>
                <path d="M114.292207,47.095219 C113.266937,46.536769 112.164487,46.209179 111.026677,46.091199 C111.119837,46.140159 111.214017,46.186399 111.306157,46.239779 C116.687677,49.339049 117.939897,57.866929 114.102997,65.288279 C112.148677,69.068229 109.250857,71.828689 106.166207,73.221499 C110.274427,72.657269 114.490087,69.637899 117.059297,64.934679 C120.855397,57.984229 119.616607,49.997969 114.292207,47.095219" id="Fill-101" fill="#E3FEFF"></path>
            </g>
        </g>
    </g>
</svg>