<svg xmlns="http://www.w3.org/2000/svg" width="34" height="34" viewBox="0 0 34 34">
    <g fill="#5C5C5C">
        <path d="M17.782 8.586c-.341.124-.517.502-.392.843.123.342.5.517.842.393.342-.124.518-.501.394-.843-.125-.341-.502-.518-.844-.393z"/>
        <path d="M16.882 6.113c-1.704.62-2.586 2.512-1.966 4.216.62 1.704 2.512 2.586 4.216 1.966 1.709-.622 2.589-2.507 1.966-4.216-.62-1.704-2.511-2.586-4.216-1.966zm1.8 4.946c-1.022.372-2.157-.157-2.53-1.18-.371-1.022.158-2.157 1.18-2.53 1.023-.372 2.158.158 2.53 1.18.373 1.025-.155 2.157-1.18 2.53zM12.837 10.386l-2.473.9c-.341.124-.518.502-.393.843.123.34.5.518.843.393l2.473-.9c.341-.124.517-.501.393-.843-.124-.341-.502-.517-.843-.393zM25.201 5.886l-2.473.9c-.341.124-.517.502-.393.843.124.34.5.518.843.393l2.473-.9c.342-.124.518-.501.394-.843-.125-.341-.502-.517-.844-.393zM15.526 30.855h2.632c.363 0 .658-.294.658-.657v-.53l.458.265c.15.087.33.11.499.066.169-.045.312-.156.4-.307l1.315-2.279c.182-.314.074-.717-.24-.898l-.459-.265.458-.264c.315-.182.423-.584.241-.899l-1.316-2.279c-.087-.151-.23-.261-.399-.306-.168-.046-.348-.022-.5.065l-.457.265v-.53c0-.363-.295-.657-.658-.657h-2.632c-.363 0-.658.294-.658.658v.529l-.457-.265c-.152-.087-.331-.11-.5-.065-.168.045-.312.155-.4.306l-1.315 2.279c-.182.315-.074.717.24.899l.459.264-.458.265c-.315.181-.423.584-.24.898l1.315 2.28c.087.15.23.26.4.306.168.045.347.021.499-.066l.457-.264v.529c0 .363.295.657.658.657zm-1.204-2.39l-.657-1.14.875-.505c.203-.118.328-.335.328-.57 0-.235-.125-.452-.328-.57l-.875-.505.657-1.14.875.506c.204.117.455.117.658 0 .204-.118.33-.335.33-.57v-1.01H17.5v1.01c0 .235.125.452.329.57.204.117.454.117.658 0l.875-.505.658 1.14-.875.504c-.204.118-.33.335-.33.57 0 .235.126.452.33.57l.875.505-.658 1.14-.875-.506c-.204-.117-.454-.117-.658 0-.204.118-.329.335-.329.57v1.01h-1.316v-1.01c0-.235-.125-.452-.329-.57-.203-.117-.454-.117-.658 0l-.875.506z"/>
        <circle cx="16.842" cy="33.026" r="1"/>
        <path d="M33.026 9.21h-3.114L26.717.434c-.124-.341-.502-.517-.843-.393-.388.14-18.885 6.874-19.783 7.2-.164.06-.298.183-.371.34-.074.159-.082.34-.022.504l.41 1.127H.658c-.363 0-.658.294-.658.657v23.158c0 .364.295.658.658.658h13.224c.363 0 .658-.294.658-.658 0-.363-.295-.658-.658-.658H1.316V20.132h31.052v12.236H19.803c-.364 0-.658.295-.658.658 0 .364.294.658.658.658h13.223c.364 0 .658-.294.658-.658V9.868c0-.363-.294-.657-.658-.657zM9.424 14.475l-1.387-3.811c1.12-.685 1.73-1.99 1.533-3.289L23.295 2.38c.67 1.092 1.955 1.73 3.288 1.532l1.395 3.835c-1.12.686-1.726 1.989-1.533 3.288l-9.451 3.44h-7.57zm18.302-3.906c-.005-.594.26-1.164.718-1.542l.411 1.13-1.13.412zm-1.61-7.937c-.593.005-1.162-.26-1.54-.718l1.13-.412.41 1.13zM8.29 7.841c.006.588-.257 1.162-.72 1.542l-.41-1.131 1.13-.412zM1.316 18.815v-8.29h5.27l1.438 3.948H6.316c-.363 0-.658.294-.658.658 0 .363.295.658.658.658h21.052c.364 0 .658-.295.658-.658 0-.364-.294-.658-.658-.658h-6.527l9.083-3.306c.263-.096.442-.35.432-.642h2.013v8.29H1.316z"/>
    </g>
</svg>
