<svg xmlns="http://www.w3.org/2000/svg" width="209" height="104" viewBox="0 0 209 104">
    <defs>
        <linearGradient id="prefix__a" x1="3.187%" x2="96.813%" y1="53.187%" y2="53.187%">
            <stop offset="0%" stop-color="#76DAF8"/>
            <stop offset="100%" stop-color="#41B2ED"/>
        </linearGradient>
        <linearGradient id="prefix__b" x1="3.187%" x2="96.813%" y1="53.187%" y2="53.187%">
            <stop offset="0%" stop-color="#7FF3FF"/>
            <stop offset="100%" stop-color="#41B2ED"/>
        </linearGradient>
    </defs>
    <g fill="none" fill-rule="evenodd">
        <path fill="url(#prefix__a)" fill-opacity=".54" d="M0 92c28.39 0 49.39-23.705 65.89-23.705s16.99 11.852 28.7 11.852c11.709 0 17.195-27.647 45.722-27.647 28.528 0 30.883 39.5 65.907 39.5 35.023 0 25.513-92 59.383-92 33.869 0 21.877 68.295 42.783 68.295 20.906 0 15.275-35.305 34.14-35.305v87.051c-69.543-.33-126.268-.33-170.173 0-65.858.495-122.942 4.045-172.352 0V92z" transform="translate(-64) matrix(-1 0 0 1 342.525 0)"/>
        <path fill="url(#prefix__b)" d="M8.307 76.26c15.414 0 13.48-21.042 32.328-21.042 18.848 0 24.338 44.51 41.538 44.51 17.2 0 9.764-26.08 30.234-26.08 20.471 0 13.731 26.08 34.131 26.08S161.624 39 180.888 39c19.263 0 18.25 37.26 34.449 37.26 16.2 0 12.34-24.235 27.34-24.235s17.185 64.154 57.626 64.154c40.44 0-186.9 13.098-291.996 0V76.26z" transform="translate(-64) matrix(-1 0 0 1 313.373 0)"/>
    </g>
</svg>
