<svg xmlns="http://www.w3.org/2000/svg" width="27" height="16" viewBox="0 0 27 16">
    <path fill="#A6A4A4" d="M25.008 9.986V4.61c0-.339-.22-.64-.542-.743L12.743.088c-.155-.05-.323-.05-.479 0L.542 3.869C.219 3.972 0 4.272 0 4.61c0 .34.219.64.542.744L6.41 7.247v2.931l.001.038c.024.76.742 1.48 2.029 2.032 1.176.504 2.62.782 4.064.782 1.445 0 2.888-.278 4.064-.782 1.308-.56 2.03-1.296 2.03-2.07V7.247l4.847-1.563v4.302c-.729.306-1.242 1.028-1.242 1.867V14.5c0 .431.35.78.78.78h2.486c.431 0 .781-.349.781-.78v-2.647c0-.84-.513-1.56-1.242-1.867zm-9.3.925c-.943.359-2.08.557-3.204.557s-2.261-.198-3.204-.557c-.826-.314-1.233-.655-1.327-.797V7.75l4.291 1.383c.078.025.159.037.24.037.08 0 .162-.012.24-.037l4.29-1.383v2.363c-.094.143-.501.483-1.326.797zM12.504 7.57L3.328 4.611l9.176-2.958 9.176 2.958-9.176 2.958zm12.183 6.15h-.922v-1.866c0-.255.207-.462.461-.462.255 0 .461.207.461.462v1.865z"/>
</svg>
