<svg xmlns="http://www.w3.org/2000/svg" width="371" height="349" viewBox="0 0 371 349">
    <g fill="none" fill-rule="evenodd" opacity=".868">
        <path fill="#56C5FF" d="M330.581 276.561H341.581V280.561H330.581z" opacity=".79" transform="rotate(11 336.081 278.56)"/>
        <path fill="#56C5FF" d="M313.897 211.903H326.897V215.903H313.897z" opacity=".77" transform="rotate(56 320.397 213.903)"/>
        <path fill="#56C5FF" d="M360.577 106.512H373.577V110.512H360.577z" opacity=".87" transform="rotate(-102 367.077 108.512)"/>
        <path fill="#56C5FF" d="M355.013 3H366.013V7H355.013z" opacity=".97" transform="rotate(145 360.513 5)"/>
        <path fill="#56C5FF" d="M57.383 137.365H69.38300000000001V141.365H57.383z" opacity=".96" transform="rotate(-152 63.383 139.365)"/>
        <circle cx="268.741" cy="289.964" r="3.5" stroke="#E96161" stroke-width="1.5" opacity=".84" transform="rotate(153 268.74 289.964)"/>
        <circle cx="248.738" cy="153.772" r="4" stroke="#E96161" stroke-width="1.5" opacity=".88" transform="rotate(100 248.738 153.772)"/>
        <circle cx="171.108" cy="337.872" r="4" stroke="#E96161" stroke-width="1.5" opacity=".74" transform="rotate(145 171.108 337.872)"/>
        <circle cx="158.288" cy="109.064" r="3" stroke="#E96161" stroke-width="1.5" opacity=".8" transform="rotate(68 158.288 109.064)"/>
        <circle cx="105.132" cy="22.31" r="4" stroke="#E96161" stroke-width="1.5" opacity=".9" transform="rotate(-96 105.132 22.31)"/>
        <circle cx="76.621" cy="343.022" r="4.5" stroke="#E96161" stroke-width="1.5" opacity=".73" transform="rotate(43 76.621 343.022)"/>
        <path stroke="#FDCD15" stroke-width="2" d="M258.605 262.341L256.605 258.785 258.605 256.046 256.605 252.191 258.605 248.341" opacity=".97" transform="rotate(83 257.605 255.341)"/>
        <path stroke="#FDCD15" stroke-width="2" d="M245.258 42.057L243.258 39.01 245.258 36.661 243.258 33.357 245.258 30.057" opacity=".71" transform="rotate(40 244.258 36.057)"/>
        <path stroke="#FDCD15" stroke-width="2" d="M164.842 254.604L162.842 251.556 164.842 249.208 162.842 245.904 164.842 242.604" opacity=".95" transform="rotate(153 163.842 248.604)"/>
        <path stroke="#FDCD15" stroke-width="2" d="M6 240.676L5 237.883 6 235.73 5 232.701 6 229.676" opacity=".92" transform="rotate(-70 5.5 235.176)"/>
        <path stroke="#FDCD15" stroke-width="2" d="M22.482 67.371L20.482 64.324 22.482 61.976 20.482 58.671 22.482 55.371" opacity=".82" transform="rotate(156 21.482 61.371)"/>
    </g>
</svg>
