<svg xmlns="http://www.w3.org/2000/svg" width="42" height="31" viewBox="0 0 42 31">
    <g fill="#5C5C5C">
        <path d="M41.19 15H36.39c-.447 0-.81.366-.81.818v.691h-5.046c-.106 0-.212.021-.31.062l-6.463 2.701c-.748.313-1.33.902-1.636 1.658-.307.756-.302 1.587.014 2.34l.021.052c.188.446.464.826.799 1.127-.984.27-2.015.29-3.018.06l-6.345-1.468c-.777-.179-1.573-.039-2.244.395-.67.434-1.128 1.107-1.29 1.894-.322 1.56.625 3.089 2.154 3.481l7.57 1.943c.642.164 1.292.246 1.94.246.971 0 1.938-.184 2.86-.55l9.63-3.812h1.364v.43c0 .452.363.818.81.818h4.799c.447 0 .81-.366.81-.818v-11.25c0-.452-.363-.818-.81-.818zm-7.127 10.002c-.102 0-.202.02-.296.056l-9.772 3.87c-1.22.483-2.537.566-3.808.24l-7.571-1.943c-.686-.176-1.111-.862-.967-1.562.073-.353.278-.655.58-.85.214-.14.46-.211.709-.211.098 0 .198.011.297.034l6.345 1.467c1.527.353 3.107.24 4.569-.328l1.841-.715.114-.042 4.151-1.613.087-.034c.418-.162.626-.636.466-1.057-.16-.422-.63-.632-1.047-.47l-.095.036-4.223 1.64c-.716.234-1.49-.122-1.79-.836l-.022-.052c-.145-.348-.147-.732-.006-1.082.142-.35.41-.622.757-.766l6.314-2.639h4.885v6.857h-1.518zm6.317 1.248H37.2v-9.614h3.179v9.614zM7.941 14.5h-1.48V6.835h.226c.603 0 1.205-.146 1.74-.423.026-.013.05-.027.075-.043l5.28-3.466c.73-.36 1.617-.278 2.27.213l.381.286-.068.1c-.1.147-.197.297-.288.45-.564.948-.926 2.014-1.06 3.101-.555.06-1.07.307-1.47.71-.465.467-.72 1.089-.72 1.75 0 1.364 1.103 2.474 2.459 2.474h6.037c.333 0 .647.131.882.367.236.239.367.555.367.89 0 .5-.292.952-.746 1.15-.052.024-.1.041-.144.054l-.012.004c-.11.032-.227.048-.347.048h-6.86c-.45 0-.815.367-.815.82 0 .454.365.82.815.82h6.86c.21 0 .418-.022.62-.067.342.044.69.069 1.034.069C27.401 16.142 31 12.52 31 8.07 31 3.62 27.4 0 22.977 0c-2.038 0-3.99.78-5.466 2.164l-.483-.363c-1.159-.87-2.739-1.004-4.025-.34-.025.013-.05.027-.073.043L7.65 4.97c-.3.147-.631.224-.963.224H6.46v-.297c0-.453-.365-.82-.816-.82H.815c-.45 0-.815.367-.815.82V16.18c0 .453.365.82.815.82h4.83c.45 0 .816-.367.816-.82v-.04h1.48c.45 0 .816-.366.816-.82 0-.453-.366-.82-.816-.82zm6.516-4.987c0-.223.086-.432.243-.59.081-.081.177-.144.282-.185.044.548.143 1.085.296 1.608-.453-.004-.82-.376-.82-.833zM29.37 8.071c0 3.211-2.353 5.88-5.415 6.355.163-.37.249-.777.249-1.182 0-.497-.125-.975-.358-1.4.354-.055.681-.22.94-.48.322-.324.5-.756.5-1.215V8.936c0-.948-.767-1.72-1.709-1.72H22.38c-.043 0-.078-.035-.078-.078V5.993c0-.043.035-.078.078-.078h1.196c.043 0 .078.035.078.078 0 .453.365.82.816.82.45 0 .815-.367.815-.82 0-.874-.652-1.596-1.492-1.704v-.284c0-.453-.365-.82-.815-.82-.45 0-.816.367-.816.82v.284c-.84.108-1.491.83-1.491 1.704v1.145c0 .948.766 1.72 1.709 1.72h1.196c.043 0 .078.035.078.078v1.213c0 .022-.007.04-.023.055-.015.016-.033.023-.055.023H22.38c-.043 0-.078-.035-.078-.078v-.111c0-.453-.365-.82-.816-.82-.45 0-.815.367-.815.82v.111c0 .067.004.132.012.197h-3.686c-.273-.723-.411-1.487-.411-2.275 0-1.202.34-2.405.98-3.422.184-.291.39-.57.617-.83 1.213-1.384 2.96-2.178 4.794-2.178 3.525 0 6.392 2.884 6.392 6.43zM4.829 15.36H1.632V5.718H4.83v9.642z"/>
    </g>
</svg>
