<svg xmlns="http://www.w3.org/2000/svg" width="56" height="56" viewBox="0 0 56 56">
    <g fill="none">
        <path fill="#FBBD00" d="M12.937 28c0-2.768.754-5.361 2.063-7.582V11H5.695C2.002 15.855 0 21.771 0 28c0 6.229 2.002 12.145 5.695 17H15v-9.418c-1.31-2.22-2.063-4.814-2.063-7.582z"/>
        <path fill="#0F9D58" d="M27.395 43.054L21 49.527 27.395 56C33.48 56 39.258 53.997 44 50.301V41h-9.19c-2.187 1.315-4.73 2.054-7.415 2.054z"/>
        <path fill="#31AA52" d="M15.345 36L6 45.254c.734.945 1.534 1.85 2.4 2.706C13.634 53.145 20.595 56 28 56V43.133c-5.373 0-10.083-2.865-12.655-7.133z"/>
        <path fill="#3C79E6" d="M56 27.498c0-1.725-.154-3.453-.459-5.136L55.295 21H28v13.29h13.284c-1.29 2.598-3.274 4.718-5.675 6.162L45.039 50c.963-.751 1.886-1.569 2.76-2.454C53.087 42.191 56 35.071 56 27.498z"/>
        <path fill="#CF2D48" d="M38.378 16.88l1.18 1.12L49 9.039l-1.18-1.12C42.44 2.812 35.286 0 27.677 0L21 6.337l6.677 6.336c4.042 0 7.842 1.494 10.7 4.207z"/>
        <path fill="#EB4132" d="M28 12.867V0C20.596 0 13.635 2.855 8.4 8.04 7.533 8.897 6.733 9.8 6 10.746L15.345 20c2.572-4.268 7.282-7.133 12.655-7.133z"/>
    </g>
</svg>
