<svg xmlns="http://www.w3.org/2000/svg" xmlns:xlink="http://www.w3.org/1999/xlink" width="119" height="129" viewBox="0 0 119 129">
    <defs>
        <path id="prefix__a" d="M0 0.166L118.105 0.166 118.105 5.61 0 5.61z"/>
        <path id="prefix__c" d="M12.243.039c-1.67 0-3.188.967-3.894 2.48L.513 19.31c-1.33 2.849.75 6.115 3.895 6.115h71.495c3.381 0 5.438-3.725 3.638-6.587L68.979 2.047C68.192.798 66.818.04 65.34.04H12.243z"/>
        <path id="prefix__f" d="M5.86 1.005c-.645.397-1.208.906-1.687 1.459-.952 1.12-1.55 2.399-1.981 3.663-.426 1.27-.689 2.549-.874 3.819-.183 1.27-.287 2.535-.344 3.792-.113 2.515-.051 5.004.07 7.475.124 2.472.317 4.927.525 7.37l.639 7.3c.2 2.423.378 4.837.453 7.224.037 1.193.048 2.379.009 3.544-.04 1.163-.13 2.31-.316 3.382-.091.535-.213 1.047-.363 1.513-.151.465-.338.88-.542 1.188-.207.308-.41.491-.6.592-.192.098-.422.15-.761.148v4.08c.444-.006.91-.056 1.38-.172.47-.115.944-.3 1.377-.552.434-.252.823-.565 1.15-.903.328-.338.598-.7.824-1.063.447-.727.727-1.454.937-2.155.206-.703.345-1.388.443-2.06.197-1.343.259-2.64.271-3.92.01-1.278-.034-2.537-.104-3.785-.143-2.497-.388-4.953-.652-7.397l-.824-7.29c-.269-2.42-.52-4.834-.701-7.24-.18-2.406-.299-4.809-.251-7.18.023-1.185.09-2.361.228-3.514.137-1.15.344-2.28.669-3.338.327-1.052.778-2.03 1.396-2.794.619-.763 1.4-1.284 2.336-1.54L7.924.138c-.715.18-1.426.462-2.064.867"/>
        <path id="prefix__i" d="M5.857 1.005c-.644.397-1.207.906-1.687 1.46-.951 1.12-1.55 2.398-1.98 3.662-.426 1.27-.689 2.55-.874 3.819-.184 1.27-.287 2.535-.344 3.792-.114 2.515-.052 5.003.07 7.475.124 2.472.316 4.927.525 7.37l.638 7.3c.2 2.423.378 4.837.454 7.224.036 1.193.047 2.379.008 3.544-.04 1.163-.13 2.31-.315 3.382-.092.535-.214 1.047-.364 1.513-.15.465-.338.88-.542 1.188-.206.308-.41.491-.6.592-.191.098-.422.15-.76.148v4.08c.443-.007.909-.056 1.38-.172.47-.115.943-.3 1.377-.552.433-.252.822-.565 1.15-.903.328-.339.598-.7.824-1.063.446-.728.726-1.454.936-2.155.207-.703.345-1.388.444-2.06.197-1.343.258-2.64.27-3.92.011-1.278-.034-2.537-.103-3.785-.144-2.497-.388-4.953-.653-7.396l-.824-7.29c-.268-2.421-.519-4.835-.7-7.242-.18-2.405-.3-4.808-.252-7.179.023-1.185.09-2.361.228-3.514.137-1.15.345-2.28.67-3.338.327-1.052.778-2.031 1.395-2.795.62-.762 1.4-1.283 2.336-1.539L7.92.139c-.714.18-1.426.46-2.064.866"/>
        <radialGradient id="prefix__d" cx="111.367%" cy="51.07%" r="193.646%" fx="111.367%" fy="51.07%" gradientTransform="matrix(.3169 0 0 1 .76 0)">
            <stop offset="0%" stop-color="#EFCD2D"/>
            <stop offset="100%" stop-color="#FBAF3F"/>
        </radialGradient>
        <radialGradient id="prefix__g" cx="51.087%" cy="49.373%" r="244.873%" fx="51.087%" fy="49.373%" gradientTransform="matrix(1 0 0 .14767 0 .42)">
            <stop offset="0%" stop-color="#EFCD2D"/>
            <stop offset="100%" stop-color="#EFCD2D"/>
        </radialGradient>
        <radialGradient id="prefix__j" cx="51.087%" cy="49.373%" r="244.878%" fx="51.087%" fy="49.373%" gradientTransform="matrix(1 0 0 .14767 0 .42)">
            <stop offset="0%" stop-color="#EFCD2D"/>
            <stop offset="100%" stop-color="#EFCD2D"/>
        </radialGradient>
    </defs>
    <g fill="none" fill-rule="evenodd">
        <g transform="translate(0 1) translate(0 122.103)">
            <mask id="prefix__b" fill="#fff">
                <use xlink:href="#prefix__a"/>
            </mask>
            <path fill="#CCC" d="M118.105 2.888c0 1.503-26.439 2.722-59.053 2.722C26.44 5.61 0 4.391 0 2.888S26.44.166 59.052.166c32.614 0 59.053 1.219 59.053 2.722" mask="url(#prefix__b)"/>
        </g>
        <g transform="translate(0 1) translate(30.43 98.472)">
            <mask id="prefix__e" fill="#fff">
                <use xlink:href="#prefix__c"/>
            </mask>
            <path fill="url(#prefix__d)" d="M12.243.039c-1.67 0-3.188.967-3.894 2.48L.513 19.31c-1.33 2.849.75 6.115 3.895 6.115h71.495c3.381 0 5.438-3.725 3.638-6.587L68.979 2.047C68.192.798 66.818.04 65.34.04H12.243z" mask="url(#prefix__e)"/>
        </g>
        <g>
            <path fill="#FFF6EB" d="M25.805 12.975h-4.7c-1.214 0-2.199-.985-2.199-2.2V2.288c0-1.215.985-2.2 2.2-2.2h4.7c1.214 0 2.199.985 2.199 2.2v8.489c0 1.214-.985 2.2-2.2 2.2M36.39 12.975h-4.7c-1.214 0-2.199-.985-2.199-2.2V2.288c0-1.215.985-2.2 2.2-2.2h4.7c1.214 0 2.199.985 2.199 2.2v8.489c0 1.214-.985 2.2-2.2 2.2M46.745 12.975h-4.7c-1.214 0-2.199-.985-2.199-2.2V2.288c0-1.215.985-2.2 2.2-2.2h4.7c1.214 0 2.199.985 2.199 2.2v8.489c0 1.214-.985 2.2-2.2 2.2" transform="translate(0 1) translate(49.47 106.632)"/>
            <path fill="#68EA3D" d="M46.745 12.975h-4.7c-1.214 0-2.199-.985-2.199-2.2 0-1.214.985-2.199 2.2-2.199h4.7c1.214 0 2.199.985 2.199 2.2 0 1.214-.985 2.2-2.2 2.2M36.39 12.975h-4.7c-1.214 0-2.199-.985-2.199-2.2V5.575c0-1.215.985-2.2 2.2-2.2h4.7c1.214 0 2.199.985 2.199 2.2v5.202c0 1.214-.985 2.2-2.2 2.2M25.805 12.975h-4.7c-1.214 0-2.199-.985-2.199-2.2V2.288c0-1.215.985-2.2 2.2-2.2h4.7c1.214 0 2.199.985 2.199 2.2v8.489c0 1.214-.985 2.2-2.2 2.2" transform="translate(0 1) translate(49.47 106.632)"/>
            <path fill="#2A2A2A" d="M3.761 9.824c-1.207.39-.246 2.288.825 3.933 1.02 1.566 2.714 3.389 4.675 3.254l-.232-.758c-.874-.05-2.139-2.891-2.51-3.734-.577-1.316-1.545-3.087-2.758-2.695" transform="translate(0 1) translate(49.47 106.632)"/>
            <path fill="#2A2A2A" d="M.512 11.151c-1.037.73.444 2.257 1.955 3.51 1.438 1.194 3.597 2.432 5.43 1.721l-.447-.655c-.85.21-2.9-2.127-3.504-2.821-.942-1.086-2.392-2.489-3.434-1.755" transform="translate(0 1) translate(49.47 106.632)"/>
        </g>
        <g transform="translate(0 1) translate(59.67 66.683)">
            <mask id="prefix__h" fill="#fff">
                <use xlink:href="#prefix__f"/>
            </mask>
            <path fill="url(#prefix__g)" d="M5.86 1.005c-.645.397-1.208.906-1.687 1.459-.952 1.12-1.55 2.399-1.981 3.663-.426 1.27-.689 2.549-.874 3.819-.183 1.27-.287 2.535-.344 3.792-.113 2.515-.051 5.004.07 7.475.124 2.472.317 4.927.525 7.37l.639 7.3c.2 2.423.378 4.837.453 7.224.037 1.193.048 2.379.009 3.544-.04 1.163-.13 2.31-.316 3.382-.091.535-.213 1.047-.363 1.513-.151.465-.338.88-.542 1.188-.207.308-.41.491-.6.592-.192.098-.422.15-.761.148v4.08c.444-.006.91-.056 1.38-.172.47-.115.944-.3 1.377-.552.434-.252.823-.565 1.15-.903.328-.338.598-.7.824-1.063.447-.727.727-1.454.937-2.155.206-.703.345-1.388.443-2.06.197-1.343.259-2.64.271-3.92.01-1.278-.034-2.537-.104-3.785-.143-2.497-.388-4.953-.652-7.397l-.824-7.29c-.269-2.42-.52-4.834-.701-7.24-.18-2.406-.299-4.809-.251-7.18.023-1.185.09-2.361.228-3.514.137-1.15.344-2.28.669-3.338.327-1.052.778-2.03 1.396-2.794.619-.763 1.4-1.284 2.336-1.54L7.924.138c-.715.18-1.426.462-2.064.867" mask="url(#prefix__h)"/>
        </g>
        <g>
            <path fill="#2A2A2A" d="M54.722 124.128h-3.808l-.601-2.253c-.255-.955.465-1.892 1.453-1.892h1.974l.982 4.145z" transform="translate(0 1) translate(5.44 .043)"/>
            <path fill="#2A2A2A" d="M43.698 122.031c-.66 1.084 1.307 1.893 3.192 2.44 1.795.521 4.268.796 5.666-.587l-.672-.422c-.694.532-3.507-.794-4.337-1.19-1.297-.62-3.187-1.33-3.85-.24" transform="translate(0 1) translate(5.44 .043)"/>
            <path fill="#F4E9DC" d="M42.145 117.166s-15.434-6.303-19.608-10.587c-4.175-8.404-13.622-55.86-12.084-75.413 0 0 10.095-8.973 30.883-9.438 19.212-.43 25.142 6.142 25.142 6.142s3.516 55.201-4.834 78.71c-8.349 6.316-19.5 10.586-19.5 10.586" transform="translate(0 1) translate(5.44 .043)"/>
            <path fill="#EDD9C3" d="M29.555 99.998c-3.998-8.047-17.961-71.185-8.819-74.482-6.995 2.71-10.283 5.65-10.283 5.65-1.538 19.553 7.91 67.01 12.084 75.413 4.174 4.284 19.608 10.587 19.608 10.587s11.15-4.27 19.499-10.587c.34-.958 1.166-3.85 1.467-4.907-10.804 3.275-28.951 2.721-33.556-1.674" transform="translate(0 1) translate(5.44 .043)"/>
            <path fill="#E5C9AE" d="M20.736 25.516c-.733.284-1.417.57-2.07.857-6.27 9.28 6.092 66.637 9.9 74.398 4.456 4.306 23.324 4.641 34.33 1.654l.215-.753c-10.804 3.275-28.292 1.898-32.897-2.498-3.997-8.047-18.62-70.36-9.478-73.658" transform="translate(0 1) translate(5.44 .043)"/>
            <path fill="#C6A98D" d="M45.514 116.998c-1.08-.263-4.742-5.255-4.742-5.255l2.334-3.104c2.06-3.048 5.526-2.257 6.619.412.713 1.74-2.391 8.39-4.211 7.947" transform="translate(0 1) translate(5.44 .043)"/>
            <path fill="#AF8461" d="M44.488 111.2c1.702-1.292 3.544-2.027 5.21-2.204-1.119-2.623-4.547-3.384-6.592-.357l-2.334 3.104s.591.804 1.365 1.781c.646-.836 1.434-1.628 2.35-2.324" transform="translate(0 1) translate(5.44 .043)"/>
            <path fill="#EDD9C3" d="M46.981 116.76c1.151-1.612 2.633-8.121 2.633-8.121l12.03-2.06s-12.456 10.53-14.663 10.182" transform="translate(0 1) translate(5.44 .043)"/>
            <path fill="#594547" d="M48.39 116.878c0-4.293-2.403-6.976-5.366-6.976-2.964 0-5.366 2.683-5.366 6.976s2.402 6.976 5.366 6.976c2.963 0 5.366-2.683 5.366-6.976" transform="translate(0 1) translate(5.44 .043)"/>
            <path fill="#443235" d="M45.826 119.36c-2.025 0-3.666-1.624-3.666-3.626s1.641-3.625 3.666-3.625c.502 0 .98.1 1.416.28-.982-1.585-2.505-2.487-4.218-2.487-2.963 0-5.366 2.683-5.366 6.976s2.403 6.976 5.366 6.976c2.59 0 4.75-2.049 5.255-5.43-.65.58-1.508.935-2.453.935" transform="translate(0 1) translate(5.44 .043)"/>
            <path fill="#D6C2B4" d="M42.654 116.52c0-2.647-.97-4.302-2.165-4.302s-2.164 1.655-2.164 4.303c0 2.647.97 4.301 2.164 4.301 1.195 0 2.165-1.654 2.165-4.301" transform="translate(0 1) translate(5.44 .043)"/>
            <path fill="#594547" d="M41.074 116.603c0-1.017-.372-1.653-.831-1.653-.46 0-.832.636-.832 1.653s.373 1.653.832 1.653c.459 0 .831-.636.831-1.653" transform="translate(0 1) translate(5.44 .043)"/>
            <path fill="#7A646F" d="M26.264 64.56c2.676 2.307 29.843 2.163 33.442-.659 2.103-1.647 4.778-29.33 1.91-34.933-1.518-2.97-36.285-3.94-41.085 1.154-2.484 2.636 1.893 31.127 5.733 34.439" transform="translate(0 1) translate(5.44 .043)"/>
            <path fill="#42323A" d="M27.343 63.455c2.53 2.18 28.211 2.044 31.614-.624 1.987-1.557 4.516-27.726 1.806-33.022-1.436-2.807-34.302-3.724-38.839 1.09-2.348 2.493 1.789 29.425 5.42 32.556" transform="translate(0 1) translate(5.44 .043)"/>
            <path fill="#3A2C32" d="M60.507 29.53L36.575 64.882c8.56.345 20.171-.319 22.382-2.052 1.987-1.557 4.516-27.726 1.806-33.022-.048-.096-.137-.189-.256-.28M51.688 27.821c-10.493-.818-26.678-.195-29.764 3.079-1.877 1.991.39 19.584 3.228 28.17l26.536-31.249z" transform="translate(0 1) translate(5.44 .043)"/>
            <path fill="#D3BCA9" d="M19.642 73.218c-.7-4.831-2.188-7.94-3.362-7.775-1.175.167-1.588 3.545-.89 8.376.7 4.832 2.218 8.613 3.392 8.447 1.173-.166 1.559-4.217.86-9.048" transform="translate(0 1) translate(5.44 .043)"/>
            <path fill="#C6A98D" d="M16.564 71.464c1.081-.154 2.226.705 3.153 2.32-.024-.188-.047-.375-.075-.566-.7-4.831-2.188-7.94-3.362-7.775-1.052.15-1.49 2.878-1.07 6.914.373-.503.827-.818 1.354-.893" transform="translate(0 1) translate(5.44 .043)"/>
            <path fill="#3F3137" d="M19.359 73.22c-.542-3.747-1.482-6.188-2.145-6.096-.663.093-.798 2.685-.256 6.432.543 3.746 1.52 6.708 2.182 6.615.663-.093.76-3.205.219-6.952" transform="translate(0 1) translate(5.44 .043)"/>
            <path fill="#EDD9C3" d="M40.058 117.043c1.22.201 3.048-8.404 3.048-8.404s-17.986-9.412-20.457-1.947c2.332 2.77 12.671 9.568 17.409 10.35" transform="translate(0 1) translate(5.44 .043)"/>
            <path fill="#B8FAFF" d="M36.495 46.344c0 1.104-.895 1.999-1.999 1.999s-2-.895-2-2c0-1.104.896-1.999 2-1.999s2 .895 2 2" transform="translate(0 1) translate(5.44 .043)"/>
            <path fill="#B8FAFF" d="M36.15 46.344c0 .913-.74 1.654-1.654 1.654-.914 0-1.655-.74-1.655-1.654 0-.914.741-1.655 1.655-1.655s1.655.74 1.655 1.655M42.544 46.344c0 1.104-.895 1.999-2 1.999-1.103 0-1.998-.895-1.998-2 0-1.104.895-1.999 1.999-1.999s2 .895 2 2" transform="translate(0 1) translate(5.44 .043)"/>
            <path fill="#B8FAFF" d="M42.2 46.344c0 .913-.741 1.654-1.655 1.654s-1.655-.74-1.655-1.654c0-.914.741-1.655 1.655-1.655s1.654.74 1.654 1.655M48.199 46.344c0 1.104-.895 1.999-2 1.999-1.104 0-1.999-.895-1.999-2 0-1.104.895-1.999 2-1.999 1.104 0 1.999.895 1.999 2" transform="translate(0 1) translate(5.44 .043)"/>
            <path fill="#B8FAFF" d="M47.854 46.344c0 .913-.74 1.654-1.654 1.654-.914 0-1.655-.74-1.655-1.654 0-.914.74-1.655 1.655-1.655.913 0 1.654.74 1.654 1.655M53.71 46.344c0 1.104-.895 1.999-1.999 1.999s-2-.895-2-2c0-1.104.896-1.999 2-1.999s2 .895 2 2" transform="translate(0 1) translate(5.44 .043)"/>
            <path fill="#B8FAFF" d="M53.366 46.344c0 .913-.741 1.654-1.655 1.654s-1.655-.74-1.655-1.654c0-.914.741-1.655 1.655-1.655s1.655.74 1.655 1.655" transform="translate(0 1) translate(5.44 .043)"/>
            <path fill="#414042" d="M43.567 18.842h-4.043c-.35 0-.634.284-.634.633v1.599c0 .35.284.633.634.633h4.043c.35 0 .633-.283.633-.633v-1.599c0-.35-.283-.633-.633-.633" transform="translate(0 1) translate(5.44 .043)"/>
            <path stroke="#414042" stroke-width="1.87" d="M41.545 20.275c.485-15.17 31.197-32.532 43.789-7.88 12.591 24.65-9.515 52.778-13.2 82.26" transform="translate(0 1) translate(5.44 .043)"/>
            <path fill="#414042" d="M74.529 98.469h-4.79c-.503 0-.91-.408-.91-.91v-2.351c0-.503.407-.91.91-.91h4.79c.502 0 .91.407.91.91v2.35c0 .503-.408.91-.91.91" transform="translate(0 1) translate(5.44 .043)"/>
            <path fill="#2A2A2A" d="M3.759 117.434c-1.208.39-.246 2.288.825 3.933 1.02 1.566 2.714 3.389 4.675 3.254l-.233-.758c-.873-.05-2.138-2.891-2.509-3.734-.577-1.316-1.546-3.087-2.758-2.695" transform="translate(0 1) translate(5.44 .043)"/>
            <path fill="#2A2A2A" d="M.51 118.761c-1.037.73.444 2.257 1.955 3.51 1.438 1.194 3.597 2.432 5.43 1.721l-.448-.655c-.849.21-2.9-2.127-3.503-2.821-.942-1.086-2.393-2.489-3.434-1.755" transform="translate(0 1) translate(5.44 .043)"/>
        </g>
        <g transform="translate(0 1) translate(15.64 67.703)">
            <mask id="prefix__k" fill="#fff">
                <use xlink:href="#prefix__i"/>
            </mask>
            <path fill="url(#prefix__j)" d="M5.857 1.005c-.644.397-1.207.906-1.687 1.46-.951 1.12-1.55 2.398-1.98 3.662-.426 1.27-.689 2.55-.874 3.819-.184 1.27-.287 2.535-.344 3.792-.114 2.515-.052 5.003.07 7.475.124 2.472.316 4.927.525 7.37l.638 7.3c.2 2.423.378 4.837.454 7.224.036 1.193.047 2.379.008 3.544-.04 1.163-.13 2.31-.315 3.382-.092.535-.214 1.047-.364 1.513-.15.465-.338.88-.542 1.188-.206.308-.41.491-.6.592-.191.098-.422.15-.76.148v4.08c.443-.007.909-.056 1.38-.172.47-.115.943-.3 1.377-.552.433-.252.822-.565 1.15-.903.328-.339.598-.7.824-1.063.446-.728.726-1.454.936-2.155.207-.703.345-1.388.444-2.06.197-1.343.258-2.64.27-3.92.011-1.278-.034-2.537-.103-3.785-.144-2.497-.388-4.953-.653-7.396l-.824-7.29c-.268-2.421-.519-4.835-.7-7.242-.18-2.405-.3-4.808-.252-7.179.023-1.185.09-2.361.228-3.514.137-1.15.345-2.28.67-3.338.327-1.052.778-2.031 1.395-2.795.62-.762 1.4-1.283 2.336-1.539L7.92.139c-.714.18-1.426.46-2.064.866" mask="url(#prefix__k)"/>
        </g>
        <g fill="#2A2A2A">
            <path d="M11.2 4.278H7.39l-.6-2.253C6.534 1.07 7.254.133 8.242.133h1.974l.983 4.145z" transform="translate(0 1) translate(4.93 120.912)"/>
            <path d="M.175 2.181c-.66 1.084 1.307 1.893 3.193 2.44 1.794.521 4.268.796 5.665-.587l-.671-.422c-.695.532-3.507-.794-4.338-1.19-1.297-.62-3.186-1.33-3.849-.24" transform="translate(0 1) translate(4.93 120.912)"/>
        </g>
    </g>
</svg>
