<svg xmlns="http://www.w3.org/2000/svg" width="23" height="22" viewBox="0 0 23 22">
    <g fill="#FFF">
        <path d="M21.684 11.466H7.553c-.404 0-.731-.327-.731-.73 0-.404.327-.732.73-.732h14.132c.403 0 .73.328.73.731 0 .404-.327.731-.73.731z" transform="matrix(-1 0 0 1 23 0)"/>
        <path d="M11.451 15.364c-.187 0-.374-.07-.516-.214l-3.899-3.898c-.285-.286-.285-.749 0-1.034l3.899-3.898c.285-.286.748-.286 1.034 0 .285.285.285.748 0 1.034l-3.382 3.381 3.382 3.382c.285.286.285.749 0 1.034-.144.142-.33.213-.518.213z" transform="matrix(-1 0 0 1 23 0)"/>
        <path d="M10.72 21.456C4.81 21.456 0 16.646 0 10.736 0 4.824 4.81.015 10.72.015c4.435 0 8.351 2.667 9.978 6.798.148.375-.037.799-.412.948-.376.146-.8-.036-.949-.413-1.404-3.567-4.787-5.872-8.617-5.872-5.105 0-9.258 4.154-9.258 9.258 0 5.105 4.153 9.259 9.258 9.259 3.83 0 7.213-2.305 8.617-5.871.148-.377.572-.56.949-.413.375.148.56.573.412.948-1.627 4.13-5.543 6.798-9.978 6.798z" transform="matrix(-1 0 0 1 23 0)"/>
    </g>
</svg>
