<svg xmlns="http://www.w3.org/2000/svg" width="34" height="42" viewBox="0 0 34 42">
    <path fill="#FFF" d="M15.923 3.413V.881c0-.486.393-.881.877-.881s.876.395.876.881v2.532c0 .487-.392.881-.876.881s-.877-.394-.877-.88zM33.6 11.175v17.514c0 1.962-1.588 3.56-3.54 3.56H17.675v4.11h2.965c.484 0 .876.395.876.881 0 .487-.392.882-.876.882H12.96c-.485 0-.877-.395-.877-.882 0-.486.392-.88.877-.88h2.964v-4.112H3.54C1.588 32.248 0 30.651 0 28.688V11.176c0-1.963 1.588-3.56 3.54-3.56h26.52c1.952 0 3.54 1.597 3.54 3.56zm-1.753 0c0-.991-.802-1.797-1.788-1.797H3.541c-.986 0-1.788.806-1.788 1.797v4.195h6.25c.484 0 .876.394.876.881s-.392.881-.876.881h-6.25v5.599h6.25c.484 0 .876.394.876.881s-.392.881-.876.881h-6.25v4.196c0 .99.802 1.797 1.788 1.797h26.518c.986 0 1.788-.806 1.788-1.797v-4.196H25.05c-.484 0-.876-.394-.876-.88 0-.488.392-.882.876-.882h6.797v-5.599H25.05c-.484 0-.876-.394-.876-.88 0-.488.392-.882.876-.882h6.797v-4.195zm-7.595-5.968c.12.056.246.083.37.083.33 0 .646-.189.795-.51l1.174-2.532c.205-.44.015-.965-.424-1.17-.438-.206-.96-.016-1.165.426l-1.174 2.532c-.205.44-.015.965.424 1.17zM8.182 4.78c.15.32.466.509.796.509.124 0 .25-.027.37-.083.438-.206.628-.73.424-1.171L8.597 1.504c-.204-.442-.726-.632-1.164-.427-.44.206-.629.73-.424 1.171l1.174 2.533zm17.09 35.456H8.327c-.484 0-.876.395-.876.882 0 .486.392.881.876.881h16.943c.485 0 .877-.395.877-.881 0-.487-.392-.882-.877-.882zM22.2 19.932c0 .312-.164.6-.432.759l-8.056 4.773c-.468.224-.745.083-.88.006-.273-.157-.441-.45-.441-.766V15.16c0-.316.168-.608.441-.765.273-.157.61-.155.88.006l8.056 4.773c.268.158.432.447.432.759zm-2.603 0l-5.453-3.23v6.46l5.453-3.23z"/>
</svg>
