<svg xmlns="http://www.w3.org/2000/svg" width="36" height="35" viewBox="0 0 36 35">
    <g fill="#FFF">
        <path d="M34.2 0H1.8C.806.001.001.806 0 1.8V33c.001.994.806 1.799 1.8 1.8h32.4c.994-.001 1.799-.806 1.8-1.8V1.8C35.999.806 35.194.001 34.2 0zM1.8 1.2h32.4c.331 0 .6.269.6.6v3H1.2v-3c0-.331.269-.6.6-.6zm32.4 32.4H1.8c-.331 0-.6-.269-.6-.6V6h33.6v27c0 .331-.269.6-.6.6z"/>
        <path d="M15 9.6h6c.331 0 .6-.269.6-.6 0-.331-.269-.6-.6-.6h-6c-.331 0-.6.269-.6.6 0 .331.269.6.6.6zM25.2 10.8H10.8c-.331 0-.6.269-.6.6v2.4c0 .331.269.6.6.6h14.4c.331 0 .6-.269.6-.6v-2.4c0-.331-.269-.6-.6-.6zm-.6 2.4H11.4V12h13.2v1.2zM25.2 15.6H10.8c-.331 0-.6.269-.6.6v2.4c0 .331.269.6.6.6h14.4c.331 0 .6-.269.6-.6v-2.4c0-.331-.269-.6-.6-.6zm-.6 2.4H11.4v-1.2h13.2V18zM25.2 20.4H10.8c-.331 0-.6.269-.6.6v4.8c0 .331.269.6.6.6h14.4c.331 0 .6-.269.6-.6V21c0-.331-.269-.6-.6-.6zm-.6 4.8H11.4v-3.6h13.2v3.6zM19.2 27.6h-2.4c-.994 0-1.8.806-1.8 1.8s.806 1.8 1.8 1.8h2.4c.994 0 1.8-.806 1.8-1.8s-.806-1.8-1.8-1.8zm0 2.4h-2.4c-.331 0-.6-.269-.6-.6 0-.331.269-.6.6-.6h2.4c.331 0 .6.269.6.6 0 .331-.269.6-.6.6z"/>
    </g>
</svg>
