<svg xmlns="http://www.w3.org/2000/svg" width="55" height="79" viewBox="0 0 55 79">
    <g fill="none" fill-rule="evenodd">
        <path fill="#D8D8D8" d="M21 73h13c0 3.314-2.686 6-6 6h-1c-3.314 0-6-2.686-6-6z"/>
        <circle cx="27.5" cy="27.5" r="27.5" fill="#FFE26C"/>
        <path fill="#FFE26C" d="M16 43H40V55H16z"/>
        <path fill="#D8D8D8" d="M16 57h24v12c0 1.657-1.343 3-3 3H19c-1.657 0-3-1.343-3-3V57z"/>
        <g fill="#FFF" fill-rule="nonzero">
            <path d="M4.615.026c2.55 0 4.616 2.056 4.616 4.591 0 2.536-2.067 4.591-4.616 4.591C2.066 9.208 0 7.153 0 4.618 0 2.081 2.066.025 4.615.025zm0 1.837c-1.529 0-2.769 1.233-2.769 2.754 0 1.522 1.24 2.755 2.77 2.755 1.529 0 2.769-1.233 2.769-2.755 0-1.521-1.24-2.754-2.77-2.754zM19.385.026C21.934.026 24 2.082 24 4.617c0 2.536-2.066 4.591-4.615 4.591-2.55 0-4.616-2.055-4.616-4.59 0-2.536 2.067-4.592 4.616-4.592zm0 1.837c-1.53 0-2.77 1.233-2.77 2.754 0 1.522 1.24 2.755 2.77 2.755 1.529 0 2.769-1.233 2.769-2.755 0-1.521-1.24-2.754-2.77-2.754z" transform="translate(16 21)"/>
            <path d="M16.615 4.617L14.769 4.617 14.769 34 16.615 34zM9.231 4.617L7.385 4.617 7.385 34 9.231 34z" transform="translate(16 21)"/>
            <path d="M3.692 7.372L3.692 9.208 18.462 9.208 18.462 7.372z" transform="translate(16 21)"/>
        </g>
        <path fill="#979797" fill-rule="nonzero" d="M21.938 64h13.125c.517 0 .937-.224.937-.5s-.42-.5-.938-.5H21.938c-.518 0-.938.224-.938.5s.42.5.938.5z"/>
    </g>
</svg>
