<?xml version="1.0" encoding="UTF-8"?>
<svg width="172px" height="175px" viewBox="0 0 172 175" version="1.1" xmlns="http://www.w3.org/2000/svg" xmlns:xlink="http://www.w3.org/1999/xlink">
    <!-- Generator: Sketch 59 (86127) - https://sketch.com -->
    <title>logo_white</title>
    <desc>Created with Sketch.</desc>
    <defs>
        <polygon id="path-1" points="0.0548978111 0.0291357796 18.977469 0.0291357796 18.977469 10.9601266 0.0548978111 10.9601266"></polygon>
    </defs>
    <g id="Register" stroke="none" stroke-width="1" fill="none" fill-rule="evenodd">
        <g id="logo_white">
            <rect id="Rectangle" fill="#FFFFFF" x="0" y="0" width="172" height="175" rx="10"></rect>
            <g id="Group-20" transform="translate(15.000000, 27.000000)">
                <path d="M85.7423713,103.816394 C86.9950469,103.746586 88.1945653,104.171604 89.4418619,104.19352 C89.9217008,104.201962 90.4164112,104.310571 90.7737987,104.755719 C90.9978185,105.034789 92.5023581,105.039659 92.8312685,104.758966 C93.0655717,104.558958 93.3008241,104.551327 93.5621805,104.551165 C95.1635423,104.550353 96.7652204,104.568211 98.3661076,104.544509 C99.868907,104.522592 101.304152,104.181831 102.650802,103.475309 C103.793841,102.875608 104.638503,101.985799 105.228296,100.816757 C105.824732,99.6348895 106.446482,98.4591913 106.804977,97.178781 C107.360755,95.1926596 108.211429,93.2812167 108.48117,91.2299952 C108.605362,90.2874236 108.753443,89.3386829 108.926362,88.4142939 C109.253532,86.6640589 109.022077,84.8591138 109.512674,83.135828 C109.566148,82.9476709 109.549061,82.7353244 109.549061,82.534342 C109.550802,78.2352999 109.613293,73.9347967 109.513623,69.6380275 C109.481982,68.2728734 109.176011,66.9085311 109.208918,65.5191877 C109.219518,65.064948 109.293242,64.8746804 109.743813,64.981016 C110.101042,65.0654351 110.20799,64.8795507 110.211312,64.5546996 C110.213527,64.3418661 110.292313,64.1402343 110.474567,64.0428277 C110.648593,63.949642 110.823569,63.895906 110.897452,64.2251405 C111.131122,65.2673915 111.048064,66.3552613 111.23095,67.3767323 C111.74512,70.2460073 111.225413,73.1480758 111.604949,75.9795245 C111.806345,77.4812102 112.062639,79.0166635 111.791474,80.4227284 C111.376499,82.5763892 111.682154,84.700341 111.532649,86.8288384 C111.516512,87.0577441 111.362261,87.4038623 111.837196,87.3967192 C112.246475,87.3907124 112.200595,87.1074214 112.202335,86.8405272 C112.204866,86.4804474 112.197905,86.1198804 112.210878,85.7602876 C112.216732,85.5937222 112.180344,85.3844603 112.446289,85.3627062 C112.670941,85.3443612 112.906827,85.3115677 112.856359,84.9837943 C112.814118,84.7104064 113.015356,84.3853929 112.583295,84.1993462 C112.17987,84.0256377 112.240937,83.6454271 112.546592,83.424314 C112.772352,83.2609955 112.892588,83.1200806 112.86158,82.8437704 C112.719669,81.5823544 113.418782,80.5555261 113.764145,79.429343 C113.841508,79.1772221 113.977882,79.0267289 114.230062,79.0544898 C114.546949,79.0893938 114.502809,79.3658663 114.490786,79.5772387 C114.436838,80.5263041 114.662123,81.4969613 114.205066,82.4187528 C114.079292,82.6724971 114.164881,83.0390707 114.162034,83.3538565 C114.154914,84.1579484 114.224841,84.9716185 113.847995,85.7250589 C113.517819,86.3845018 113.636315,87.1439489 113.598345,87.8168665 C113.53617,88.9198343 113.247919,89.9723131 113.115342,91.0504422 C112.99653,92.0180149 112.914262,93.0144848 112.589149,93.9805963 C112.331115,94.747836 112.378893,95.6331 112.228597,96.4669008 C112.070075,97.3464828 111.743696,98.1580425 111.539452,99.0126234 C111.318912,99.9352266 110.86581,100.769515 110.453367,101.618089 C110.242953,102.051224 109.978907,102.428025 109.627057,102.726252 C109.399715,102.919117 109.163988,103.130651 109.093744,103.391052 C108.678453,104.929103 107.405053,105.766638 106.375922,106.734048 C105.240477,107.801138 103.905851,108.729748 102.380586,109.13918 C101.195307,109.457537 100.09087,109.969247 98.9351748,110.345886 C98.4461599,110.505146 97.8940207,110.601578 97.4146563,110.582259 C95.4671397,110.503522 93.5775265,111.134393 91.6254219,110.973672 C89.9397363,110.834705 88.2605372,110.620897 86.5650428,110.543459 C85.8211579,110.509367 84.9861463,110.434364 84.2259662,110.241823 C83.0479639,109.943759 81.8544573,109.779953 80.6694939,109.556568 C80.1039073,109.45007 79.4664951,109.363865 78.9029651,109.052488 C78.3786702,108.762866 77.6920559,108.733644 77.1473524,108.704422 C76.08753,108.647926 75.0338776,108.458308 74.0571134,108.196609 C72.611901,107.809742 71.1375787,108.175991 69.7282791,107.740908 C69.5450765,107.684412 69.3371938,107.702594 69.1407018,107.702594 C65.3238224,107.701296 61.5020385,107.587005 57.6922784,107.755356 C56.0010556,107.830035 54.2587322,107.708601 52.6244636,108.058129 C51.3630867,108.328107 50.1132588,108.172582 48.9045645,108.425189 C47.9469432,108.625198 46.9676477,108.450353 46.0690372,108.691759 C44.1126611,109.217592 42.0746506,108.926671 40.1651034,109.372956 C38.9687492,109.652513 37.6931337,109.260451 36.5820525,109.941811 C36.467986,110.011781 36.2801954,109.956422 36.1267355,109.956422 C34.6131781,109.956584 33.0931343,109.867295 31.5878036,109.981423 C30.137845,110.091005 28.7383542,109.78385 27.3534184,109.544392 C26.1656072,109.339026 24.995357,108.878617 23.8409274,108.393208 C22.0395932,107.636033 20.695158,106.374617 19.4730162,104.953779 C18.7454265,104.107802 17.9786018,103.227733 17.6261187,102.095381 C17.5468574,101.840825 17.4051048,101.542761 17.6319723,101.371812 C17.8455505,101.211091 18.0964653,101.476849 18.2641637,101.607212 C18.433286,101.738548 18.5324812,101.984662 18.7802319,101.831572 C19.0134276,101.687572 18.840983,101.461751 18.8053866,101.28236 C18.5483018,99.9868521 18.1205126,98.747515 17.9765451,97.4018422 C17.8570995,96.2842634 17.5438515,95.1510995 17.3206227,94.0252411 C17.1744403,93.2875481 17.1907356,92.5503422 17.0437621,91.8358645 C16.4454268,88.9289256 16.4368837,85.9814007 16.5688275,83.0492984 C16.6297369,81.6917746 16.6968162,80.3290557 16.7635792,78.9684472 C16.7847788,78.5357994 17.1261875,78.1771806 17.1673211,77.7247268 C17.1832999,77.5489078 17.3601743,77.5756946 17.4870555,77.5808896 C17.6984188,77.5891692 17.6781684,77.7945349 17.7449314,77.9224623 C17.8447594,78.1133793 17.6988934,78.4931028 18.0844416,78.4583611 C18.4307547,78.4270287 18.38266,78.093898 18.4570169,77.8459981 C18.8343383,76.588803 18.8015897,75.2827423 18.9438169,73.9963253 C19.0270333,73.2433719 19.2974075,72.5074648 19.5321853,71.7803242 C19.5839187,71.6200903 19.6864362,71.4629409 19.6903913,71.2877713 C19.7250385,69.7752085 20.494711,68.4066452 20.4885409,66.8734647 C20.4869589,66.4525056 20.9889467,66.1447007 21.1034879,65.6297442 C21.3491819,64.526127 21.8087705,63.4809537 22.3808436,62.5005559 C22.4582064,62.3679205 22.5365184,62.2099594 22.6565968,62.1344693 C22.876345,61.9961518 23.188802,61.8794262 23.2815107,62.2390191 C23.3928878,62.6705305 23.4726237,63.2088645 23.256356,63.5616389 C22.9510183,64.0592245 23.0525866,64.5480435 23.0130351,65.0467655 C22.9823431,65.4337945 22.8219221,65.8187131 22.7706634,66.1588246 C22.5574016,67.57739 21.9332787,68.9250109 22.0432319,70.3961758 C22.0479781,70.4590031 22.0848401,70.5195576 22.1242334,70.6304388 C22.8314145,69.5880254 23.0456255,68.2551779 24.1750586,67.5226799 C24.6692943,67.8541872 24.8860366,68.2829388 24.4035081,68.878418 C24.3541478,68.9394595 24.348136,69.0501784 24.3475032,69.1380067 C24.3388018,70.2737682 23.8296947,71.3226753 23.8016923,72.4522677 C23.7952058,72.715915 23.5928603,72.8345887 23.4898681,73.0216095 C22.9340902,74.0296059 22.4601049,75.0858185 22.125499,76.1785587 C21.8763245,76.9923912 21.8282299,77.8901557 21.8038661,78.7538279 C21.7568789,80.4180204 21.7133723,82.089843 21.8192121,83.7483534 C21.8815453,84.7251797 21.8271224,85.7601253 22.0789865,86.6708773 C22.4376396,87.9684961 22.5774938,89.3039412 22.9033983,90.6039951 C23.0829621,91.319934 23.2905285,92.0634713 23.3935206,92.8255159 C23.4895517,93.5357727 23.5612191,94.3119413 23.861336,95.0053142 C24.2027446,95.7939833 23.8953503,96.3732281 23.0604969,96.4315098 C22.4820955,96.4717712 22.6024903,96.9031202 22.7045332,97.1448511 C23.1239375,98.1393729 23.2147478,99.299486 23.936642,100.133449 C25.0217774,101.387073 26.1238408,102.606928 27.7275757,103.259228 C28.5171821,103.580508 29.3866827,103.691227 30.1115828,104.181182 C30.1449643,104.203748 30.1979633,104.20667 30.2402044,104.202612 C31.8266947,104.053417 33.3854991,104.897121 34.9319633,104.504085 C36.0115615,104.229885 37.1071385,104.412036 38.1244034,104.128258 C38.8100685,103.936854 39.5161422,104.06121 40.1320384,103.829219 C41.0141954,103.497063 41.939068,103.384558 42.8269204,103.094286 C43.6057689,102.839406 44.4045513,102.589071 45.2370316,102.518126 C45.7390194,102.475105 46.2448042,102.272986 46.6782888,102.099115 C47.4144216,101.803811 48.2530719,102.076387 48.9102599,101.560456 C48.9578799,101.523117 49.038565,101.507207 49.0997908,101.515162 C50.1721114,101.653804 51.1995016,101.255249 52.2257843,101.099398 C53.4006225,100.920982 54.592547,101.057026 55.7207144,100.811562 C58.767605,100.14871 61.8301579,100.676816 64.8789469,100.506192 C66.5583043,100.412357 68.22105,100.919034 69.908634,100.702953 C70.8197428,101.361585 71.957719,100.884779 72.9109105,101.333986 C72.9503038,101.352493 72.9950761,101.372462 73.0366843,101.371163 C74.7717302,101.315966 76.4406459,102.100089 78.1962586,101.797966 C78.4993814,101.745854 78.7814628,101.753322 79.0300045,102.035314 C79.2339321,102.266817 79.5660067,102.173794 79.844924,102.174118 C82.8940294,102.178177 85.943293,102.175742 88.9922402,102.178177 C89.4130684,102.178502 89.8000404,102.152039 89.8256698,102.81132 C89.8512991,103.472873 89.6255391,103.67207 89.0115414,103.652751 C87.9245075,103.618334 86.8355752,103.643173 85.7474339,103.643173 C85.7456936,103.700805 85.7441116,103.758762 85.7423713,103.816394" id="Fill-1" fill="#0D2061"></path>
                <path d="M7.34797614,70.9219602 C7.49994803,70.5487439 7.30943026,70.3724188 7.04687592,70.3950573 C6.71623438,70.4235945 6.18006745,70.1916297 6.11434988,70.7347941 C6.00866465,71.6097239 5.60488071,72.2090062 4.85655345,72.6303691 C4.71153246,72.7119952 4.64644678,72.951453 4.56193019,73.1268216 C4.40616691,73.4494998 4.19305872,73.652768 3.80365051,73.5993602 C3.62340111,73.5746492 3.50334016,73.6156217 3.43430511,73.8526881 C3.11140434,74.9594234 2.21521254,75.5577491 1.30970021,76.0986815 C0.994540217,76.2868042 0.830878185,75.9685899 0.880798264,75.6395346 C0.960101681,75.1180522 1.14935565,74.6072514 1.47367819,74.2211216 C2.53400596,72.958946 3.36274246,71.5212425 4.55008207,70.3434032 C5.07961405,69.8180946 5.55385481,69.1575927 6.0051892,68.5302515 C6.67816242,67.5948992 7.52064275,66.8259876 8.2444839,65.9470721 C8.97227442,65.0632144 9.58221565,64.057077 10.5294334,63.3962563 C12.0369882,62.3442042 13.1325443,60.8609048 14.5051885,59.6691955 C15.4865288,58.817223 16.4637618,57.9633374 17.4984976,57.1784832 C17.691227,57.0322896 17.8479382,56.9455619 17.9733703,57.3001253 C18.0850585,57.6159482 18.4168059,57.4973352 18.5746229,57.35991 C19.2520194,56.7701933 19.9112488,56.1573598 20.5508893,55.525714 C21.5946297,54.4948655 22.6203609,53.4453642 23.6489357,52.3990515 C24.6135307,51.4176251 25.544635,50.4006467 26.5420887,49.4549317 C27.2921537,48.7438918 28.0297387,48.0247211 28.847101,47.3707557 C30.3780361,46.1458859 31.9625247,44.9656552 33.1083169,43.2663336 C33.6974054,42.3925198 34.3293051,41.5081838 34.922817,40.6319786 C35.4935804,39.7892528 36.0362243,38.8854668 36.6069877,38.047205 C37.1884935,37.1934788 37.7390361,36.3000555 38.3774128,35.478374 C38.8639756,34.8521487 39.2898761,34.1790522 39.7666444,33.5509138 C40.2378836,32.9299495 40.6168655,32.2444178 41.1833636,31.6778178 C41.8203186,31.0407515 42.265018,30.2241716 42.9270909,29.5834386 C44.4940443,28.0668191 45.9437803,26.4169195 47.5928806,25.0012168 C48.6735872,24.0735169 49.9448115,23.3466938 51.1520559,22.5602454 C52.6294375,21.5976313 54.2581591,21.0010592 55.8489667,20.3160057 C57.347043,19.6708088 58.9136804,19.3253326 60.5766826,19.248011 C61.3093703,19.2140533 62.0820257,18.9730012 62.8513636,19.002495 C64.2325385,19.0555839 65.6107118,19.252475 66.9749834,19.4111038 C68.1760668,19.5509204 69.4021103,19.905165 70.6025618,20.2434669 C71.7960624,20.5798558 72.9971459,20.8885045 74.1549442,21.3331436 C74.8685169,21.6071968 75.5225332,22.0448212 76.241793,22.2976708 C77.6946885,22.8084717 79.1183586,23.3784196 80.5101178,24.0408346 C81.8680703,24.687307 83.2604614,25.2601246 84.6173081,25.9085101 C85.765154,26.4570949 86.8648175,27.1099443 88.0205621,27.6400357 C89.4241694,28.2837979 90.6735932,29.2014539 92.0620349,29.8697676 C92.3944142,30.0298313 92.691881,30.3043629 92.975446,30.5377625 C93.737675,31.1652632 94.7820473,31.5121742 95.1365431,32.5753861 C95.2591316,32.942863 95.4354317,33.30476 95.0295941,33.658048 C94.6240724,34.0108577 94.3266056,33.8173146 94.0000714,33.5727551 C93.1176234,32.911775 92.2647167,32.2031264 91.3356662,31.6170765 C90.9113455,31.3495597 90.3397922,31.3060364 89.8266896,31.2038443 C89.6685567,31.1721186 89.3499212,31.0837966 89.3409167,31.3415884 C89.3349136,31.5139279 89.5519712,31.762473 89.7317466,31.861636 C90.7462617,32.4213806 91.5388219,33.1952344 92.2256969,34.1345723 C92.5534949,34.5831971 93.1086188,34.8637868 93.5645345,35.21564 C94.4149136,35.8718373 95.2477574,36.5541806 96.1257821,37.1705214 C97.0384033,37.8109357 97.7720389,38.6777348 98.7710724,39.2138844 C99.113878,39.397862 99.3274601,39.8120507 99.6359852,40.0789298 C101.532316,41.7192638 103.333073,43.4646595 105.095757,45.2457667 C106.319905,46.482753 107.567907,47.6972602 108.742766,48.9866976 C109.821577,50.170595 111.104176,51.1778484 112.100523,52.4228059 C113.290075,53.9086562 114.711217,55.1590342 115.934101,56.6018394 C116.137889,56.8422538 116.399653,57.0345216 116.592067,57.282429 C118.075136,59.1950626 119.910014,60.765568 121.553902,62.5202105 C123.044553,64.1112819 124.483547,65.7677179 125.397432,67.7967325 C125.462517,67.9414913 125.574522,68.1390201 125.428079,68.292069 C125.285427,68.4409729 125.092066,68.3480275 124.92951,68.3014752 C124.514352,68.1822245 124.294135,67.8008775 124.014993,67.5233169 C122.587532,66.1029908 121.202723,64.6393007 119.788532,63.2054234 C119.030568,62.4371495 118.154913,61.7691546 117.493788,60.9269071 C116.815127,60.0621806 116.133782,59.213556 115.356703,58.4376297 C114.271099,57.3541707 113.15548,56.2946255 112.154393,55.1352797 C111.744132,54.6601903 111.030717,54.3851805 110.992171,53.5866157 C110.979533,53.3246788 110.142266,53.1802388 109.815574,53.3830287 C109.459025,53.6044714 109.649068,53.8488714 109.773079,54.1533751 C110.132788,55.0369139 110.760106,55.761505 111.144459,56.6284636 C111.255042,56.8778058 111.460883,57.1697148 111.23956,57.3353584 C110.979059,57.5304958 110.739569,57.1277858 110.656949,56.9881286 C110.310825,56.4023975 109.797249,55.9674834 109.405471,55.4410588 C108.06458,53.6389074 106.429065,52.1237228 104.889916,50.5146363 C103.949017,49.5309779 103.040187,48.4985352 101.994709,47.639548 C101.068344,46.8786077 100.226495,46.0215336 99.2979188,45.2848261 C98.2214776,44.430781 97.1455103,43.578968 96.0894479,42.696864 C95.1697178,41.9287496 94.1601,41.2692042 93.1800235,40.5761795 C91.9873128,39.7326565 90.7753291,38.9167143 89.5950983,38.055814 C89.4289087,37.9343314 89.2813601,37.8313422 89.0906844,37.8083848 C88.4191329,37.7273964 88.0221419,37.2234509 87.6357352,36.7702028 C87.3573834,36.4438578 86.9742942,36.4087841 86.6581863,36.2090233 C86.0021164,35.7943563 85.1343601,35.6162775 84.6373709,35.0753451 C83.9994682,34.3813637 83.1693099,34.0711208 82.4530515,33.5582474 C81.6954037,33.0158801 80.8033193,32.6653024 79.9706334,32.2294317 C77.9041633,31.1477264 75.7827179,30.1729959 73.689708,29.1510753 C72.2849948,28.4652247 70.7922897,27.7120963 69.0901098,27.8056793 C68.565475,27.834376 68.048581,27.490813 67.4950369,27.3835193 C66.4356569,27.1784975 65.3885991,26.9221405 64.3225842,26.7254088 C62.6839102,26.4231372 61.0624555,26.5771427 59.4353137,26.5160825 C58.3117959,26.4739941 57.2560494,26.8244124 56.1773966,27.1005382 C55.2379196,27.341112 54.4049178,27.8000994 53.5145711,28.1323432 C52.6167995,28.4674566 51.9035427,29.1203061 51.1337308,29.6969499 C50.0023144,30.5444584 49.0552546,31.5421463 48.1053513,32.5549796 C47.6606519,33.0291125 47.2492852,33.5490007 46.9018983,34.0988609 C45.9504152,35.6054365 44.7385895,36.9066714 43.6926375,38.3325775 C42.5345232,39.9115325 40.922547,41.0646607 39.79429,42.6034403 C38.3210158,44.6128455 36.3965651,46.1334506 34.7698972,47.9623856 C34.1815986,48.623844 33.3715031,49.0356414 32.7451325,49.6921576 C31.9672639,50.5073027 31.2533752,51.3889284 30.4123166,52.1417379 C29.5608317,52.9039536 28.8523141,53.8004059 27.8720797,54.4538931 C26.9755719,55.0515811 26.2642108,55.9391056 25.4947149,56.7223655 C24.6863571,57.5453224 23.9195468,58.3955412 22.9617448,59.071348 C22.323684,59.521567 21.9273249,60.2727823 21.3589311,60.8381068 C19.0319603,63.1529722 16.7263161,65.489679 14.4148269,67.8204869 C12.3502525,69.902431 10.2926289,71.9913897 8.22220943,74.067435 C7.7490745,74.5418867 7.342605,75.0971674 6.68937864,75.3678728 C6.32113907,75.520284 6.09649871,75.8603396 5.84073729,76.1543212 C5.06808188,77.0431211 4.03650556,77.6250259 3.18438876,78.4296489 C2.55628042,79.022873 1.73560064,79.4099593 0.991696668,79.8743672 C0.860103548,79.956631 0.655210057,80.1077669 0.537518731,79.8793094 C0.439890221,79.6897519 0.545575452,79.4812227 0.707499761,79.360059 C1.42865534,78.8197643 1.98678078,78.1485809 2.31410485,77.303942 C2.39024877,77.1073697 2.55043535,77.0458313 2.67713125,76.955915 C3.61218489,76.2912681 4.15893614,75.309204 4.80189412,74.4007947 C4.98482909,74.1423652 5.23790494,73.8805877 5.51783652,73.7606993 C5.81561928,73.6331586 5.91814501,73.4893563 5.90566499,73.1886789 C5.89302699,72.8822621 6.07627792,72.7536054 6.36300242,72.7569533 C6.83439963,72.7622144 7.04182072,72.4561165 7.06757063,72.053247 C7.09458435,71.6312464 7.59931426,71.348903 7.34797614,70.9219602" id="Fill-3" fill="#1A89C1"></path>
                <path d="M116.985137,38.0258511 C116.089383,38.0224487 115.407461,37.5248936 114.644065,37.2821917 C114.456923,37.2227313 114.334087,37.144477 114.363586,36.910362 C114.392773,36.6801354 114.554162,36.6321783 114.726476,36.5929701 C114.831207,36.5689915 114.943274,36.5280012 115.044259,36.544689 C116.15244,36.7287406 117.082063,36.1833904 118.031041,35.7467538 C118.417656,35.5686968 118.902758,35.7028471 119.206337,35.4468598 C120.102715,34.6907251 121.172968,34.1152396 121.682731,32.9242505 C121.781375,32.6936999 121.86363,32.4903682 121.865347,32.2509066 C121.869873,31.5770767 121.824298,30.9000064 121.874088,30.2302269 C121.94011,29.3422101 121.578,28.6060036 121.201531,27.8714171 C120.776676,27.0428607 120.372893,26.193404 119.858291,25.4265762 C119.468711,24.8460682 118.921019,24.3792964 118.441224,23.8645674 C117.410616,22.7589614 116.368925,21.677658 115.027402,20.9524686 C113.539006,20.1475667 112.049205,19.4170307 110.298591,19.6385083 C109.910572,19.6875996 109.567816,19.6125856 109.263768,19.2548514 C108.895415,18.8209691 107.991389,18.819835 107.554828,19.1864801 C107.148547,19.5278505 106.614592,19.3489834 106.172568,19.6292734 C105.262611,20.2060549 104.430382,20.8601187 103.696174,21.6645346 C103.081523,22.3378785 102.774666,23.2715841 102.183584,23.8841715 C101.421593,24.6741679 101.100377,25.7002234 100.455915,26.539635 C99.9202419,27.2374435 99.7293538,28.2019324 99.7844507,29.1312636 C99.8217543,29.7608628 99.3953387,30.0565444 99.060231,30.3951605 C98.800823,30.6576286 98.4338746,30.417843 98.4354355,30.0040508 C98.4388693,29.1306156 98.4808553,28.2571803 98.486006,27.3835831 C98.487879,27.0226085 98.7296497,26.7718058 98.8454624,26.4702916 C99.1885303,25.5782244 99.0886379,24.5403416 99.7131213,23.7396521 C99.8428253,23.5732603 99.8908985,23.2215208 99.6755056,23.0624198 C99.4961676,22.9298897 99.2915443,23.0867224 99.1120502,23.2453373 C98.5137885,23.7738378 97.9835786,24.3177298 97.7703708,25.1616779 C97.6581479,25.6059293 97.1911511,25.8954542 97.0271091,26.3612539 C96.9983901,26.4425866 96.7965763,26.5122541 96.6866946,26.4967004 C96.4861295,26.4685094 96.5509035,26.2620994 96.5187506,26.1164458 C96.4023136,25.5898896 96.8622867,25.2831909 96.9606183,24.8389394 C96.9774751,24.7618192 97.1160758,24.6963642 97.1106129,24.6338256 C97.0104084,23.504889 97.5929057,22.5548196 97.8551232,21.5221214 C97.8869639,21.396558 97.8719801,21.2206072 97.9486162,21.1507778 C99.1011245,20.1012297 99.6900212,18.5806974 100.796329,17.4950195 C101.51852,16.7863559 102.166728,16.0051085 103.095727,15.531694 C103.679473,15.2342302 104.248079,15.2486498 104.775167,15.4430705 C105.382794,15.6673024 105.891933,15.5806232 106.498467,15.4484171 C107.193655,15.2969309 107.852008,14.96998 108.604167,15.0022214 C109.986427,15.0613578 111.373527,15.0399715 112.757504,15.007082 C113.269765,14.9949307 113.745658,15.2143021 114.144291,15.3959235 C115.079377,15.822191 116.102962,15.7896255 117.048662,16.2836162 C118.049146,16.806122 119.182925,17.1303186 120.149383,17.7453363 C120.570024,18.0128268 121.080724,18.305268 121.315783,18.8634176 C121.392107,19.044715 121.60391,19.1871282 121.782624,19.2956797 C122.966192,20.0137404 123.819804,21.115134 124.735692,22.1219094 C125.6444,23.12026 126.223776,24.3818887 126.7582,25.6362266 C126.899298,25.9675519 127.184148,26.1096411 127.36052,26.3904171 C127.732151,26.9821042 127.695472,27.6893097 127.986096,28.2931482 C128.501946,29.3647305 128.36397,30.5356295 128.468545,31.6750972 C128.597,33.0708761 128.287334,34.4381401 128.335875,35.8230639 C128.341182,35.9784385 128.274223,36.0981693 128.1851,36.2379902 C127.906494,36.6751129 127.647242,37.1185542 127.667689,37.697118 C127.688604,38.2821624 127.310574,38.7338666 127.0251,39.2016106 C126.674384,39.776772 126.290423,40.4901341 125.646742,40.554455 C124.682936,40.6508553 124.25574,41.3590328 123.739734,41.959955 C123.169099,42.6245499 122.506375,43.1488379 121.810094,43.6379681 C121.553496,43.8181313 121.33342,43.9950542 121.225099,44.3025631 C121.197161,44.3816275 121.148151,44.4824022 121.082753,44.5125375 C120.276746,44.8845292 119.484319,45.3007516 118.65209,45.5954611 C117.539071,45.9894871 116.382192,46.0876696 115.203775,45.9248422 C114.432418,45.8182348 113.419447,44.8746461 113.428344,44.2024364 C113.437709,43.4746547 113.787644,43.1078475 114.598021,42.9895749 C114.854932,42.9519869 115.116681,42.9500427 115.372187,42.906298 C115.665621,42.8560726 115.875239,42.6695907 115.969824,42.3781216 C116.064254,42.0879487 115.841369,41.9142661 115.677795,41.7584055 C115.331137,41.4282142 114.917989,41.220346 114.450212,41.1113084 C113.64561,40.9238544 112.897509,40.5103863 112.03703,40.5382532 C111.082902,40.5691985 110.200884,40.199151 109.288742,39.9734609 C108.64506,39.81436 108.01527,39.5118737 107.311497,39.552378 C106.662821,39.589804 106.114505,39.1936717 105.538719,38.933796 C105.324887,38.8370716 105.335969,38.6816971 105.350797,38.4955392 C105.370619,38.2444124 105.539656,38.2306409 105.719931,38.2261044 C105.806556,38.2239982 105.895835,38.2374456 105.979026,38.2196237 C106.295092,38.1525486 106.789559,38.4179329 106.895071,38.0013864 C107.017751,37.5172788 107.019936,36.9891024 106.628015,36.5036986 C105.988547,35.7120821 105.570872,34.755532 105.21485,33.800278 C105.018187,33.2722636 104.659511,32.835465 104.533396,32.2570633 C104.4783,32.0049644 104.343289,31.7405521 104.342196,31.4570219 C104.337045,30.0870036 104.382934,28.7148792 104.324559,27.3474532 C104.272896,26.1384802 105.055802,25.3039291 105.457557,24.301042 C105.568531,24.0236684 106.749602,23.9185192 106.97358,24.1868198 C107.257337,24.5265701 107.551863,24.8484985 107.322735,25.4675665 C106.751163,27.0119154 106.628015,28.6121602 106.991997,30.2670049 C107.166029,31.0587834 107.46196,31.7865651 107.761949,32.5083521 C108.378784,33.9929166 109.080528,35.4497761 110.346664,36.4819883 C111.09492,37.0919834 111.962735,37.4929762 112.845846,37.8520065 C113.768602,38.2272386 114.763936,38.2146012 115.717908,38.4257097 C116.138549,38.5188697 116.576046,38.4576271 116.985137,38.0258511" id="Fill-5" fill="#FCCD13"></path>
                <path d="M87.1341853,1.02321553 C87.5861929,1.02321553 88.0383637,1.0120385 88.4900452,1.02564532 C89.2141383,1.0476754 89.6053019,1.43935724 89.6328693,2.14642558 C89.6692453,3.07816833 89.9892882,3.44668619 90.9446866,3.65597194 C91.1202046,3.6943626 91.2834884,3.7287036 91.4138219,3.88615387 C91.5244178,4.01963023 91.6953684,4.19327909 91.840709,4.194251 C92.6990505,4.19943455 93.3843209,4.68701203 94.1519673,4.94116787 C95.0414649,5.23565819 95.918239,5.53873376 96.7051337,6.05255295 C96.9344815,6.2022279 97.1625243,6.2916441 97.4434183,6.32938681 C97.871121,6.38705378 98.4179018,6.23770281 98.6005971,6.87819495 C98.6501858,7.05151984 98.9203138,7.00243812 99.0933849,7.0301377 C99.5868253,7.10886284 99.7178113,7.54752059 99.8360738,7.8925505 C99.9285633,8.16177102 99.5819317,8.33331406 99.3390448,8.49125029 C98.727505,8.88876363 98.0476177,9.13886982 97.3825743,9.41716155 C97.0214249,9.56813238 96.5591406,9.60441722 96.4824738,10.0649431 C96.397651,10.5734167 96.8904389,10.8353479 97.1989003,11.0127224 C98.303391,11.647869 99.1950092,12.5057462 100.064117,13.4044438 C100.282372,13.6302522 100.498018,13.8217195 100.5,14.1918572 C100.504217,15.0487625 99.9597194,15.4509734 99.2007184,15.0442268 C98.6399092,14.743743 98.445143,14.8069175 98.446448,15.4645802 C98.4472636,15.982449 98.0978589,16.1395753 97.642915,15.8703548 C97.1099994,15.5549683 96.6111761,15.1386646 96.1146365,14.8380188 C95.1424366,14.2492002 94.4235634,13.2437539 93.1636185,13.0574701 C92.6489725,12.9813367 92.2287733,12.4381981 91.7423472,12.1344746 C91.1154741,11.7431167 90.5536861,11.246792 89.8641746,10.9442024 C89.7873447,10.9105093 89.7046425,10.8366438 89.6731602,10.7614823 C89.1355141,9.47353263 87.7284343,9.26538078 86.8009295,8.46662844 C85.7368927,7.55027435 84.2761462,7.3845628 83.1796483,6.5049795 C82.8439458,6.23592096 82.3333777,6.19850223 81.9544482,5.82091315 C81.5500718,5.41773031 81.4313198,5.05212819 81.5360434,4.54673227 C81.6525116,3.98512724 82.1777605,3.92292466 82.5713709,3.86088407 C82.960414,3.79932944 83.3031307,3.67719209 83.6461737,3.5234675 C84.0875786,3.32584473 84.3984867,3.03799583 84.2864228,2.49194145 C84.074692,1.45976746 84.7190191,1.17467232 85.6448926,1.03601241 C86.1309925,0.963280756 86.6371563,1.02321553 87.1341853,1.02321553" id="Fill-7" fill="#FCCD13"></path>
                <path d="M124.358875,48.5285039 C124.358875,48.2219963 124.349626,47.9274435 124.362178,47.6337208 C124.370271,47.4396215 124.271177,47.1810991 124.514617,47.082306 C124.830229,46.9544561 125.021644,47.2855375 125.096625,47.4434404 C125.377885,48.0360328 125.924219,48.4566091 126.112662,49.1000095 C126.345862,49.8959995 127.216066,50.1309444 127.600383,50.8155223 C128.128055,51.755468 128.732195,52.6519114 129.303468,53.5672833 C130.09192,54.8305065 130.942967,56.0525521 131.773369,57.2833977 C132.391547,58.1997658 133.196185,59.0517109 133.499741,60.2300883 C133.71147,61.0528105 134.419657,61.6998637 135.132138,62.2203954 C135.762207,62.6806549 135.385817,63.2976551 135.413068,63.8402699 C135.438172,64.3420391 134.987462,64.311488 134.657151,64.3061748 C134.095787,64.2973747 133.531451,64.3905225 132.98396,64.0909885 C132.642583,63.9041948 132.077256,64.4707192 132.014001,64.9958999 C131.910614,65.852328 131.719529,66.0321481 130.854114,65.9956195 C130.310752,65.9727062 129.80455,65.8862 129.343766,65.4877068 C129.043678,65.2281882 128.555808,65.1966408 128.163729,65.0344209 C127.689567,64.8383291 127.15083,64.5251799 127.253226,63.9865501 C127.595594,62.1841989 126.358744,61.2952272 125.311657,60.2539979 C123.828395,58.7792412 122.383614,57.2652995 120.912904,55.7779239 C120.488124,55.3485476 120.371193,54.8643784 120.655591,54.3458393 C120.937842,53.830953 121.796651,53.4862564 122.320525,53.7014427 C122.884201,53.9330668 123.350765,53.638514 123.643256,53.3451234 C123.986614,53.0005929 123.905192,52.4285893 123.629878,51.9706543 C123.270004,51.3720844 122.833168,50.8083827 122.55934,50.1731182 C122.250829,49.4578231 121.891616,48.7328977 121.916224,47.9138283 C121.926298,47.5794261 121.847849,47.1653254 122.264537,47.0339887 C122.663388,46.9082973 122.928462,47.1472271 123.162323,47.4874406 C123.461254,47.9226283 123.81221,48.3327442 124.358875,48.5285039" id="Fill-9" fill="#FCCD13"></path>
                <g id="Group-13" transform="translate(131.500000, 18.000000)">
                    <mask id="mask-2" fill="white">
                        <use xlink:href="#path-1"></use>
                    </mask>
                    <g id="Clip-12"></g>
                    <path d="M5.65335752,10.0426333 C5.68345487,9.81300833 5.64831327,9.55145278 5.7608,9.36216111 C5.89144602,9.14216111 6.05605664,8.91681389 5.83242832,8.74631389 C5.59938407,8.56863333 5.26646372,8.59766111 4.98297699,8.74723056 C4.88663186,8.79810556 4.79045487,8.909175 4.70218053,8.90275833 C3.48365841,8.81414722 2.40469381,9.54686944 1.17810088,9.39134167 C0.926056637,9.35941111 0.674684956,9.32381389 0.422472566,9.29310556 C0.0325522124,9.24559167 0.0480212389,8.99427222 0.0587823009,8.72813333 C0.0697115044,8.45511944 0.17160531,8.28034167 0.505534513,8.28950833 C0.831897345,8.29836944 1.08024248,8.16575833 1.27965841,7.94086944 C1.58668496,7.59482778 1.69597699,7.32563333 1.15708319,7.017175 C0.486030088,6.63309167 0.483676106,5.93016111 1.12513628,5.52377222 C1.87437522,5.04909167 2.55249027,4.48824444 3.35116283,4.07146667 C3.92469381,3.772175 4.6288708,3.94603611 5.18037522,3.55431389 C5.61333982,3.24646667 6.16635752,3.13860556 6.70390619,3.00293889 C7.39244602,2.82923056 7.9748885,2.45660556 8.48856106,1.97795278 C8.7397646,1.74420278 9.17962301,1.89209167 9.52834867,1.87223056 C10.1815788,1.8348 10.781508,1.74252222 11.2825699,1.316425 C11.3817735,1.23193889 11.5872425,1.23713333 11.7458,1.22613333 C12.1259681,1.20000833 12.4074372,1.01178611 12.7258973,0.866494444 C13.4445345,0.539091667 14.1554372,-0.135116667 15.1210743,0.239494444 C15.3016584,0.309619444 15.5096496,0.376841667 15.656269,0.282425 C16.1833929,-0.0565888889 16.7752513,0.0411888889 17.3469327,0.0453138889 C17.6463929,0.0474527778 18.0376584,-0.0521583333 18.1805788,0.336202778 C18.3228265,0.722730556 18.3505699,1.11353611 18.0620389,1.4608 C17.2901009,2.38984167 17.3972071,2.79286944 18.5538531,3.25884167 C18.9252779,3.40856389 19.1512602,4.236925 18.8082513,4.65859167 C18.2757469,5.31309167 17.898269,6.05956389 17.2416761,6.64714722 C16.7231274,7.11128611 16.1536319,7.09677222 15.6453398,6.879675 C14.9314106,6.57488333 14.3726761,6.68946667 13.9050743,7.17102222 C13.3078354,7.78595278 12.3630478,7.70650833 11.6837558,8.22411944 C10.685331,8.98510556 9.41804779,9.40600833 8.38128673,10.1648556 C7.99321593,10.4488694 7.43296814,10.6436611 6.93779115,10.8471611 C6.18098584,11.1579111 5.66596814,10.8074389 5.65335752,10.0426333" id="Fill-11" fill="#FCCD13" mask="url(#mask-2)"></path>
                </g>
                <path d="M119.513156,13.0119974 C119.417103,12.1069849 119.898062,11.3115795 119.98968,10.4273487 C120.093772,9.42446077 120.484084,8.52665483 120.621164,7.57069345 C120.723732,6.85506318 120.759908,6.10088608 121.031435,5.47475149 C121.511008,4.36896026 121.505325,3.1488693 121.767011,1.99765985 C121.872906,1.53141081 121.946644,1.07437948 121.990997,0.596063605 C122.048657,-0.0255459227 122.278741,-0.149398562 122.725049,0.170540124 C123.095124,0.435842869 123.456467,0.723603333 123.799515,1.03717341 C124.036252,1.25353844 124.197865,1.35074349 124.496282,1.09918353 C124.926096,0.737346115 125.687037,0.873768374 125.949416,1.25270047 C126.596285,2.18670691 126.652975,2.82641669 126.22524,3.58411329 C125.983097,4.01315626 125.820791,4.47974049 125.82384,5.05040117 C125.834651,6.97355278 125.910468,8.89871553 125.746221,10.820694 C125.704778,11.3048757 125.5774,11.7164888 125.326525,12.0691085 C124.92568,12.6328978 124.470224,12.6794891 123.975266,12.2254745 C123.575945,11.8589445 123.213216,11.6211273 122.684022,12.0114558 C122.424831,12.2026816 122.341945,12.3846897 122.302165,12.6835114 C122.212072,13.3599245 121.907973,13.9235462 121.594864,14.4611907 C121.318763,14.9349815 120.570019,15.1484974 120.139096,14.8872169 C119.704847,14.6240929 119.442745,14.1816423 119.510661,13.5399214 C119.527571,13.3802035 119.513156,13.2154577 119.513156,13.0119974" id="Fill-14" fill="#FCCD13"></path>
                <path d="M46.9842467,68.3575797 L46.4646128,68.3575797 C46.594562,68.4203636 46.7894044,68.4203636 46.9842467,68.4203636 C47.5689366,68.4203636 48.2185197,68.4833048 48.9980519,68.4833048 C49.9075333,68.4833048 51.2715927,68.4203636 52.7657639,68.2947958 C54.0000368,68.1690707 55.4940453,67.8548365 56.8582674,67.2891521 C60.5610861,65.5922561 62.2499371,61.8212888 62.2499371,58.8672989 C62.2499371,53.4623769 58.0274844,52.9596337 55.1043605,52.9596337 C53.4153469,52.9596337 51.9862316,53.1481427 50.297218,53.3366517 C50.1023756,53.3994356 49.7125282,53.3994356 49.4527926,53.4623769 L49.9724265,53.4623769 L46.9842467,68.3575797 Z M43.6712755,84.1327011 C43.3464839,85.7038719 43.2165348,86.5837905 43.2165348,87.2122589 C43.2165348,89.6005644 44.9704416,89.7890734 47.6988857,89.7890734 C57.1830589,89.7890734 59.0669149,83.0013323 59.0669149,79.6075404 C59.0669149,73.2597585 53.4802402,73.2597585 51.5963842,73.2597585 C50.5571163,73.2597585 49.3877367,73.2597585 45.2952332,73.3854837 L45.9448162,73.3854837 L43.6712755,84.1327011 Z M41.0727805,59.6214923 C41.7223636,56.4791507 41.9173686,54.2165703 41.9173686,52.6452422 C41.8523127,50.9483462 43.1516415,49.2514503 45.2952332,49.3143915 L46.2047145,49.3143915 C47.5038807,49.3143915 49.1928943,49.2514503 50.9468011,49.1886664 C52.9606063,49.1257251 55.1043605,49 57.1181657,49 C61.2755624,49 65.8876999,49.1886664 68.4213016,52.0797151 C69.7204678,53.6508859 70.5,55.8506824 70.5,57.8618125 C70.5,61.3813295 68.4213016,65.5922561 64.2637422,68.2947958 C61.4704048,70.0544756 58.547281,70.4944349 56.5983691,70.682944 C60.4960302,71.2486284 67.5118202,72.5055651 67.5118202,79.9847158 C67.5118202,82.9385484 66.3424406,85.5153629 64.3287981,87.9664523 C62.7697336,89.7890734 59.1968641,94 47.9586214,94 C45.7499738,94 44.1909094,93.9372161 42.7617941,93.8742749 L42.3721093,93.8742749 C41.2027296,93.811491 40.0984059,93.7485497 38.7341838,93.7485497 L37.8897583,93.7485497 C35.7460041,93.7485497 34.1220464,92.0516538 34.576787,90.2918166 C34.9664718,88.8463709 35.4212125,86.7722996 36.1358515,83.5670167 L41.0727805,59.6214923 Z" id="Fill-16" fill="#000000"></path>
                <path d="M76.9839287,83.8110243 C76.6432465,84.2056803 76.5864399,85.051729 76.6432465,86.1234741 C76.6432465,86.7439827 76.6998958,87.4207591 76.5864399,88.3232319 C76.5296333,88.6051961 76.4728267,88.8307361 76.4728267,89.0564324 C76.3025643,90.6921057 74.4853828,91.8201186 72.5547455,91.8201186 C70.8511771,91.8201186 69.2044154,90.8049539 69.5450976,89.5640929 C69.6019042,89.4512447 69.7155174,89.1128565 69.7723239,89 L69.7723239,88.7180442 C70.2832686,86.7439827 70.9079837,83.416212 71.3622791,80.9344901 C71.4190857,80.7652178 71.5325415,80.1448655 71.5893481,79.9755932 L71.5325415,79.9755932 C72.8386211,72.7561236 74.1447006,65.4800736 75.4506228,58.2604477 C75.6776918,57.019743 75.791305,55.947998 75.7348131,55.2712216 C75.6776918,53.9739365 76.0754953,52.4511114 77.7790637,52.3382632 C78.460428,52.2818391 79.0849858,52.2255713 79.7095436,52.0562991 C81.4699186,51.7177545 83.0597164,52.9586155 82.7190342,54.3687488 C82.0376698,57.4709794 81.5267252,60.0653933 80.7883968,64.3520608 L78.4034641,77.155483 C81.8674074,74.3353728 85.9560658,69.4283529 87.9433524,65.3672254 C88.0003163,65.2543773 88.0569656,65.0852613 88.1137721,64.9725694 C88.1705787,64.8597213 88.2273853,64.690449 88.2841919,64.5776008 C88.8519431,62.9983516 90.1010587,61.3064106 92.0888174,61.4191024 L92.7132178,61.4191024 C94.4737501,61.4191024 96.1203545,62.8855035 95.2687277,64.1265208 C93.1676706,67.2850192 89.9876029,71.9099186 86.750886,74.7866092 L86.9211484,74.7866092 C87.3754438,77.324599 87.716126,78.2834958 88.3976478,80.0884414 C90.4988622,86.1798982 92.5996046,88.2103838 94.7009765,90.015173 C95.3255343,90.6921057 94.8145897,91.9893908 93.7354218,91.9893908 L93.2811264,91.9893908 C91.0098069,92.102239 88.8519431,91.3124581 87.5460209,89.7333652 C85.7288394,87.4771832 84.0819203,85.5595458 82.151283,79.2423927 L76.9839287,83.8110243 Z" id="Fill-18" fill="#000000"></path>
            </g>
        </g>
    </g>
</svg>