<svg xmlns="http://www.w3.org/2000/svg" xmlns:xlink="http://www.w3.org/1999/xlink" width="73" height="90" viewBox="0 0 73 90">
    <defs>
        <path id="prefix__a" d="M35.44 97.94c19.573 0 35.44-15.99 35.44-35.713 0-6.294-1.615-12.207-4.451-17.343-3.46-6.263 4.28-20.15-2.093-30.667C59.559 6.335 41.15.464 35.44.464 15.128 7.904 0 42.504 0 62.227 0 81.951 15.867 97.94 35.44 97.94z"/>
        <path id="prefix__c" d="M0.043 0.497L33.48 0.497 33.48 33.434 0.043 33.434z"/>
        <path id="prefix__e" d="M0 0.156L80.189 0.156 80.189 53.849 0 53.849z"/>
        <path id="prefix__h" d="M0.019 0.497L21.196 0.497 21.196 8.72 0.019 8.72z"/>
        <linearGradient id="prefix__f" x1="-7.896%" x2="116.963%" y1="60.931%" y2="56.968%">
            <stop offset="0%" stop-color="#FFED9F"/>
            <stop offset="100%" stop-color="#FFCA00"/>
        </linearGradient>
    </defs>
    <g fill="none" fill-rule="evenodd" transform="translate(1 -9)">
        <ellipse cx="35.44" cy="62.227" stroke="#979797" stroke-width=".54" rx="35.44" ry="35.713"/>
        <mask id="prefix__b" fill="#fff">
            <use xlink:href="#prefix__a"/>
        </mask>
        <g mask="url(#prefix__b)">
            <g>
                <path fill="#F8C49E" d="M31.438 48.699L48.328 46.715 42.287 25.973 30.608 27.345 30.704 29.856 31.006 37.585z" transform="translate(11.813 8.658)"/>
                <path fill="#EFA36C" d="M30.724 37.5c1.63-.192 3.224-.686 4.672-1.46 2.4-1.285 4.383-3.336 5.579-5.778-3.393-.118-6.775-.363-10.165-.482-.126-.004-.252-.008-.38-.007l.294 7.727z" transform="translate(11.813 8.658)"/>
                <g transform="translate(11.813 8.658) translate(20.49)">
                    <mask id="prefix__d" fill="#fff">
                        <use xlink:href="#prefix__c"/>
                    </mask>
                    <path fill="#F8C49E" d="M33.478 17.807c-.05 1.606-1.035 3.152-2.476 3.876-1.44.724-3.673.734-5-.18-.289 2.981-1.645 5.842-3.732 7.994-.725.75-1.537 1.413-2.423 1.967-.018.012-.038.022-.055.033-2.866 1.768-6.437 2.355-9.724 1.64-.645-.14-1.277-.33-1.894-.572-3.773-1.476-6.752-4.841-7.721-8.762-.767-3.108-.318-6.37.219-9.523.419-2.459.923-4.983 1.997-7.21.032-.068.067-.138.1-.204.375-.754.822-1.47 1.352-2.136.05-.06.098-.122.15-.183C6.108 2.355 8.83.953 11.68.592c.511-.067 1.029-.098 1.546-.095 3.467.023 6.863 1.574 9.27 4.06.556.574 1.058 1.196 1.505 1.854 1.495 2.193 2.38 4.8 2.591 7.445 1.376-.837 3.25-.87 4.645-.063.094.054.185.111.272.171 1.238.85 2.013 2.344 1.97 3.843" mask="url(#prefix__d)"/>
                </g>
                <path fill="#000" d="M48.566 19.348l-.533-.118.03-3.61.557.005-.022 2.703c.283-.296.63-.53 1.013-.68.682-.27 1.465-.263 2.142.018l-.212.512c-.546-.226-1.175-.23-1.726-.015-.55.216-1.006.649-1.25 1.185M30.595 22.403c-.151 0-.305-.03-.455-.091-.295-.119-.534-.343-.623-.581-.136-.366-.1-.76-.07-1.074l.456-5.01.554.05-.457 5.01c-.024.273-.053.583.04.831.028.076.146.194.311.26.115.048.293.086.478-.002l.238.502c-.15.07-.309.105-.472.105M32.442 24.768c-.032 0-.064 0-.095-.002l.02-.554c.59.02 1.193-.218 1.605-.64.414-.424.637-1.027.599-1.616l.555-.036c.048.742-.233 1.504-.755 2.039-.499.511-1.213.81-1.93.81M34.686 16.19c.053.435.33.759.621.723.29-.035.484-.414.431-.85-.052-.433-.33-.757-.621-.722-.29.036-.484.416-.43.85M25.46 16.415c.053.434.331.758.621.722.29-.034.484-.415.432-.849-.053-.434-.33-.758-.622-.723-.29.035-.484.415-.43.85M36.043 13.663c.25.002.583.055.813-.05.452-.209.45-.688.03-.978-.43-.299-1.059-.36-1.565-.394-.344-.022-.856-.037-1.148.192-.281.218-.34.605-.15.91.412.664 1.387.315 2.02.32M25.206 14.189c-.249.025-.576.108-.816.023-.468-.167-.51-.644-.12-.97.403-.337 1.023-.456 1.524-.534.34-.054.848-.115 1.161.086.3.193.393.572.233.893-.35.699-1.353.439-1.982.502" transform="translate(11.813 8.658)"/>
                <g transform="translate(11.813 8.658) translate(0 38.692)">
                    <mask id="prefix__g" fill="#fff">
                        <use xlink:href="#prefix__e"/>
                    </mask>
                    <path fill="url(#prefix__f)" d="M80.189 50.061S68.467 5.803 62.493 3.056C56.518.31 45.48.156 45.48.156S33.099 11.355 30.865.795c0 0-8.97.43-12.646 2.109 0 0-15.546 21-18.22 46.74 10.529 1.239 18.437 1.873 23.725 1.9 12.532.065 31.353-.429 56.465-1.483z" mask="url(#prefix__g)"/>
                    <path stroke="#161616" stroke-width=".54" d="M17.183 50.252L24.293 31.384" mask="url(#prefix__g)"/>
                    <path stroke="#161616" stroke-width=".54" d="M27.265.844c-5.445.62-8.363 1.468-8.978 1.964-.615.495-4.52 5.598-8.288 13.963" mask="url(#prefix__g)"/>
                </g>
                <path fill="#000" d="M47.082 13.856c-1.602-.244-2.877-1.592-3.586-3.046-.711-1.452-.919-3.09-1.07-4.7.426.348 1.066.323 1.617.32.15-.001.3-.01.449-.018 1.495 2.192 2.38 4.799 2.59 7.444M22.117 4.383c-.684.47-.932 1.431-.666 2.215.267.784.976 1.372 1.769 1.614.794.243 1.66.172 2.453-.07 1.258-.386 2.377-1.203 3.125-2.282.285 1.229 1.394 2.387 2.65 2.552 1.254.165 2.578-.513 3.174-1.625" transform="translate(11.813 8.658)"/>
                <g transform="translate(11.813 8.658) translate(24.581)">
                    <mask id="prefix__i" fill="#fff">
                        <use xlink:href="#prefix__h"/>
                    </mask>
                    <path fill="#42D8F3" d="M21.196 8.72L.019 4.746.03 4.73l.15-.183C2.02 2.354 4.74.954 7.59.592 8.1.525 8.618.494 9.134.497c3.468.024 6.864 1.574 9.271 4.061 1.17 1.209 2.105 2.628 2.79 4.162" mask="url(#prefix__i)"/>
                </g>
                <path fill="#42D8F3" d="M45.725 8.992L12.671 2.789 12.774 2.243 45.828 8.447z" transform="translate(11.813 8.658)"/>
            </g>
        </g>
    </g>
</svg>
