<svg xmlns="http://www.w3.org/2000/svg" xmlns:xlink="http://www.w3.org/1999/xlink" width="118" height="147" viewBox="0 0 118 147">
    <defs>
        <path id="prefix__a" d="M58.212 159.642c32.15 0 58.212-26.062 58.212-58.212 0-10.259-2.654-19.898-7.312-28.268-5.682-10.21 7.03-32.845-3.438-49.988C97.827 10.326 67.59.757 58.212.757 24.849 12.882 0 69.28 0 101.43c0 32.15 26.062 58.212 58.212 58.212z"/>
        <path id="prefix__c" d="M0.071 0.81L54.991 0.81 54.991 54.497 0.071 54.497z"/>
        <path id="prefix__e" d="M0 0.254L131.713 0.254 131.713 87.774 0 87.774z"/>
        <path id="prefix__h" d="M0.031 0.81L34.814 0.81 34.814 14.213 0.031 14.213z"/>
        <linearGradient id="prefix__f" x1="-7.896%" x2="116.963%" y1="60.765%" y2="56.862%">
            <stop offset="0%" stop-color="#FFED9F"/>
            <stop offset="100%" stop-color="#FFCA00"/>
        </linearGradient>
    </defs>
    <g fill="none" fill-rule="evenodd" transform="translate(1 -14)">
        <circle cx="58.212" cy="101.43" r="58.212" stroke="#979797" stroke-width=".882"/>
        <g>
            <mask id="prefix__b" fill="#fff">
                <use xlink:href="#prefix__a"/>
            </mask>
            <g mask="url(#prefix__b)">
                <g>
                    <path fill="#F8C49E" d="M51.638 79.38L79.38 76.146 69.458 42.336 50.274 44.573 50.433 48.666 50.929 61.264z" transform="translate(19.404 14.112)"/>
                    <path fill="#EFA36C" d="M50.465 61.125c2.677-.314 5.296-1.118 7.674-2.38 3.943-2.094 7.2-5.438 9.164-9.417-5.573-.193-11.128-.592-16.697-.786-.206-.007-.414-.014-.625-.012l.484 12.595z" transform="translate(19.404 14.112)"/>
                    <g transform="translate(19.404 14.112) translate(33.657)">
                        <mask id="prefix__d" fill="#fff">
                            <use xlink:href="#prefix__c"/>
                        </mask>
                        <path fill="#F8C49E" d="M54.988 29.025c-.082 2.618-1.7 5.138-4.066 6.319-2.366 1.179-6.034 1.196-8.213-.295-.474 4.86-2.702 9.523-6.13 13.032-1.19 1.222-2.524 2.303-3.98 3.205-.03.02-.063.037-.09.054-4.707 2.882-10.573 3.838-15.972 2.673-1.059-.228-2.098-.536-3.11-.933C7.228 50.674 2.335 45.19.743 38.8c-1.26-5.067-.523-10.382.36-15.523.687-4.008 1.516-8.122 3.28-11.752.053-.111.11-.224.163-.333.617-1.23 1.352-2.397 2.221-3.48.082-.099.163-.2.247-.3 3.018-3.573 7.487-5.857 12.168-6.446.84-.109 1.69-.16 2.54-.155 5.694.038 11.273 2.566 15.227 6.619.911.934 1.737 1.948 2.471 3.022 2.456 3.573 3.91 7.822 4.256 12.135 2.26-1.365 5.338-1.42 7.63-.103.153.088.303.18.446.28 2.034 1.385 3.307 3.82 3.235 6.262" mask="url(#prefix__d)"/>
                    </g>
                    <path fill="#000" d="M79.771 31.537l-.875-.191.05-5.884.914.007-.036 4.405c.465-.481 1.034-.863 1.664-1.11 1.12-.438 2.405-.426 3.519.031l-.35.835c-.895-.368-1.928-.376-2.834-.025-.903.353-1.652 1.058-2.052 1.932M50.253 36.517c-.248 0-.5-.049-.747-.149-.484-.193-.876-.558-1.023-.947-.224-.596-.164-1.237-.117-1.75l.751-8.167.91.08-.75 8.167c-.04.446-.088.952.064 1.356.047.124.241.317.512.425.189.077.482.14.784-.004l.391.817c-.244.115-.506.172-.775.172M53.287 40.372c-.053 0-.104-.001-.156-.003l.034-.904c.969.032 1.958-.354 2.636-1.043.679-.69 1.046-1.674.983-2.634l.912-.058c.079 1.21-.384 2.452-1.24 3.323-.82.833-1.993 1.32-3.17 1.32M56.973 26.39c.087.708.543 1.236 1.02 1.178.477-.056.795-.675.709-1.384-.087-.708-.543-1.236-1.022-1.178-.477.058-.794.677-.707 1.385M41.82 26.757c.086.707.543 1.235 1.02 1.177.477-.056.794-.677.708-1.384-.086-.708-.543-1.236-1.021-1.18-.478.058-.795.678-.707 1.387M59.201 22.27c.412.004.959.09 1.336-.082.742-.34.738-1.12.05-1.592-.708-.488-1.74-.59-2.57-.643-.566-.036-1.407-.06-1.887.313-.461.356-.558.986-.248 1.484.678 1.082 2.28.512 3.32.52M41.401 23.128c-.408.04-.945.176-1.339.037-.77-.272-.837-1.048-.197-1.58.661-.55 1.68-.744 2.502-.872.56-.087 1.393-.186 1.908.14.492.316.645.934.382 1.457-.574 1.139-2.223.715-3.256.818" transform="translate(19.404 14.112)"/>
                    <g transform="translate(19.404 14.112) translate(0 63.069)">
                        <mask id="prefix__g" fill="#fff">
                            <use xlink:href="#prefix__e"/>
                        </mask>
                        <path fill="url(#prefix__f)" d="M131.713 81.6S112.459 9.46 102.646 4.982C92.833.503 74.702.254 74.702.254S54.366 18.508 50.697 1.296c0 0-14.733.701-20.772 3.437 0 0-25.535 34.232-29.925 76.186 17.293 2.02 30.282 3.053 38.968 3.098 20.583.106 51.499-.7 92.745-2.417z" mask="url(#prefix__g)"/>
                        <path stroke="#161616" stroke-width=".882" d="M28.224 81.91L39.902 51.156" mask="url(#prefix__g)"/>
                        <path stroke="#161616" stroke-width=".882" d="M44.784 1.375C35.84 2.385 31.047 3.77 30.037 4.576c-1.01.808-7.424 9.126-13.613 22.76" mask="url(#prefix__g)"/>
                    </g>
                    <path fill="#000" d="M77.333 22.586c-2.631-.398-4.725-2.595-5.89-4.965-1.168-2.367-1.509-5.039-1.756-7.662.7.567 1.75.527 2.655.521.245-.001.493-.014.737-.029 2.456 3.573 3.91 7.822 4.254 12.135M36.328 7.145c-1.124.764-1.53 2.332-1.093 3.61.437 1.277 1.602 2.236 2.905 2.631 1.303.396 2.726.28 4.03-.116 2.064-.628 3.904-1.96 5.132-3.718.468 2.003 2.29 3.89 4.352 4.16 2.06.269 4.234-.837 5.213-2.65" transform="translate(19.404 14.112)"/>
                    <g transform="translate(19.404 14.112) translate(40.375)">
                        <mask id="prefix__i" fill="#fff">
                            <use xlink:href="#prefix__h"/>
                        </mask>
                        <path fill="#42D8F3" d="M34.814 14.213L.031 7.736C.036 7.73.04 7.72.05 7.71c.082-.097.162-.198.247-.3C3.316 3.838 7.783 1.556 12.467.965c.84-.108 1.688-.159 2.537-.154 5.695.039 11.273 2.566 15.227 6.62 1.923 1.97 3.458 4.283 4.583 6.783" mask="url(#prefix__i)"/>
                    </g>
                    <path fill="#42D8F3" d="M75.105 14.657L20.812 4.547 20.982 3.657 75.273 13.769z" transform="translate(19.404 14.112)"/>
                </g>
            </g>
        </g>
    </g>
</svg>
