<?xml version="1.0" encoding="UTF-8"?>
<svg width="52px" height="52px" viewBox="0 0 52 52" version="1.1" xmlns="http://www.w3.org/2000/svg" xmlns:xlink="http://www.w3.org/1999/xlink">
    <!-- Generator: Sketch 59 (86127) - https://sketch.com -->
    <title>man_square</title>
    <desc>Created with Sketch.</desc>
    <defs>
        <rect id="path-1" x="0" y="0" width="51.7" height="51.7" rx="11"></rect>
        <path d="M25.61328,70.24248 C39.7591039,70.24248 57.2,58.7750239 57.2,44.6292 C57.2,40.1152455 58.3,18.7489872 50.9156085,7.81826988 C47.2412982,2.37938596 29.7397032,0.333104214 25.61328,0.333104214 C10.9335273,5.66817951 4.26325641e-14,30.4833761 4.26325641e-14,44.6292 C4.26325641e-14,58.7750239 11.4674561,70.24248 25.61328,70.24248 Z" id="path-3"></path>
        <polygon id="path-5" points="0.0311474484 0.35646411 24.1961581 0.35646411 24.1961581 23.9787522 0.0311474484 23.9787522"></polygon>
        <polygon id="path-7" points="0 0.111816365 57.9536195 0.111816365 57.9536195 38.6205557 0 38.6205557"></polygon>
        <linearGradient x1="-7.89627728%" y1="60.7648012%" x2="116.962517%" y2="56.8616867%" id="linearGradient-9">
            <stop stop-color="#FFED9F" offset="0%"></stop>
            <stop stop-color="#FFCA00" offset="100%"></stop>
        </linearGradient>
        <polygon id="path-10" points="0.0134510986 0.35646411 15.3183195 0.35646411 15.3183195 6.25378088 0.0134510986 6.25378088"></polygon>
    </defs>
    <g id="Home" stroke="none" stroke-width="1" fill="none" fill-rule="evenodd">
        <g id="Reports_Shares" transform="translate(-30.000000, -637.000000)">
            <g id="Details" transform="translate(30.000000, 586.000000)">
                <g id="Partner_1" transform="translate(0.000000, 51.000000)">
                    <g id="man_square">
                        <mask id="mask-2" fill="white">
                            <use xlink:href="#path-1"></use>
                        </mask>
                        <use id="Mask" fill="#FFFFFF" xlink:href="#path-1"></use>
                        <g id="man" mask="url(#mask-2)">
                            <g transform="translate(-2.200000, 0.000000)" id="male_image">
                                <g transform="translate(-0.000000, -0.000000)">
                                    <mask id="mask-4" fill="white">
                                        <use xlink:href="#path-3"></use>
                                    </mask>
                                    <g id="Mask"></g>
                                    <g id="Male" mask="url(#mask-4)">
                                        <g transform="translate(37.349760, 39.709280) scale(-1, 1) translate(-37.349760, -39.709280) translate(7.849760, 6.209280)" id="Group-33">
                                            <g transform="translate(29.312000, 33.500000) scale(-1, 1) translate(-29.312000, -33.500000) translate(0.312000, 0.000000)">
                                                <polygon id="Fill-1" fill="#F8C49E" points="22.7208506 34.9272 34.9272 33.5043562 30.5615699 18.62784 22.12056 19.6120532 22.190484 21.4130488 22.4088314 26.9560917"></polygon>
                                                <path d="M22.2048079,26.8951534 C23.3824522,26.7570236 24.5349854,26.4031057 25.5812795,25.8480401 C27.3158742,24.9263258 28.7491361,23.4552748 29.6132141,21.7041448 C27.1613446,21.6194846 24.7172015,21.4437987 22.2666197,21.358502 C22.1758336,21.3553192 22.0844036,21.3521365 21.9916858,21.3534096 L22.2048079,26.8951534 Z" id="Fill-2" fill="#EFA36C"></path>
                                                <g id="Group-6" transform="translate(14.809086, 0.000000)">
                                                    <mask id="mask-6" fill="white">
                                                        <use xlink:href="#path-5"></use>
                                                    </mask>
                                                    <g id="Clip-5"></g>
                                                    <path d="M24.1948915,12.7708996 C24.1588346,13.9230425 23.4467107,15.0319005 22.4055676,15.5513197 C21.3644245,16.0701023 19.750878,16.0777408 18.7921506,15.4214649 C18.5835357,17.5602496 17.6029166,19.6118278 16.0949653,21.1554447 C15.5708525,21.6933236 14.9842839,22.1688213 14.34363,22.5660241 C14.3307525,22.5749357 14.3159434,22.5819377 14.3037098,22.5895762 C12.2330133,23.85757 9.6517252,24.2783249 7.27647659,23.7659078 C6.81031231,23.665334 6.35316227,23.5297503 5.90760194,23.3553375 C3.1807985,22.2967664 1.02768618,19.8836317 0.327152025,17.0713845 C-0.227222889,14.8422107 0.0972892561,12.5035515 0.485544858,10.2412775 C0.78816531,8.47805327 1.1525976,6.66772483 1.9291088,5.07063831 C1.95228824,5.02162449 1.9773993,4.97197413 2.00057874,4.92423341 C2.27229327,4.38317181 2.59551767,3.86948157 2.97797841,3.39271082 C3.01403532,3.34942589 3.04944835,3.30486788 3.086793,3.26094641 C4.41445975,1.68868507 6.38084882,0.683583585 8.44059952,0.424510562 C8.81018279,0.376769833 9.18427318,0.354490826 9.5577197,0.356287464 C12.0636746,0.372950575 14.5181196,1.48562783 16.2578653,3.26858492 C16.6589984,3.67979174 17.0221429,4.12600842 17.3453673,4.59832336 C18.4257867,6.1705847 19.0657968,8.04011165 19.2177509,9.93764649 C20.2125351,9.33738639 21.5666007,9.31319776 22.5749063,9.89245194 C22.642513,9.93128106 22.708188,9.97201982 22.7712876,10.0153047 C23.6662715,10.625113 24.2264413,11.6964149 24.1948915,12.7708996" id="Fill-4" fill="#F8C49E" mask="url(#mask-6)"></path>
                                                </g>
                                                <path d="M35.0992722,13.8761293 L34.714236,13.7921056 L34.7361277,11.203285 L35.1385485,11.2064678 L35.1224517,13.1447414 C35.3272034,12.9327725 35.5776701,12.7647252 35.8545356,12.6565128 C36.3477425,12.4636403 36.9130633,12.4687326 37.4030509,12.6698802 L37.2491652,13.0371656 C36.8551147,12.8754836 36.4005402,12.8716644 36.0019826,13.0263444 C35.6047128,13.1816609 35.2750496,13.4916573 35.0992722,13.8761293" id="Fill-7" fill="#000000"></path>
                                                <path d="M22.1111243,16.0676834 C22.0023097,16.0676834 21.8909197,16.0460409 21.7827489,16.0021195 C21.5696269,15.9168227 21.3970688,15.7564139 21.3326815,15.5851838 C21.2341689,15.322928 21.2605677,15.0409395 21.2811716,14.8149667 L21.6114786,11.2216811 L22.0119678,11.2573276 L21.6816608,14.8506131 C21.6642763,15.0466683 21.6430284,15.2694584 21.7099913,15.4470539 C21.7305952,15.5017966 21.8162304,15.5864569 21.9353469,15.6341976 C22.0184066,15.6679344 22.1471812,15.6953057 22.280463,15.632288 L22.4523772,15.9919348 C22.3448503,16.0422217 22.229597,16.0676834 22.1111243,16.0676834" id="Fill-9" fill="#000000"></path>
                                                <path d="M23.4460668,17.7637524 C23.4228874,17.7637524 23.4003518,17.7631158 23.3778163,17.7624793 L23.3926254,17.3646399 C23.8188695,17.3786438 24.2541278,17.2086868 24.5522412,16.9056923 C24.8509984,16.6020613 25.0126106,16.169212 24.984924,15.7465474 L25.3860571,15.7210857 C25.4208263,16.2532357 25.2173623,16.8000262 24.8406964,17.1832251 C24.4801274,17.5498739 23.963741,17.7637524 23.4460668,17.7637524" id="Fill-11" fill="#000000"></path>
                                                <path d="M25.0683056,11.611882 C25.1062942,11.9231516 25.3071826,12.1554898 25.5170853,12.1300281 C25.726988,12.1052029 25.8667085,11.8327625 25.82872,11.5208564 C25.7907315,11.2095868 25.589843,10.9772486 25.3792964,11.0027103 C25.1693937,11.0281721 25.0296732,11.3006125 25.0683056,11.611882" id="Fill-13" fill="#000000"></path>
                                                <path d="M18.4006756,11.7728638 C18.4386642,12.0841333 18.6395526,12.3164715 18.8494553,12.2910098 C19.059358,12.2661846 19.1990785,11.9931077 19.16109,11.6818381 C19.1231015,11.3705686 18.922213,11.1382303 18.7116665,11.1630555 C18.5017638,11.1885172 18.3620432,11.4609577 18.4006756,11.7728638" id="Fill-15" fill="#000000"></path>
                                                <path d="M26.0486027,9.79919838 C26.2295311,9.80047147 26.4703398,9.83866405 26.6364591,9.76291542 C26.9629028,9.61332781 26.9609712,9.26959456 26.6583508,9.06208152 C26.3467161,8.84756651 25.8927854,8.8030085 25.5270654,8.77945641 C25.2785303,8.76354283 24.9083031,8.7527216 24.6971127,8.91694971 C24.4942926,9.0735393 24.4517969,9.35107207 24.5882981,9.57004288 C24.8864114,10.0461771 25.5914527,9.79537912 26.0486027,9.79919838" id="Fill-17" fill="#000000"></path>
                                                <path d="M18.2164635,10.1762228 C18.0368228,10.194046 17.8005213,10.2538811 17.6273194,10.1927729 C17.2886421,10.0731029 17.2590239,9.73127924 17.5403965,9.49766793 C17.8314273,9.25514503 18.2795631,9.16984826 18.6414199,9.11383247 C18.8880233,9.07563989 19.2543873,9.03171842 19.4810307,9.17557715 C19.6973721,9.31434354 19.7649788,9.58614742 19.6490816,9.816576 C19.3966833,10.3175354 18.671038,10.1310283 18.2164635,10.1762228" id="Fill-19" fill="#000000"></path>
                                                <g id="Group-23" transform="translate(0.000000, 27.750246)">
                                                    <mask id="mask-8" fill="white">
                                                        <use xlink:href="#path-7"></use>
                                                    </mask>
                                                    <g id="Clip-22"></g>
                                                    <path d="M57.9536195,35.9039957 C57.9536195,35.9039957 49.4821784,4.16213981 45.1643641,2.19203906 C40.8465497,0.22130177 32.8689595,0.111816365 32.8689595,0.111816365 C32.8689595,0.111816365 23.9210522,8.14371661 22.3068618,0.570127364 C22.3068618,0.570127364 15.8243454,0.878850744 13.1670803,2.08255366 C13.1670803,2.08255366 1.93149113,17.1444354 -0.000128774661,35.6041839 C7.60873879,36.4932346 13.3240334,36.9476453 17.145755,36.9674162 C26.2026441,37.0142702 39.8052656,36.6597967 57.9536195,35.9039957 Z" id="Fill-21" fill="url(#linearGradient-9)" mask="url(#mask-8)"></path>
                                                    <path d="" id="Path" stroke="#979797" stroke-width="0.55" mask="url(#mask-8)"></path>
                                                    <path d="M19.7051275,0.605096805 C15.7694361,1.04960378 13.6608669,1.65825117 13.21624,2.01354499 C12.7716132,2.3688388 9.94950736,6.028733 7.22663903,12.027954" id="Path-4" stroke="#161616" stroke-width="0.55" mask="url(#mask-8)"></path>
                                                </g>
                                                <path d="M34.0265793,9.93783746 C32.8688951,9.76278812 31.9475124,8.79587922 31.4349892,7.7532217 C30.9211783,6.71183726 30.7711559,5.53614224 30.6623413,4.38208969 C30.9701127,4.63161456 31.4324138,4.61379136 31.8303275,4.61124519 C31.9384982,4.61060864 32.0473128,4.60487976 32.1548396,4.59851433 C33.235259,6.17077567 33.8752691,8.04030261 34.0265793,9.93783746" id="Fill-24" fill="#000000"></path>
                                                <path d="M15.9842835,3.14382249 C15.4897888,3.47991722 15.3107921,4.16992989 15.5033102,4.7319974 C15.6958283,5.29406492 16.2083514,5.71609296 16.7813987,5.88986922 C17.3550898,6.06428201 17.9809346,6.01335857 18.5546258,5.83894577 C19.463131,5.56268609 20.2724797,4.97642994 20.8126894,4.20303013 C21.0187289,5.08400571 21.8203511,5.9146944 22.7275686,6.0330914 C23.6341422,6.15148841 24.590938,5.66516952 25.0216892,4.86758107" id="Fill-26" fill="#000000"></path>
                                                <g id="Group-30" transform="translate(17.765050, 0.000000)">
                                                    <mask id="mask-11" fill="white">
                                                        <use xlink:href="#path-10"></use>
                                                    </mask>
                                                    <g id="Clip-29"></g>
                                                    <path d="M15.3183195,6.25378088 L0.0134510986,3.40397763 C0.0160265919,3.40079492 0.0179582118,3.39633911 0.0218214516,3.39251986 C0.0578783566,3.34987147 0.0932913882,3.30531346 0.13063604,3.26075544 C1.45894666,1.6884941 3.42469186,0.684029165 5.48508643,0.424319599 C5.8546697,0.37657887 6.22811622,0.354299863 6.60156274,0.356209493 C9.10751763,0.373396155 11.5619627,1.48543687 13.3017083,3.2690305 C14.1477578,4.13600214 14.8231809,5.15383448 15.3183195,6.25378088" id="Fill-28" fill="#42D8F3" mask="url(#mask-11)"></path>
                                                </g>
                                                <polygon id="Fill-31" fill="#42D8F3" points="33.0462822 6.44926325 9.15729489 2.00046385 9.2319842 1.60898988 33.1203276 6.05842582"></polygon>
                                            </g>
                                        </g>
                                    </g>
                                </g>
                            </g>
                        </g>
                    </g>
                </g>
            </g>
        </g>
    </g>
</svg>