<svg xmlns="http://www.w3.org/2000/svg" xmlns:xlink="http://www.w3.org/1999/xlink" width="52" height="64" viewBox="0 0 52 64">
    <defs>
        <path id="prefix__a" d="M25 68c13.807 0 25-11.101 25-24.796 0-4.37-1.14-8.475-3.14-12.04-2.44-4.35 3.019-13.99-1.477-21.293C42.013 4.398 29.028.322 25 .322 10.672 5.487 0 29.51 0 43.204 0 56.9 11.193 68 25 68z"/>
        <path id="prefix__c" d="M0.03 0.345L23.617 0.345 23.617 23.213 0.03 23.213z"/>
        <path id="prefix__e" d="M0 0.108L56.566 0.108 56.566 37.388 0 37.388z"/>
        <path id="prefix__h" d="M0.013 0.345L14.952 0.345 14.952 6.054 0.013 6.054z"/>
        <linearGradient id="prefix__f" x1="-7.896%" x2="116.963%" y1="60.589%" y2="56.75%">
            <stop offset="0%" stop-color="#FFED9F"/>
            <stop offset="100%" stop-color="#FFCA00"/>
        </linearGradient>
    </defs>
    <g fill="none" fill-rule="evenodd" transform="translate(1 -6)">
        <circle cx="25" cy="44" r="25" stroke="#979797" stroke-width=".5"/>
        <mask id="prefix__b" fill="#fff">
            <use xlink:href="#prefix__a"/>
        </mask>
        <g mask="url(#prefix__b)">
            <g>
                <path fill="#F8C49E" d="M22.177 33.812L34.091 32.435 29.83 18.033 21.591 18.986 21.659 20.729 21.872 26.096z" transform="translate(8.333 6.011)"/>
                <path fill="#EFA36C" d="M21.673 26.037c1.15-.134 2.275-.477 3.296-1.014 1.693-.892 3.092-2.317 3.935-4.012-2.393-.082-4.779-.252-7.17-.334-.09-.003-.178-.007-.269-.005l.208 5.365z" transform="translate(8.333 6.011)"/>
                <g transform="translate(8.333 6.011) translate(14.454)">
                    <mask id="prefix__d" fill="#fff">
                        <use xlink:href="#prefix__c"/>
                    </mask>
                    <path fill="#F8C49E" d="M23.616 12.363c-.036 1.116-.73 2.189-1.747 2.692-1.016.502-2.591.51-3.527-.126-.203 2.07-1.16 4.057-2.632 5.551-.512.52-1.084.981-1.71 1.366-.012.008-.027.015-.039.022-2.02 1.228-4.54 1.635-6.859 1.14-.455-.098-.901-.23-1.336-.398-2.661-1.025-4.763-3.361-5.447-6.084-.54-2.158-.224-4.422.155-6.612.295-1.707.651-3.46 1.409-5.005l.07-.142c.265-.524.58-1.021.954-1.483l.106-.127C4.309 1.635 6.228.662 8.238.41 8.6.365 8.964.343 9.328.345c2.447.016 4.843 1.093 6.54 2.82.392.397.747.83 1.062 1.287 1.055 1.522 1.68 3.331 1.828 5.168.97-.58 2.292-.604 3.276-.043.066.037.13.077.192.119.874.59 1.42 1.627 1.39 2.667" mask="url(#prefix__d)"/>
                </g>
                <path fill="#000" d="M34.259 13.433l-.376-.081.021-2.506.393.003-.016 1.876c.2-.205.445-.368.715-.473.481-.186 1.033-.181 1.511.013l-.15.356c-.384-.157-.828-.16-1.217-.01-.388.15-.71.45-.881.822M21.582 15.555c-.107 0-.215-.021-.32-.064-.209-.082-.377-.238-.44-.403-.096-.254-.07-.527-.05-.746l.322-3.479.39.035-.321 3.479c-.017.19-.038.405.027.577.02.053.104.135.22.181.081.033.207.06.337-.002l.168.348c-.105.05-.218.074-.333.074M22.885 17.197l-.067-.002.015-.385c.416.014.84-.15 1.131-.444.292-.294.45-.713.423-1.122l.391-.025c.034.515-.164 1.045-.532 1.416-.352.355-.856.562-1.361.562M24.468 11.241c.037.302.233.526.438.502.205-.024.341-.288.304-.59-.037-.301-.233-.526-.438-.502-.205.025-.342.289-.304.59M17.96 11.397c.037.301.233.526.438.502.205-.024.341-.289.304-.59-.037-.301-.233-.526-.438-.502-.205.024-.342.288-.304.59M25.425 9.486c.176.002.412.039.574-.035.318-.145.316-.477.021-.678-.304-.208-.747-.251-1.104-.274-.243-.015-.604-.026-.81.133-.198.152-.24.42-.106.633.29.46.979.218 1.425.221M17.78 9.851c-.175.018-.406.076-.575.016-.33-.115-.36-.446-.085-.673.284-.234.722-.317 1.075-.371.24-.037.598-.08.82.06.21.134.277.397.164.62-.247.485-.955.305-1.399.348" transform="translate(8.333 6.011)"/>
                <g transform="translate(8.333 6.011) translate(0 26.864)">
                    <mask id="prefix__g" fill="#fff">
                        <use xlink:href="#prefix__e"/>
                    </mask>
                    <path fill="url(#prefix__f)" d="M56.566 34.758S48.297 4.029 44.083 2.122C39.869.214 32.082.108 32.082.108s-8.734 7.776-10.31.444c0 0-6.327.299-8.92 1.464 0 0-10.967 14.581-12.852 32.452 7.427.86 13.005 1.3 16.735 1.32 8.84.045 22.117-.299 39.831-1.03z" mask="url(#prefix__g)"/>
                    <path stroke="#161616" stroke-width=".9" d="M12.121 34.89L17.137 21.79" mask="url(#prefix__g)"/>
                    <path stroke="#161616" stroke-width=".9" d="M19.233.586c-3.841.43-5.9 1.02-6.333 1.363-.434.344-3.189 3.887-5.846 9.695" mask="url(#prefix__g)"/>
                </g>
                <path fill="#000" d="M33.212 9.62c-1.13-.169-2.03-1.105-2.53-2.114-.501-1.008-.648-2.147-.754-3.264.3.242.752.224 1.14.222.106 0 .212-.006.317-.012 1.054 1.522 1.68 3.332 1.827 5.169M15.602 3.043c-.483.326-.658.994-.47 1.538.188.544.688.953 1.248 1.12.56.17 1.17.12 1.73-.048.887-.268 1.677-.835 2.204-1.584.201.853.984 1.657 1.87 1.771.884.115 1.818-.356 2.239-1.128" transform="translate(8.333 6.011)"/>
                <g transform="translate(8.333 6.011) translate(17.34)">
                    <mask id="prefix__i" fill="#fff">
                        <use xlink:href="#prefix__h"/>
                    </mask>
                    <path fill="#42D8F3" d="M14.952 6.054L.013 3.295l.008-.01.107-.128C1.424 1.635 3.343.662 5.354.41c.36-.046.725-.068 1.09-.066 2.445.016 4.841 1.093 6.54 2.82.825.839 1.484 1.824 1.968 2.89" mask="url(#prefix__i)"/>
                </g>
                <path fill="#42D8F3" d="M32.255 6.243L8.938 1.937 9.011 1.558 32.327 5.865z" transform="translate(8.333 6.011)"/>
            </g>
        </g>
    </g>
</svg>
