<svg xmlns="http://www.w3.org/2000/svg" width="28" height="28" viewBox="0 0 28 28">
    <g fill="none" fill-rule="evenodd" transform="translate(2 2)">
        <path fill="#FFF" fill-rule="nonzero" d="M15.4 14.426c0 .726-.252 1.334-.755 1.823-.503.488-1.169.775-1.997.859v1.173c0 .121-.034.221-.1.3-.067.08-.159.119-.274.119-.107 0-.196-.04-.268-.119-.07-.079-.106-.179-.106-.3v-1.16c-.544-.027-1.083-.14-1.617-.335s-.975-.475-1.323-.838c-.107-.102-.16-.237-.16-.405 0-.102.024-.19.073-.265.05-.075.114-.112.194-.112.071 0 .151.03.24.09l.067.05c.918.707 1.853 1.061 2.806 1.061.748 0 1.334-.17 1.757-.51.423-.34.635-.817.635-1.431 0-.363-.107-.66-.321-.887-.214-.228-.481-.403-.802-.524-.285-.108-.661-.226-1.13-.356l-.179-.05c-.677-.176-1.222-.35-1.637-.523-.414-.172-.766-.438-1.055-.796-.29-.359-.434-.84-.434-1.446 0-.503.12-.957.36-1.362.241-.405.582-.73 1.023-.978.44-.246.941-.388 1.503-.426V5.92c0-.121.033-.221.1-.3.067-.08.158-.119.274-.119.107 0 .193.04.26.119.067.079.1.179.1.3v1.16c.49.046.962.167 1.417.363.454.195.832.465 1.135.81.116.12.174.256.174.405 0 .102-.029.19-.087.265-.058.075-.122.112-.194.112-.085 0-.168-.03-.248-.09l-.059-.05c-.419-.372-.82-.642-1.202-.81-.383-.167-.833-.251-1.35-.251-.73 0-1.31.179-1.737.537-.427.359-.64.846-.64 1.46 0 .42.115.76.346 1.02.232.26.52.456.862.587.343.13.8.27 1.37.419.65.167 1.173.332 1.57.495.396.163.73.41 1.002.74.271.331.407.776.407 1.335z"/>
        <circle cx="12.1" cy="12.1" r="12.65" stroke="#FFF" stroke-width="1.1"/>
    </g>
</svg>
