<svg xmlns="http://www.w3.org/2000/svg" width="101" height="185" viewBox="0 0 101 185">
    <g fill="#2C5A91" opacity=".11">
        <path d="M173.8 0H11.2C5.025 0 0 5.145 0 11.47v78.06C0 95.855 5.024 101 11.2 101h162.6c6.175 0 11.2-5.145 11.2-11.47V11.47C185 5.145 179.975 0 173.8 0zM7.914 34.246c13.382-1.53 24.033-12.438 25.528-26.141h118.123c1.494 13.7 12.141 24.605 25.519 26.14v31.217c-13.796 1.582-24.686 13.131-25.63 27.433H33.553C32.609 78.59 21.715 67.04 7.915 65.46V34.246zm169.17-22.776v14.604c-9.009-1.434-16.144-8.743-17.54-17.97h14.254c1.812 0 3.286 1.51 3.286 3.366zM11.2 8.105h14.263c-1.397 9.23-8.536 16.54-17.55 17.97V11.47c0-1.856 1.475-3.365 3.287-3.365zM7.915 89.53v-15.9c9.43 1.497 16.806 9.432 17.703 19.265H11.2c-1.812 0-3.286-1.51-3.286-3.365zm165.884 3.365h-14.408c.896-9.83 8.269-17.763 17.694-19.263V89.53c0 1.856-1.474 3.365-3.286 3.365z" transform="rotate(90 50.5 50.5)"/>
        <path d="M93 82.5c17.92 0 32.5-14.804 32.5-33 0-18.196-14.58-33-32.5-33s-32.5 14.804-32.5 33c0 18.196 14.58 33 32.5 33zm0-57.95c13.55 0 24.572 11.192 24.572 24.95 0 13.757-11.023 24.95-24.572 24.95-13.55 0-24.572-11.193-24.572-24.95 0-13.758 11.023-24.95 24.572-24.95zM39 64.5c7.444 0 13.5-6.28 13.5-14s-6.056-14-13.5-14-13.5 6.28-13.5 14 6.056 14 13.5 14zm0-19.833c3.101 0 5.625 2.616 5.625 5.833 0 3.216-2.524 5.833-5.625 5.833-3.102 0-5.625-2.617-5.625-5.833 0-3.217 2.523-5.833 5.625-5.833zM146 64.5c7.444 0 13.5-6.28 13.5-14s-6.056-14-13.5-14-13.5 6.28-13.5 14 6.056 14 13.5 14zm0-19.833c3.102 0 5.625 2.616 5.625 5.833 0 3.216-2.523 5.833-5.625 5.833s-5.625-2.617-5.625-5.833c0-3.217 2.523-5.833 5.625-5.833z" transform="rotate(90 50.5 50.5)"/>
    </g>
</svg>
