<?xml version="1.0" encoding="UTF-8"?>
<svg width="56px" height="38px" viewBox="0 0 56 38" version="1.1" xmlns="http://www.w3.org/2000/svg" xmlns:xlink="http://www.w3.org/1999/xlink">
    <!-- Generator: Sketch 59 (86127) - https://sketch.com -->
    <title>money-1 copy</title>
    <desc>Created with Sketch.</desc>
    <g id="Home" stroke="none" stroke-width="1" fill="none" fill-rule="evenodd">
        <g id="Normal-Credit" transform="translate(-99.000000, -726.000000)" fill-rule="nonzero">
            <g id="Form" transform="translate(72.000000, 376.000000)">
                <g id="Inputs" transform="translate(0.000000, 51.000000)">
                    <g id="Payment-methods" transform="translate(2.000000, 220.000000)">
                        <g id="Group-7" transform="translate(0.000000, 43.000000)">
                            <g id="Adelantos">
                                <g id="money-1-copy" transform="translate(53.000000, 68.000000) rotate(-270.000000) translate(-53.000000, -68.000000) translate(21.500000, 39.500000)">
                                    <path d="M14.6214919,0.561869264 C14.6470207,0.567793247 14.6725125,0.57384625 14.6978013,0.580120297 L21.3710856,2.49365379 L44.4885159,14.3206441 L50.5586697,12.5801203 L50.5586697,12.5801203 L50.6349791,12.5618693 C52.711704,12.0886921 54.7789278,13.3884438 55.2522709,15.4652608 L55.2522709,15.4652608 L56.7175159,20.5766441 L60.6857908,22.6070369 L58.9925159,28.5106441 L61.9399267,38.7878883 L61.9399267,38.7878883 L61.9620617,38.8577781 C62.5742867,40.8574907 61.4494707,42.9748053 59.4497581,43.5870303 L59.4497581,43.5870303 L14.9617119,56.3437723 C12.8702857,56.9059191 10.7051542,55.7307251 10.0371201,53.6707786 L10.0371201,53.6707786 L4.57068018,34.6070369 L8.79751586,32.4446441 L5.80671292,31.5870303 C3.80700033,30.9748053 2.6821843,28.8574907 3.29440925,26.8577781 C3.30152955,26.8344075 3.30890788,26.8111109 3.31654425,26.7878883 L10.0042001,3.46526075 C10.4775432,1.38844375 12.5447669,0.0886921259 14.6214919,0.561869264 Z" id="Combined-Shape" fill="#1D88C0"></path>
                                    <path d="M43.4709414,46.5145293 C43.4709414,40.9997061 39.0002939,36.5290586 33.4854707,36.5290586 C27.9706475,36.5290586 23.5,40.9997061 23.5,46.5145293 C23.5,52.0293525 27.9706475,56.5 33.4854707,56.5 C39.0002939,56.5 43.4709414,52.0293525 43.4709414,46.5145293 Z" id="Oval" fill="#FDCD15"></path>
                                    <path d="M35.1871132,43.4728503 C35.8327602,43.4728503 36.3775167,43.6862564 36.8213989,44.113075 C37.2652812,44.5398937 37.5437123,45.1147443 37.6567005,45.8376443 L38.4193672,45.8376443 C38.6049907,45.8376443 38.7563119,45.8914765 38.8733355,45.9991425 C38.990359,46.1068084 39.0488698,46.2490792 39.0488698,46.4259589 C39.0488698,46.6028387 38.990359,46.7451095 38.8733355,46.8527754 C38.7563119,46.9604414 38.6049907,47.0142735 38.4193672,47.0142735 L37.6809122,47.0142735 C37.6405592,47.4526278 37.5437136,47.87944 37.3903725,48.294723 C37.2589372,48.6506798 37.0919277,48.9642569 36.8893401,49.235461 L36.7850815,49.367532 C36.7124462,49.4675075 36.6317415,49.5367203 36.5429651,49.5751724 C36.4541886,49.6136246 36.3452373,49.6328503 36.2161079,49.6328503 C36.0466256,49.6328503 35.897322,49.5847859 35.7681926,49.4886556 C35.6390632,49.3925253 35.5744995,49.2829383 35.5744995,49.1598915 C35.5744995,49.0829873 35.5886228,49.0118519 35.6168698,48.9464833 C35.6451169,48.8811147 35.6915221,48.7945987 35.7560868,48.6869327 C35.9982044,48.3331732 36.1757546,47.9851866 36.2887429,47.6429627 C36.4017311,47.3007388 36.4582243,46.9412168 36.4582243,46.5643859 C36.4582243,46.0491274 36.3533083,45.6511539 36.143473,45.3704533 C35.9336378,45.0897528 35.6309953,44.9494046 35.2355365,44.9494046 C35.0014895,44.9494046 34.8118335,45.0263077 34.666563,45.1801162 C34.5212924,45.3339248 34.4062883,45.5261825 34.3215471,45.7568953 L34.2553433,45.9472325 L34.1588332,46.2548473 L34.1588332,46.2548473 L34.0249545,46.725884 C33.8716133,47.3026659 33.7162569,47.7717749 33.5588804,48.1332249 C33.401504,48.4946749 33.1614076,48.8061324 32.8385841,49.0676069 C32.5157607,49.3290813 32.0799555,49.4598166 31.5311556,49.4598166 C30.877438,49.4598166 30.3205759,49.2367976 29.8605524,48.7907529 C29.4005289,48.3447083 29.1140274,47.7602447 29.0010392,47.0373447 L28.2383725,47.0373447 C28.052749,47.0373447 27.9014278,46.9835125 27.7844042,46.8758466 C27.6673807,46.7681806 27.6088698,46.6259099 27.6088698,46.4490301 C27.6088698,46.2721503 27.6673807,46.1298796 27.7844042,46.0222136 C27.9014278,45.9145477 28.052749,45.8607155 28.2383725,45.8607155 L28.9889333,45.8607155 C29.093851,45.0839825 29.388423,44.4149255 29.8726582,43.8535245 C30.0179288,43.6689543 30.2075847,43.5766706 30.4416318,43.5766706 C30.6111141,43.5766706 30.7604177,43.624735 30.8895471,43.7208653 C31.0186765,43.8169956 31.0832402,43.9304277 31.0832402,44.0611649 C31.0832402,44.1303788 31.0711345,44.197669 31.0469228,44.2630376 C31.022711,44.3284062 30.9742882,44.4149222 30.9016529,44.5225882 C30.6676059,44.8378956 30.4920733,45.1358951 30.3750497,45.4165956 C30.2580262,45.6972962 30.1995154,46.0299021 30.1995154,46.4144234 C30.1995154,46.8912297 30.3104843,47.2719001 30.5324254,47.5564458 C30.7543665,47.8409916 31.0590266,47.9832623 31.4464148,47.9832623 C31.7127442,47.9832623 31.9286292,47.9025141 32.0940762,47.7410151 C32.2595232,47.5795162 32.3866331,47.375723 32.4754095,47.1296294 L32.554468,46.8970342 L32.6691025,46.519526 L32.6691025,46.519526 L32.778055,46.1260338 C32.9233256,45.5646328 33.0726292,45.1070593 33.2259704,44.7532998 C33.3793115,44.3995402 33.6113374,44.0976955 33.922055,43.8477567 C34.2327726,43.5978179 34.6544545,43.4728503 35.1871132,43.4728503 Z" id="$" fill="#FFFFFF"></path>
                                    <path d="M43.4709414,11.5145293 C43.4709414,5.99970609 39.0002939,1.52905857 33.4854707,1.52905857 C27.9706475,1.52905857 23.5,5.99970609 23.5,11.5145293 C23.5,17.0293525 27.9706475,21.5 33.4854707,21.5 C39.0002939,21.5 43.4709414,17.0293525 43.4709414,11.5145293 Z" id="Oval" fill="#FDCD15"></path>
                                    <path d="M35.1871132,8.47285033 C35.8327602,8.47285033 36.3775167,8.68625643 36.8213989,9.11307504 C37.2652812,9.53989366 37.5437123,10.1147443 37.6567005,10.8376443 L38.4193672,10.8376443 C38.6049907,10.8376443 38.7563119,10.8914765 38.8733355,10.9991425 C38.990359,11.1068084 39.0488698,11.2490792 39.0488698,11.4259589 C39.0488698,11.6028387 38.990359,11.7451095 38.8733355,11.8527754 C38.7563119,11.9604414 38.6049907,12.0142735 38.4193672,12.0142735 L37.6809122,12.0142735 C37.6405592,12.4526278 37.5437136,12.87944 37.3903725,13.294723 C37.2589372,13.6506798 37.0919277,13.9642569 36.8893401,14.235461 L36.7850815,14.367532 C36.7124462,14.4675075 36.6317415,14.5367203 36.5429651,14.5751724 C36.4541886,14.6136246 36.3452373,14.6328503 36.2161079,14.6328503 C36.0466256,14.6328503 35.897322,14.5847859 35.7681926,14.4886556 C35.6390632,14.3925253 35.5744995,14.2829383 35.5744995,14.1598915 C35.5744995,14.0829873 35.5886228,14.0118519 35.6168698,13.9464833 C35.6451169,13.8811147 35.6915221,13.7945987 35.7560868,13.6869327 C35.9982044,13.3331732 36.1757546,12.9851866 36.2887429,12.6429627 C36.4017311,12.3007388 36.4582243,11.9412168 36.4582243,11.5643859 C36.4582243,11.0491274 36.3533083,10.6511539 36.143473,10.3704533 C35.9336378,10.0897528 35.6309953,9.94940463 35.2355365,9.94940463 C35.0014895,9.94940463 34.8118335,10.0263077 34.666563,10.1801162 C34.5212924,10.3339248 34.4062883,10.5261825 34.3215471,10.7568953 L34.2553433,10.9472325 L34.1588332,11.2548473 L34.1588332,11.2548473 L34.0249545,11.725884 C33.8716133,12.3026659 33.7162569,12.7717749 33.5588804,13.1332249 C33.401504,13.4946749 33.1614076,13.8061324 32.8385841,14.0676069 C32.5157607,14.3290813 32.0799555,14.4598166 31.5311556,14.4598166 C30.877438,14.4598166 30.3205759,14.2367976 29.8605524,13.7907529 C29.4005289,13.3447083 29.1140274,12.7602447 29.0010392,12.0373447 L28.2383725,12.0373447 C28.052749,12.0373447 27.9014278,11.9835125 27.7844042,11.8758466 C27.6673807,11.7681806 27.6088698,11.6259099 27.6088698,11.4490301 C27.6088698,11.2721503 27.6673807,11.1298796 27.7844042,11.0222136 C27.9014278,10.9145477 28.052749,10.8607155 28.2383725,10.8607155 L28.9889333,10.8607155 C29.093851,10.0839825 29.388423,9.41492554 29.8726582,8.85352448 C30.0179288,8.66895427 30.2075847,8.57667055 30.4416318,8.57667055 C30.6111141,8.57667055 30.7604177,8.62473499 30.8895471,8.72086531 C31.0186765,8.81699563 31.0832402,8.9304277 31.0832402,9.06116493 C31.0832402,9.13037876 31.0711345,9.19766897 31.0469228,9.26303759 C31.022711,9.32840621 30.9742882,9.4149222 30.9016529,9.52258815 C30.6676059,9.8378956 30.4920733,10.1358951 30.3750497,10.4165956 C30.2580262,10.6972962 30.1995154,11.0299021 30.1995154,11.4144234 C30.1995154,11.8912297 30.3104843,12.2719001 30.5324254,12.5564458 C30.7543665,12.8409916 31.0590266,12.9832623 31.4464148,12.9832623 C31.7127442,12.9832623 31.9286292,12.9025141 32.0940762,12.7410151 C32.2595232,12.5795162 32.3866331,12.375723 32.4754095,12.1296294 L32.554468,11.8970342 L32.6691025,11.519526 L32.6691025,11.519526 L32.778055,11.1260338 C32.9233256,10.5646328 33.0726292,10.1070593 33.2259704,9.75329976 C33.3793115,9.39954019 33.6113374,9.09769552 33.922055,8.84775669 C34.2327726,8.59781786 34.6544545,8.47285033 35.1871132,8.47285033 Z" id="$" fill="#FFFFFF"></path>
                                    <path d="M54.0651939,21.6426356 L54.0651939,41.2068126 C54.0651939,43.3755247 52.307058,45.1336606 50.138346,45.1336606 L3.85745662,45.1336606 C1.72739967,45.1340632 0,43.407603 0,41.2775461 C0,41.2539235 0,41.2304352 0.000671095445,41.2068126 L0.000671095445,17.014493 C-0.0381182213,14.8848387 1.65693465,13.1269713 3.78658894,13.0883162 C3.8102115,13.0876451 3.83369984,13.0876451 3.8573224,13.0876451 L50.1382118,13.0876451 C52.3069238,13.0876451 54.0651939,14.8457809 54.0651939,17.014493 L54.0651939,21.6426356 L54.0651939,21.6426356 Z" id="Path" fill="#56C5FF"></path>
                                    <circle id="Oval" fill="#1D88C0" cx="26.9979013" cy="29.1457511" r="12.4818384"></circle>
                                    <circle id="Oval" fill="#1D88C0" cx="7.0129474" cy="19.9596624" r="2.80491052"></circle>
                                    <path d="M30.8,31.2728042 C30.8,32.0798629 30.5332424,32.7608085 29.9997191,33.3156614 C29.4661958,33.8705142 28.7476325,34.2185531 27.8440075,34.3597884 L27.8440075,35.3131217 C27.8440075,35.5451511 27.7767173,35.7343026 27.6421348,35.880582 C27.5075524,36.0268614 27.329714,36.1 27.1086142,36.1 C26.8875145,36.1 26.7096761,36.0268614 26.5750936,35.880582 C26.4405112,35.7343026 26.373221,35.5451511 26.373221,35.3131217 L26.373221,34.3900529 C25.8252782,34.3396117 25.2917629,34.2185548 24.7726592,34.0268783 C24.3277131,33.8625842 23.9357418,33.6538223 23.5967367,33.4005879 L23.4316479,33.2702646 C23.3066785,33.1794704 23.2201625,33.0785896 23.1720974,32.967619 C23.1240322,32.8566485 23.1,32.7204594 23.1,32.5590476 C23.1,32.3471947 23.1600805,32.1605652 23.2802434,31.9991534 C23.4004063,31.8377417 23.53739,31.757037 23.6911985,31.757037 C23.7873288,31.757037 23.876248,31.7746912 23.9579588,31.81 C24.0396696,31.8453088 24.1478146,31.9033153 24.282397,31.9840212 C24.7245965,32.2866682 25.1595796,32.508606 25.5873596,32.6498413 C26.0151395,32.7910765 26.464542,32.8616931 26.9355805,32.8616931 C27.5796537,32.8616931 28.0771206,32.730548 28.4279963,32.468254 C28.7788719,32.2059599 28.9543071,31.8276568 28.9543071,31.3333333 C28.9543071,31.0407746 28.8581782,30.8037046 28.6659176,30.6221164 C28.473657,30.4405282 28.2333348,30.296773 27.9449438,30.1908466 L27.7070222,30.1080918 C27.5339888,30.0507153 27.332117,29.9889255 27.1014054,29.9227218 L26.7337079,29.8201058 C26.0127305,29.6284294 25.4263443,29.4342338 24.9745318,29.2375132 C24.5227193,29.0407927 24.1333974,28.7406722 23.8065543,28.3371429 C23.4797112,27.9336135 23.3162921,27.388857 23.3162921,26.7028571 C23.3162921,25.8857102 23.5950659,25.1896325 24.1526217,24.6146032 C24.7101776,24.0395738 25.440757,23.6814469 26.344382,23.5402116 L26.344382,22.5868783 C26.344382,22.3548489 26.4116722,22.1656974 26.5462547,22.019418 C26.6808371,21.8731386 26.8586755,21.8 27.0797753,21.8 C27.300875,21.8 27.4787134,21.8731386 27.6132959,22.019418 C27.7478783,22.1656974 27.8151685,22.3548489 27.8151685,22.5868783 L27.8151685,23.5250794 C28.7860848,23.6562264 29.622406,24.0244414 30.3241573,24.6297354 C30.5548701,24.8113237 30.6702247,25.0483936 30.6702247,25.3409524 C30.6702247,25.5528053 30.6101442,25.7394348 30.4899813,25.9008466 C30.3698184,26.0622583 30.2280283,26.142963 30.0646067,26.142963 C29.9780895,26.142963 29.8939767,26.1278308 29.8122659,26.0975661 C29.7305551,26.0673014 29.6224102,26.0067729 29.4878277,25.9159788 C29.0936934,25.6234201 28.721194,25.4040043 28.3703184,25.2577249 C28.0194427,25.1114455 27.6036853,25.0383069 27.1230337,25.0383069 C26.5270257,25.0383069 26.0511878,25.177018 25.6955056,25.4544444 C25.3398234,25.7318709 25.161985,26.112696 25.161985,26.5969312 C25.161985,26.9298429 25.2629203,27.1996991 25.464794,27.4065079 C25.6666677,27.6133167 25.9214092,27.772204 26.2290262,27.8831746 L26.5197701,27.9819977 C26.7316477,28.0503502 26.9796224,28.1236436 27.2636964,28.2018787 L27.4835206,28.2614815 C28.1852719,28.4430697 28.7572387,28.6296992 29.1994382,28.8213757 C29.6416377,29.0130521 30.0189435,29.3030845 30.331367,29.6914815 C30.6437906,30.0798785 30.8,30.6069808 30.8,31.2728042 Z" id="$" fill="#FFFFFF"></path>
                                </g>
                            </g>
                        </g>
                    </g>
                </g>
            </g>
        </g>
    </g>
</svg>