<svg xmlns="http://www.w3.org/2000/svg" width="34" height="34" viewBox="0 0 34 34">
    <g fill="#5C5C5C">
        <path d="M33.206 7.621H17.645l-3.107-3.107c-.102-.102-.24-.16-.385-.16H7.621c-.107 0-.213.033-.302.092L2.557 7.621H.544c-.3 0-.544.244-.544.544v7.621c0 .3.243.545.544.545h9.254v3.81c0 .3.244.544.545.544h22.863c.3 0 .544-.243.544-.544V8.165c0-.3-.243-.544-.544-.544zm-32.117 7.62V8.71h1.633c.107 0 .213-.032.302-.092l4.762-3.174h6.142l2.177 2.177h-5.762c-.301 0-.545.244-.545.544v4.355c0 .3.244.545.545.545h3.81c.6 0 1.089.488 1.089 1.088 0 .6-.488 1.089-1.089 1.089H1.09zm23.951-1.088c0 1.801-1.465 3.266-3.266 3.266s-3.266-1.465-3.266-3.266 1.465-3.266 3.266-3.266 3.266 1.465 3.266 3.266zm-.395-3.266h5.839v6.532h-5.839c.908-.798 1.484-1.965 1.484-3.266 0-1.3-.576-2.467-1.484-3.266zm-7.226 3.266c0 1.301.577 2.468 1.484 3.266h-5.838v-1.088h1.088c1.201 0 2.178-.977 2.178-2.178 0-1.2-.977-2.177-2.178-2.177h-1.088v-1.089h5.838c-.907.799-1.484 1.965-1.484 3.266zm15.242 5.444H10.887V16.33h1.089v1.633c0 .3.243.544.544.544h18.508c.301 0 .545-.244.545-.544v-7.621c0-.3-.244-.545-.545-.545H12.52c-.3 0-.544.244-.544.545v1.633h-1.089V8.71h21.774v10.887zM33.466 25.652l-3.742-2.047c-.83-.486-1.779-.742-2.743-.742h-.133c-.53 0-1.055.077-1.564.23l-3.865 1.159c-.66.197-1.132.738-1.25 1.394l-4.172-3.413c-.361-.296-.818-.459-1.286-.459h-.16c-1.119 0-2.03.911-2.03 2.032 0 .6.261 1.164.719 1.551l6.55 5.542c.097.084.223.13.351.13h8.554l4.222 2.638c.088.055.188.083.289.083.09 0 .181-.023.263-.068.174-.096.281-.278.281-.476v-7.077c0-.2-.108-.382-.284-.477zm-.805 6.572l-3.522-2.202c-.086-.054-.186-.082-.288-.082h-8.51l-6.398-5.414c-.212-.18-.334-.442-.334-.72 0-.52.423-.943.943-.943h.159c.216 0 .429.076.597.213l5.577 4.563c.098.08.22.123.345.123h4.355v-1.089h-3.65c-.39 0-.705-.315-.705-.703 0-.314.201-.585.502-.675l3.865-1.16c.406-.121.828-.183 1.252-.183h.133c.77 0 1.53.205 2.208.601l3.471 1.899v5.772zM25.413 3.783c.845.282 1.478.965 1.694 1.83l.127.507c.061.242.278.412.528.412s.467-.17.528-.412l.127-.507c.216-.864.85-1.548 1.695-1.83.222-.075.372-.283.372-.517 0-.234-.15-.442-.372-.516-.846-.282-1.479-.966-1.695-1.83L28.29.411C28.23.17 28.012 0 27.762 0s-.467.17-.528.412l-.127.507c-.216.864-.85 1.549-1.694 1.83-.223.075-.373.283-.373.517 0 .234.15.442.373.517zm2.35-1.618c.254.432.594.807 1 1.101-.406.295-.746.67-1 1.1-.256-.43-.595-.805-1-1.1.405-.294.744-.669 1-1.1zM8.337 23.435c-.845-.282-1.478-.966-1.694-1.83l-.127-.507c-.061-.243-.278-.413-.528-.413s-.467.17-.528.413l-.127.507c-.216.864-.85 1.548-1.695 1.83-.222.075-.372.283-.372.517 0 .234.15.442.372.516.846.282 1.479.966 1.695 1.83l.127.508c.06.242.278.412.528.412s.467-.17.528-.412l.127-.508c.216-.864.85-1.548 1.694-1.83.223-.074.373-.282.373-.516 0-.234-.15-.442-.373-.517zm-2.35 1.617c-.254-.432-.594-.806-1-1.1.406-.295.746-.67 1-1.101.256.432.595.806 1 1.1-.405.295-.744.67-1 1.101z"/>
    </g>
</svg>
