<?xml version="1.0" encoding="UTF-8"?>
<svg width="52px" height="52px" viewBox="0 0 52 52" version="1.1" xmlns="http://www.w3.org/2000/svg" xmlns:xlink="http://www.w3.org/1999/xlink">
    <!-- Generator: Sketch 59 (86127) - https://sketch.com -->
    <title>other_square</title>
    <desc>Created with Sketch.</desc>
    <defs>
        <rect id="path-1" x="0" y="0" width="51.7" height="51.7" rx="11"></rect>
        <path d="M25.61328,70.24248 C39.7591039,70.24248 52.4358549,61.7203536 58.3,39.53928 C59.6600968,34.3947269 51.1026067,17.7394113 46.4963806,10.1967147 C43.0439378,4.54333853 29.7397032,0.333104214 25.61328,0.333104214 C10.9335273,5.66817951 4.26325641e-14,30.4833761 4.26325641e-14,44.6292 C4.26325641e-14,58.7750239 11.4674561,70.24248 25.61328,70.24248 Z" id="path-3"></path>
        <polygon id="path-5" points="0.0311474484 0.35646411 24.1961581 0.35646411 24.1961581 23.9787522 0.0311474484 23.9787522"></polygon>
        <polygon id="path-7" points="0 0.111816365 57.9536195 0.111816365 57.9536195 38.6205557 0 38.6205557"></polygon>
        <linearGradient x1="12.4277343%" y1="50%" x2="109.946391%" y2="38.3410649%" id="linearGradient-9">
            <stop stop-color="#41B2ED" offset="0%"></stop>
            <stop stop-color="#7776F8" offset="100%"></stop>
        </linearGradient>
    </defs>
    <g id="Home" stroke="none" stroke-width="1" fill="none" fill-rule="evenodd">
        <g id="Reports_Shares" transform="translate(-30.000000, -711.000000)">
            <g id="Details" transform="translate(30.000000, 586.000000)">
                <g id="Partner_2" transform="translate(0.000000, 125.000000)">
                    <g id="other_square">
                        <mask id="mask-2" fill="white">
                            <use xlink:href="#path-1"></use>
                        </mask>
                        <use id="Mask" fill="#FFFFFF" xlink:href="#path-1"></use>
                        <g id="other" mask="url(#mask-2)">
                            <g transform="translate(-2.200000, 0.000000)">
                                <g id="male_image" stroke-width="1" fill="none" transform="translate(-0.000000, -0.000000)">
                                    <mask id="mask-4" fill="white">
                                        <use xlink:href="#path-3"></use>
                                    </mask>
                                    <g id="Mask"></g>
                                    <g id="Male" mask="url(#mask-4)">
                                        <g transform="translate(37.349760, 39.389280) scale(-1, 1) translate(-37.349760, -39.389280) translate(7.849760, 4.889280)" id="Group-33">
                                            <g transform="translate(29.312000, 34.500000) scale(-1, 1) translate(-29.312000, -34.500000) translate(0.312000, 0.000000)">
                                                <path d="M25.78224,0.39072 C31.8573722,0.39072 36.78224,5.31558775 36.78224,11.39072 L36.78224,27.67072 L36.78224,27.67072 L14.78224,27.67072 L14.78224,11.39072 C14.78224,5.31558775 19.7071078,0.39072 25.78224,0.39072 Z" id="hair-back" fill="#2A2A2A"></path>
                                                <polygon id="Fill-1" fill="#F8C49E" points="22.7208506 36.2472 34.9272 34.8243562 30.5615699 19.94784 22.12056 20.9320532 22.190484 22.7330488 22.4088314 28.2760917"></polygon>
                                                <path d="M22.2048079,28.2151534 C23.3824522,28.0770236 24.5349854,27.7231057 25.5812795,27.1680401 C27.3158742,26.2463258 28.7491361,24.7752748 29.6132141,23.0241448 C27.1613446,22.9394846 24.7172015,22.7637987 22.2666197,22.678502 C22.1758336,22.6753192 22.0844036,22.6721365 21.9916858,22.6734096 L22.2048079,28.2151534 Z" id="Fill-2" fill="#EFA36C"></path>
                                                <g id="Group-6" transform="translate(14.809086, 1.320000)">
                                                    <mask id="mask-6" fill="white">
                                                        <use xlink:href="#path-5"></use>
                                                    </mask>
                                                    <g id="Clip-5"></g>
                                                    <path d="M24.1948915,12.7708996 C24.1588346,13.9230425 23.4467107,15.0319005 22.4055676,15.5513197 C21.3644245,16.0701023 19.750878,16.0777408 18.7921506,15.4214649 C18.5835357,17.5602496 17.6029166,19.6118278 16.0949653,21.1554447 C15.5708525,21.6933236 14.9842839,22.1688213 14.34363,22.5660241 C14.3307525,22.5749357 14.3159434,22.5819377 14.3037098,22.5895762 C12.2330133,23.85757 9.6517252,24.2783249 7.27647659,23.7659078 C6.81031231,23.665334 6.35316227,23.5297503 5.90760194,23.3553375 C3.1807985,22.2967664 1.02768618,19.8836317 0.327152025,17.0713845 C-0.227222889,14.8422107 0.0972892561,12.5035515 0.485544858,10.2412775 C0.78816531,8.47805327 1.1525976,6.66772483 1.9291088,5.07063831 C1.95228824,5.02162449 1.9773993,4.97197413 2.00057874,4.92423341 C2.27229327,4.38317181 2.59551767,3.86948157 2.97797841,3.39271082 C3.01403532,3.34942589 3.04944835,3.30486788 3.086793,3.26094641 C4.41445975,1.68868507 6.38084882,0.683583585 8.44059952,0.424510562 C8.81018279,0.376769833 9.18427318,0.354490826 9.5577197,0.356287464 C12.0636746,0.372950575 14.5181196,1.48562783 16.2578653,3.26858492 C16.6589984,3.67979174 17.0221429,4.12600842 17.3453673,4.59832336 C18.4257867,6.1705847 19.0657968,8.04011165 19.2177509,9.93764649 C20.2125351,9.33738639 21.5666007,9.31319776 22.5749063,9.89245194 C22.642513,9.93128106 22.708188,9.97201982 22.7712876,10.0153047 C23.6662715,10.625113 24.2264413,11.6964149 24.1948915,12.7708996" id="Fill-4" fill="#F8C49E" mask="url(#mask-6)"></path>
                                                </g>
                                                <path d="M35.0992722,15.1961293 L34.714236,15.1121056 L34.7361277,12.523285 L35.1385485,12.5264678 L35.1224517,14.4647414 C35.3272034,14.2527725 35.5776701,14.0847252 35.8545356,13.9765128 C36.3477425,13.7836403 36.9130633,13.7887326 37.4030509,13.9898802 L37.2491652,14.3571656 C36.8551147,14.1954836 36.4005402,14.1916644 36.0019826,14.3463444 C35.6047128,14.5016609 35.2750496,14.8116573 35.0992722,15.1961293" id="Fill-7" fill="#000000"></path>
                                                <g id="Group-23" transform="translate(0.000000, 29.070246)">
                                                    <mask id="mask-8" fill="white">
                                                        <use xlink:href="#path-7"></use>
                                                    </mask>
                                                    <g id="Clip-22"></g>
                                                    <path d="M52.10304,35.340474 C48.5274469,14.4819276 45.3003788,3.39595416 42.4218359,2.08255366 C38.1040215,0.111816365 32.8689595,0.111816365 32.8689595,0.111816365 C32.8689595,0.111816365 23.9210522,8.14371661 22.3068618,0.570127364 C22.3068618,0.570127364 15.8243454,0.878850744 13.1670803,2.08255366 C13.1670803,2.08255366 1.93149113,17.1444354 -0.000128774661,35.6041839 C7.60873879,36.4932346 13.3240334,36.9476453 17.145755,36.9674162 C26.2026441,37.0142702 37.8550724,36.4719561 52.10304,35.340474 Z" id="Fill-21" fill="url(#linearGradient-9)" mask="url(#mask-8)"></path>
                                                    <path d="" id="Path" stroke="#979797" stroke-width="0.55" mask="url(#mask-8)"></path>
                                                    <path d="M19.7051275,0.605096805 C15.7694361,1.04960378 13.6608669,1.65825117 13.21624,2.01354499 C12.7716132,2.3688388 9.94950736,6.028733 7.22663903,12.027954" id="Path-4" stroke="#161616" stroke-width="0.55" mask="url(#mask-8)"></path>
                                                </g>
                                            </g>
                                        </g>
                                    </g>
                                </g>
                                <path d="M32.9045657,6.12546698 C35.4105206,6.14223057 37.8649656,7.25490783 39.6047113,9.03786492 C40.0058443,9.44907174 40.3689889,9.89528842 40.6922133,10.3676034 C41.7726327,11.9398647 42.4126427,13.8093917 42.5645968,15.7069265 C43.5593811,15.1066664 43.3917165,14.5635963 44.4000221,15.1428505 C44.4676288,15.1816797 44.5333039,15.2224184 44.5964034,15.2657033 C44.7832761,15.3930313 45.0218952,15.582284 45.2822171,15.8118316 C44.5548595,16.6660724 43.5505086,17.1993794 42.2700027,17.412565 C37.9756106,18.1275189 29.9491678,14.8086876 25.0304221,11.827299 C25.1064183,11.6420435 25.1885777,11.4596309 25.2759548,11.2799183 C25.2991342,11.2309045 25.3242453,11.1812541 25.3474247,11.1335134 C25.6191392,10.5924518 25.9423636,10.0787616 26.3248244,9.60199082 C26.3608813,9.55870589 26.3962943,9.51414788 26.433639,9.47022641 C27.7613057,7.89796507 29.7276948,6.45286358 31.7874455,6.19379056 C32.1570288,6.14604983 32.5311192,6.12377083 32.9045657,6.12546698 Z" id="Combined-Shape" fill="#2A2A2A"></path>
                                <g id="Group-3" stroke-width="1" fill="none" transform="translate(25.960000, 14.960000)">
                                    <path d="M4.76183844,7.29666677 C4.65302385,7.29666677 4.54163377,7.27502431 4.43346306,7.23110284 C4.22034099,7.14580607 4.04778295,6.98539722 3.98339562,6.81416714 C3.884883,6.5519114 3.91128181,6.26992283 3.93188575,6.04395004 L4.26219276,2.45066451 L4.66268195,2.48631092 L4.33237495,6.07959645 C4.31499037,6.27565171 4.29374255,6.49844178 4.36070537,6.67603729 C4.38130932,6.73078 4.46694447,6.81544022 4.58606103,6.86318095 C4.66912068,6.89691773 4.79789534,6.92428909 4.93117712,6.86127132 L5.10309129,7.22091815 C4.99556445,7.27120505 4.88031113,7.29666677 4.76183844,7.29666677" id="Fill-9" fill="#000000"></path>
                                    <path d="M6.09678096,8.99273574 C6.07360152,8.99273574 6.05106595,8.99209919 6.02853039,8.99146265 L6.04333948,8.59362324 C6.4695836,8.60762719 6.90484195,8.43767019 7.20295529,8.1346757 C7.50171251,7.83104466 7.66332471,7.39819539 7.63563815,6.9755308 L8.03677122,6.95006908 C8.07154038,7.48221907 7.86807642,8.02900955 7.49141053,8.41220847 C7.13084148,8.77885727 6.6144551,8.99273574 6.09678096,8.99273574" id="Fill-11" fill="#000000"></path>
                                    <path d="M7.71901975,2.8408654 C7.75700827,3.15213495 7.95789674,3.38447317 8.16779944,3.35901144 C8.37770214,3.33418626 8.51742264,3.06174584 8.47943412,2.74983974 C8.44144559,2.43857019 8.24055712,2.20623197 8.03001055,2.2316937 C7.82010786,2.25715542 7.68038735,2.52959585 7.71901975,2.8408654" id="Fill-13" fill="#000000"></path>
                                    <path d="M1.05138976,3.00184714 C1.08937828,3.31311669 1.29026675,3.5454549 1.50016945,3.51999318 C1.71007214,3.495168 1.84979265,3.22209103 1.81180413,2.91082148 C1.7738156,2.59955193 1.57292713,2.36721371 1.36238056,2.39203889 C1.15247786,2.41750061 1.01275736,2.68994104 1.05138976,3.00184714" id="Fill-15" fill="#000000"></path>
                                    <path d="M8.69931685,1.02818175 C8.88024525,1.02945483 9.12105386,1.06764742 9.28717318,0.991898792 C9.61361694,0.842311174 9.61168532,0.498577925 9.30906487,0.29106489 C8.99743019,0.0765498811 8.54349951,0.0319918674 8.17777948,0.00843977439 C7.92924438,-0.00747380194 7.55901723,-0.0182950338 7.34782679,0.145933074 C7.1450067,0.302522665 7.10251106,0.580055436 7.2390122,0.799026247 C7.53712554,1.27516045 8.24216681,1.02436249 8.69931685,1.02818175" id="Fill-17" fill="#000000"></path>
                                    <path d="M0.867177604,1.4052062 C0.687536952,1.4230294 0.45123545,1.48286445 0.278033531,1.42175632 C-0.0606438261,1.30208622 -0.0902619981,0.960262602 0.191110635,0.726651301 C0.482141368,0.484128398 0.930277187,0.398831629 1.29213398,0.34281584 C1.53873746,0.304623257 1.90510137,0.260701786 2.13174477,0.404560516 C2.3480862,0.543326902 2.4156929,0.815130786 2.2997957,1.04555937 C2.04739737,1.54651875 1.32175216,1.36001164 0.867177604,1.4052062" id="Fill-19" fill="#000000"></path>
                                </g>
                            </g>
                        </g>
                    </g>
                </g>
            </g>
        </g>
    </g>
</svg>