<svg xmlns="http://www.w3.org/2000/svg" xmlns:xlink="http://www.w3.org/1999/xlink" width="118" height="149" viewBox="0 0 118 149">
    <defs>
        <path id="prefix__a" d="M58.212 159.642c32.15 0 58.212-26.062 58.212-58.212 0-10.259-2.654-19.898-7.312-28.268-5.682-10.21 7.03-32.845-3.438-49.988C97.827 10.326 67.59.757 58.212.757 24.849 12.882 0 69.28 0 101.43c0 32.15 26.062 58.212 58.212 58.212z"/>
        <path id="prefix__c" d="M0.071 0.81L54.991 0.81 54.991 54.497 0.071 54.497z"/>
        <path id="prefix__e" d="M0 0.254L131.713 0.254 131.713 87.774 0 87.774z"/>
        <linearGradient id="prefix__f" x1="12.428%" x2="109.946%" y1="50%" y2="40.576%">
            <stop offset="0%" stop-color="#41B2ED"/>
            <stop offset="100%" stop-color="#7776F8"/>
        </linearGradient>
    </defs>
    <g fill="none" fill-rule="evenodd" transform="translate(1 -12)">
        <circle cx="58.212" cy="101.43" r="58.212" stroke="#979797" stroke-width=".882"/>
        <g>
            <mask id="prefix__b" fill="#fff">
                <use xlink:href="#prefix__a"/>
            </mask>
            <g mask="url(#prefix__b)">
                <g>
                    <path fill="#2A2A2A" d="M58.596.888c13.807 0 25 11.193 25 25v37h-50v-37c0-13.807 11.193-25 25-25z" transform="translate(19.404 11.112)"/>
                    <path fill="#F8C49E" d="M51.638 82.38L79.38 79.146 69.458 45.336 50.274 47.573 50.433 51.666 50.929 64.264z" transform="translate(19.404 11.112)"/>
                    <path fill="#EFA36C" d="M50.465 64.125c2.677-.314 5.296-1.118 7.674-2.38 3.943-2.094 7.2-5.438 9.164-9.417-5.573-.193-11.128-.592-16.697-.786-.206-.007-.414-.014-.625-.012l.484 12.595z" transform="translate(19.404 11.112)"/>
                    <g transform="translate(19.404 11.112) translate(33.657 3)">
                        <mask id="prefix__d" fill="#fff">
                            <use xlink:href="#prefix__c"/>
                        </mask>
                        <path fill="#F8C49E" d="M54.988 29.025c-.082 2.618-1.7 5.138-4.066 6.319-2.366 1.179-6.034 1.196-8.213-.295-.474 4.86-2.702 9.523-6.13 13.032-1.19 1.222-2.524 2.303-3.98 3.205-.03.02-.063.037-.09.054-4.707 2.882-10.573 3.838-15.972 2.673-1.059-.228-2.098-.536-3.11-.933C7.228 50.674 2.335 45.19.743 38.8c-1.26-5.067-.523-10.382.36-15.523.687-4.008 1.516-8.122 3.28-11.752.053-.111.11-.224.163-.333.617-1.23 1.352-2.397 2.221-3.48.082-.099.163-.2.247-.3 3.018-3.573 7.487-5.857 12.168-6.446.84-.109 1.69-.16 2.54-.155 5.694.038 11.273 2.566 15.227 6.619.911.934 1.737 1.948 2.471 3.022 2.456 3.573 3.91 7.822 4.256 12.135 2.26-1.365 5.338-1.42 7.63-.103.153.088.303.18.446.28 2.034 1.385 3.307 3.82 3.235 6.262" mask="url(#prefix__d)"/>
                    </g>
                    <path fill="#000" d="M79.771 34.537l-.875-.191.05-5.884.914.007-.036 4.405c.465-.481 1.034-.863 1.664-1.11 1.12-.438 2.405-.426 3.519.031l-.35.835c-.895-.368-1.928-.376-2.834-.025-.903.353-1.652 1.058-2.052 1.932" transform="translate(19.404 11.112)"/>
                    <g transform="translate(19.404 11.112) translate(0 66.069)">
                        <mask id="prefix__g" fill="#fff">
                            <use xlink:href="#prefix__e"/>
                        </mask>
                        <path fill="url(#prefix__f)" d="M131.713 81.6S112.459 9.46 102.646 4.982C92.833.503 74.702.254 74.702.254S54.366 18.508 50.697 1.296c0 0-14.733.701-20.772 3.437 0 0-25.535 34.232-29.925 76.186 17.293 2.02 30.282 3.053 38.968 3.098 20.583.106 51.499-.7 92.745-2.417z" mask="url(#prefix__g)"/>
                        <path stroke="#161616" stroke-width=".882" d="M28.224 81.91L39.902 51.156" mask="url(#prefix__g)"/>
                        <path stroke="#161616" stroke-width=".882" d="M44.784 1.375C35.84 2.385 31.047 3.77 30.037 4.576c-1.01.808-7.424 9.126-13.613 22.76" mask="url(#prefix__g)"/>
                    </g>
                </g>
            </g>
        </g>
        <path fill="#2A2A2A" d="M74.783 13.922c5.695.038 11.274 2.566 15.228 6.619.911.934 1.737 1.948 2.471 3.022 2.456 3.573 3.91 7.822 4.256 12.135 2.26-1.365 1.88-2.599 4.171-1.282.154.088.303.18.446.279.425.29.968.72 1.56 1.242-1.654 1.94-3.937 3.153-6.847 3.637-9.76 1.625-28.006-5.92-39.184-12.696.176-.42.363-.834.561-1.242.053-.111.11-.224.163-.333.617-1.23 1.352-2.397 2.221-3.48.082-.099.163-.2.247-.3 3.018-3.573 7.487-6.857 12.168-7.446.84-.109 1.69-.16 2.54-.155z"/>
        <g fill="#000">
            <path d="M10.822 16.583c-.247 0-.5-.049-.746-.149-.484-.194-.876-.558-1.023-.947-.224-.596-.164-1.237-.117-1.75l.75-8.167.911.08-.75 8.167c-.04.446-.088.952.064 1.356.047.124.241.317.512.425.189.077.481.139.784-.004l.39.817c-.243.114-.505.172-.775.172M13.856 20.438c-.052 0-.104-.001-.155-.003l.034-.904c.969.032 1.958-.354 2.635-1.043.68-.69 1.047-1.674.984-2.635l.911-.057c.08 1.209-.383 2.452-1.24 3.323-.819.833-1.992 1.319-3.169 1.319M17.543 6.457c.087.707.543 1.235 1.02 1.177.477-.056.795-.675.708-1.384-.086-.708-.542-1.236-1.021-1.178-.477.058-.795.677-.707 1.385M2.39 6.822c.086.708.542 1.236 1.02 1.178.477-.056.794-.677.708-1.384-.087-.708-.543-1.236-1.022-1.18-.477.058-.794.678-.706 1.386M19.771 2.337c.411.003.959.09 1.336-.083.742-.34.738-1.12.05-1.592-.708-.488-1.74-.59-2.571-.643-.565-.036-1.406-.06-1.886.313-.461.356-.558.986-.248 1.484.678 1.082 2.28.512 3.32.52M1.97 3.194c-.407.04-.944.176-1.338.037-.77-.272-.837-1.049-.198-1.58.662-.55 1.68-.745 2.503-.872.56-.087 1.393-.186 1.908.14.492.316.645.934.382 1.457-.574 1.139-2.223.715-3.256.818" transform="translate(59 34)"/>
        </g>
    </g>
</svg>
