<svg xmlns="http://www.w3.org/2000/svg" width="48" height="47" viewBox="0 0 48 47">
    <defs>
        <filter id="prefix__a" width="116.9%" height="179.4%" x="-8.5%" y="-39.7%" filterUnits="objectBoundingBox">
            <feOffset dy="2" in="SourceAlpha" result="shadowOffsetOuter1"/>
            <feGaussianBlur in="shadowOffsetOuter1" result="shadowBlurOuter1" stdDeviation="6"/>
            <feColorMatrix in="shadowBlurOuter1" result="shadowMatrixOuter1" values="0 0 0 0 0 0 0 0 0 0 0 0 0 0 0 0 0 0 0.115630463 0"/>
            <feMerge>
                <feMergeNode in="shadowMatrixOuter1"/>
                <feMergeNode in="SourceGraphic"/>
            </feMerge>
        </filter>
    </defs>
    <g fill="#FDCD15" filter="url(#prefix__a)" transform="translate(-6 -12)">
        <g>
            <path d="M6.15.03C4.64.03 3.41 1.249 3.41 2.74L3.312 16.78l1.494.011.1-14.047c0-.672.558-1.22 1.244-1.22h15.013V.031H6.149z" transform="translate(17.8 22.4)"/>
            <path d="M21.162.03c-1.565 0-2.838 1.274-2.838 2.839v15.76c0 1.138-.928 2.065-2.067 2.065-1.139 0-2.066-.927-2.066-2.066v-1.817c0-.413-.335-.747-.747-.747H.747c-.413 0-.747.334-.747.747v1.817c0 1.963 1.597 3.56 3.56 3.56v-1.494c-1.14 0-2.066-.927-2.066-2.066v-1.07h11.203v1.07c0 1.963 1.597 3.56 3.56 3.56s3.56-1.597 3.56-3.56V6.952h3.436c.413 0 .747-.335.747-.747V2.869C24 1.304 22.727.03 21.162.03zm1.344 5.428h-2.689v-2.59c0-.74.604-1.344 1.345-1.344s1.344.603 1.344 1.345v2.589z" transform="translate(17.8 22.4)"/>
            <path d="M3.411 20.694H16.083000000000002V22.188H3.411zM11.104 4.188h-3.86c-.412 0-.746.335-.746.747 0 .413.334.747.747.747h3.859c.412 0 .747-.334.747-.747 0-.412-.335-.747-.747-.747zM15.585 7.176h-8.34c-.413 0-.747.334-.747.747 0 .412.334.747.747.747h8.34c.413 0 .747-.335.747-.747 0-.413-.334-.747-.747-.747zM15.585 10.163h-8.34c-.413 0-.747.335-.747.747 0 .413.334.747.747.747h8.34c.413 0 .747-.334.747-.747 0-.412-.334-.747-.747-.747zM15.585 13.15h-8.34c-.413 0-.747.335-.747.748 0 .412.334.747.747.747h8.34c.413 0 .747-.335.747-.747 0-.413-.334-.747-.747-.747z" transform="translate(17.8 22.4)"/>
        </g>
    </g>
</svg>
