<svg xmlns="http://www.w3.org/2000/svg" xmlns:xlink="http://www.w3.org/1999/xlink" width="86" height="79" viewBox="0 0 86 79">
    <defs>
        <path id="prefix__a" d="M0.039 0.455L30.373 0.455 30.373 30.585 0.039 30.585z"/>
        <path id="prefix__c" d="M0 0.145L74.07 0.145 74.07 49.977 0 49.977z"/>
        <path id="prefix__f" d="M0.017 0.452L19.272 0.452 19.272 7.934 0.017 7.934z"/>
        <linearGradient id="prefix__d" x1="-7.896%" x2="116.963%" y1="61.036%" y2="57.034%">
            <stop offset="0%" stop-color="#FFED9F"/>
            <stop offset="100%" stop-color="#FFCA00"/>
        </linearGradient>
        <linearGradient id="prefix__h" x1="3.187%" x2="96.813%" y1="53.187%" y2="53.187%">
            <stop offset="0%" stop-color="#76DAF8"/>
            <stop offset="100%" stop-color="#41B2ED"/>
        </linearGradient>
    </defs>
    <g fill="none" fill-rule="evenodd">
        <g>
            <path fill="#F8C49E" d="M29.615 44.64L45.57 42.854 39.864 24.18 28.83 25.415 28.921 27.676 29.207 34.634z" transform="translate(-1) translate(0 7.44)"/>
            <path fill="#EFA36C" d="M29.09 34.41c1.437-.185 2.843-.66 4.12-1.406 2.117-1.237 3.866-3.212 4.92-5.563-2.992-.113-5.974-.35-8.965-.464-.11-.004-.222-.008-.335-.007l.26 7.44z" transform="translate(-1) translate(0 7.44)"/>
            <g transform="translate(-1) translate(0 7.44) translate(19.53)">
                <mask id="prefix__b" fill="#fff">
                    <use xlink:href="#prefix__a"/>
                </mask>
                <path fill="#F8C49E" d="M30.371 16.29c-.045 1.469-.94 2.883-2.246 3.546-1.307.662-3.332.671-4.536-.166-.262 2.728-1.493 5.345-3.386 7.314-.657.686-1.394 1.293-2.198 1.8l-.05.03c-2.6 1.617-5.84 2.153-8.821 1.5-.585-.129-1.16-.302-1.718-.524C3.993 28.44 1.29 25.362.41 21.775c-.696-2.844-.289-5.827.198-8.712.38-2.25.838-4.558 1.813-6.595.029-.063.06-.126.09-.187.34-.69.746-1.345 1.226-1.954.045-.055.09-.112.137-.168C5.54 2.154 8.01.872 10.595.541c.464-.06.934-.089 1.402-.087 3.146.022 6.227 1.44 8.41 3.715.504.525.96 1.094 1.366 1.696 1.356 2.006 2.16 4.39 2.35 6.81 1.25-.765 2.949-.796 4.214-.057.085.05.168.101.247.157 1.123.777 1.827 2.144 1.787 3.514" mask="url(#prefix__b)"/>
            </g>
            <path fill="#000" d="M45.04 17.67l-.4-.088.023-2.702.417.003-.016 2.024c.212-.222.472-.397.76-.51.511-.201 1.098-.196 1.606.014l-.16.383c-.409-.169-.88-.172-1.294-.011-.412.162-.754.486-.936.887M28.297 20.46c-.17 0-.344-.03-.513-.088-.333-.115-.603-.33-.703-.56-.154-.352-.113-.731-.08-1.035l.515-4.827.626.048-.516 4.827c-.027.263-.06.563.044.801.032.074.166.188.352.252.13.045.331.082.54-.003l.268.483c-.168.068-.348.102-.533.102M29.855 22.32c-.033 0-.064 0-.095-.002l.02-.543c.592.019 1.195-.213 1.608-.627.415-.415.639-1.006.6-1.583l.557-.035c.048.727-.234 1.474-.757 1.997-.5.5-1.216.793-1.933.793M32.558 14.955c.045.512.287.894.54.852.252-.041.42-.489.375-1.002-.046-.512-.288-.894-.541-.852-.253.042-.42.49-.374 1.002M23.258 14.955c.045.512.287.894.54.852.252-.04.42-.49.375-1.001-.046-.512-.288-.894-.541-.853-.253.042-.42.49-.374 1.002M32.499 12.913c.213.002.496.067.69-.062.384-.255.382-.84.027-1.195-.367-.365-.9-.441-1.33-.482-.292-.027-.727-.045-.975.235-.238.267-.288.74-.128 1.113.35.812 1.179.385 1.716.391M23.347 12.95c-.213.028-.493.126-.698.026-.4-.194-.436-.75-.103-1.13.345-.395.876-.534 1.304-.625.292-.062.726-.133.995.1.256.226.336.668.199 1.043-.3.815-1.159.512-1.697.585" transform="translate(-1) translate(0 7.44)"/>
            <g transform="translate(-1) translate(0 7.44) translate(0 35.34)">
                <mask id="prefix__e" fill="#fff">
                    <use xlink:href="#prefix__c"/>
                </mask>
                <path fill="url(#prefix__d)" d="M74.07 46.462S63.243 5.386 57.724 2.837C52.205.287 42.009.145 42.009.145S30.573 10.538 28.51.738c0 0-8.285.4-11.681 1.957 0 0-14.36 19.491-16.83 43.38 9.726 1.15 17.03 1.738 21.915 1.763 11.575.06 28.96-.398 52.156-1.376z" mask="url(#prefix__e)"/>
                <path stroke="#FFF" stroke-linecap="round" stroke-width=".837" d="M15.872 46.639L22.44 29.128" mask="url(#prefix__e)"/>
            </g>
            <path fill="#000" d="M43.71 13.02c-1.28-.234-2.299-1.53-2.866-2.926-.568-1.394-.734-2.969-.854-4.514.34.334.852.31 1.291.307.12-.001.24-.009.36-.017 1.194 2.105 1.902 4.609 2.069 7.15M20.232 3.72c-.623.43-.849 1.313-.606 2.032.242.72.888 1.26 1.61 1.482.723.223 1.512.158 2.235-.065 1.144-.354 2.164-1.104 2.845-2.094.26 1.128 1.27 2.19 2.413 2.342 1.143.152 2.348-.47 2.891-1.491" transform="translate(-1) translate(0 7.44)"/>
            <g transform="translate(-1) translate(0 7.44) translate(23.25)">
                <mask id="prefix__g" fill="#fff">
                    <use xlink:href="#prefix__f"/>
                </mask>
                <path fill="#42D8F3" d="M19.272 7.934L.017 4.32l.01-.015c.046-.054.09-.11.137-.167C1.836 2.142 4.31.867 6.901.538c.465-.06.935-.089 1.405-.086 3.152.022 6.24 1.433 8.43 3.695 1.064 1.1 1.913 2.392 2.536 3.787" mask="url(#prefix__g)"/>
            </g>
            <path fill="#42D8F3" d="M42.685 8.37L12.09 2.387 12.186 1.86 42.78 7.844z" transform="translate(-1) translate(0 7.44)"/>
        </g>
        <g transform="translate(-1) translate(29.76)">
            <path fill="#B77548" d="M29.195 46.047L44.068 45.604 40.498 26.312 30.214 26.619 30.094 28.904 29.726 35.935z"/>
            <path fill="#89512A" d="M29.67 35.787c1.462-.04 2.918-.353 4.264-.93 2.236-.958 4.162-2.638 5.42-4.733-3-.381-5.981-.877-8.981-1.26-.111-.014-.223-.028-.337-.038l-.366 6.961z"/>
            <path fill="#B77548" d="M22.102 22.694c.54 3.6 2.912 6.862 6.14 8.497 3.23 1.634 7.226 1.606 10.449-.04 3.222-1.644 5.6-4.863 6.272-8.441.757 1.414 2.296 1.868 3.859 1.548 1.56-.318 2.856-1.572 3.4-3.08.415-1.148.423-2.455-.053-3.579-.476-1.126-1.45-2.041-2.62-2.368-1.117-.313-2.45-.197-3.326.555l-.119.11c.011-.826-.05-1.654-.183-2.468-.367-2.261-1.275-4.431-2.696-6.215-1.934-2.428-4.823-4.098-7.896-4.4-.361-.037-.726-.054-1.092-.05-.095.002-.192.003-.287.007-.575.02-1.148.09-1.712.204l-.193.04c-1.944.43-3.765 1.409-5.139 2.858-.76.8-1.369 1.713-1.871 2.69-.23.444-.437.903-.627 1.371-.045.108-.088.216-.127.324-.185.471-.351.95-.505 1.432-.262.82-.49 1.652-.706 2.473-.732 2.787-1.396 5.68-.968 8.532"/>
            <path fill="#000" d="M47.357 21.061l-.473-.152.32-3.238.504.05-.237 2.411c.274-.237.596-.417.946-.52.629-.186 1.323-.116 1.904.192l-.236.452c-.465-.247-1.022-.303-1.526-.154-.505.149-.942.499-1.202.96M30.871 22.233c-.164 0-.331-.04-.488-.123-.254-.132-.448-.353-.508-.576-.092-.34-.029-.692.022-.973l.813-4.46.499.091-.813 4.46c-.046.256-.094.52-.032.748.015.056.097.175.252.256.098.051.25.1.42.037l.174.48c-.11.04-.224.06-.339.06"/>
            <ellipse cx="46.822" cy="24.12" fill="#212121" rx="1.102" ry="1.096"/>
            <path fill="#000" d="M32.438 24.512c-.099 0-.197-.006-.295-.019l.065-.506c.522.068 1.073-.098 1.472-.443.4-.345.647-.868.66-1.398l.507.013c-.018.672-.33 1.335-.838 1.773-.432.373-1.002.58-1.57.58M34.916 16.98c.011.394.232.707.493.7.26-.008.463-.334.451-.728-.012-.395-.232-.707-.493-.7-.26.008-.463.334-.451.728M26.71 16.43c.011.393.233.707.493.699.261-.008.463-.334.452-.727-.013-.395-.233-.708-.493-.7-.261.008-.463.334-.452.727M26.482 14.295c-.244.001-.572.037-.793-.037-.431-.147-.407-.478.014-.678.436-.206 1.05-.247 1.547-.268.337-.015.838-.024 1.114.135.264.153.305.421.106.633-.432.459-1.37.214-1.988.215M36.426 14.88c.242.03.564.105.792.057.446-.093.462-.425.067-.675-.409-.256-1.015-.37-1.505-.451-.333-.055-.83-.124-1.122.001-.28.12-.353.382-.18.615.374.508 1.335.376 1.948.452M49.673 8.302c-1.155 1.185-3.057 1.516-4.578.872-1.52-.645-2.598-2.188-2.782-3.84-.17-1.549.438-3.18 1.625-4.182 1.187-.999 2.928-1.309 4.358-.715 2.808 1.162 3.454 5.736 1.377 7.865"/>
            <path fill="url(#prefix__h)" d="M65.472 84.626c17.006-8.247-6.61-43.767-9.225-44.668-2.614-.9-13.568-1.117-13.568-1.117s-7.045 6.64-13.237.697c0 0-10.756-.049-12.896 1.676C14.407 42.94 0 86.064 0 86.064h60.701"/>
            <path fill="#000" d="M24.28 10.257c5.541.63 9.664-3.41 9.664-3.41 2.496 7.823 12.16 9.05 12.16 9.05.011-.826-.05-1.656-.183-2.47-.367-2.26-1.275-4.43-2.696-6.214-1.934-2.428-4.822-4.098-7.896-4.401-.362-.036-.726-.053-1.092-.05-.096.003-.191.004-.287.008-.575.02-1.148.09-1.713.204l-.192.04c-1.943.431-3.765 1.408-5.14 2.858-.759.8-1.367 1.713-1.87 2.689-.23.445-.437.904-.627 1.373-.044.107-.088.215-.128.323"/>
            <path stroke="#FFF" stroke-linecap="round" stroke-width=".837" d="M16.74 84.63L24.18 65.1"/>
        </g>
    </g>
</svg>
