<svg xmlns="http://www.w3.org/2000/svg" width="36" height="47" viewBox="0 0 36 47">
    <defs>
        <filter id="prefix__a" width="116.9%" height="185.7%" x="-8.5%" y="-42.9%" filterUnits="objectBoundingBox">
            <feOffset dy="2" in="SourceAlpha" result="shadowOffsetOuter1"/>
            <feGaussianBlur in="shadowOffsetOuter1" result="shadowBlurOuter1" stdDeviation="6"/>
            <feColorMatrix in="shadowBlurOuter1" result="shadowMatrixOuter1" values="0 0 0 0 0 0 0 0 0 0 0 0 0 0 0 0 0 0 0.115630463 0"/>
            <feMerge>
                <feMergeNode in="shadowMatrixOuter1"/>
                <feMergeNode in="SourceGraphic"/>
            </feMerge>
        </filter>
    </defs>
    <g fill="#56C5FF" filter="url(#prefix__a)" transform="translate(-6 -8)">
        <path d="M30 33.799c0 1.376-.483 2.535-1.449 3.479-.966.943-2.243 1.512-3.833 1.706v2.037c0 .3-.081.538-.244.714-.162.177-.38.265-.653.265-.274 0-.492-.088-.654-.265-.163-.176-.244-.414-.244-.714v-2.01c-1.043-.071-2.051-.283-3.026-.635-.852-.309-1.593-.732-2.224-1.27l-.263-.238c-.273-.23-.41-.53-.41-.9 0-.247.068-.463.205-.648.137-.185.3-.278.487-.278.205 0 .453.097.744.291 1.71 1.235 3.427 1.852 5.154 1.852 1.35 0 2.401-.29 3.154-.873.752-.582 1.128-1.41 1.128-2.487 0-.635-.193-1.15-.577-1.547-.385-.397-.872-.706-1.462-.926-.59-.22-1.389-.454-2.397-.701l-.829-.224c-.923-.26-1.694-.52-2.312-.781-.795-.336-1.474-.847-2.039-1.535-.564-.688-.846-1.614-.846-2.778 0-.952.231-1.812.693-2.579.461-.767 1.106-1.389 1.935-1.865.83-.476 1.783-.767 2.86-.873v-2.037c0-.282.085-.516.256-.701.17-.185.384-.278.64-.278.274 0 .492.088.655.265.162.176.243.414.243.714v2.037c.906.088 1.778.309 2.616.661.837.353 1.547.838 2.128 1.455.29.247.436.547.436.9 0 .247-.073.463-.218.648-.145.185-.312.278-.5.278-.222 0-.462-.097-.718-.291-.752-.635-1.483-1.103-2.192-1.402-.71-.3-1.535-.45-2.475-.45-1.299 0-2.329.308-3.09.926-.76.617-1.14 1.455-1.14 2.513 0 .74.209 1.332.628 1.772.418.441.936.78 1.55 1.019.462.179 1.054.37 1.775.573l.764.207c1.248.318 2.253.635 3.013.953.76.317 1.406.798 1.936 1.442.53.643.795 1.503.795 2.579z"/>
    </g>
</svg>
