<svg xmlns="http://www.w3.org/2000/svg" xmlns:xlink="http://www.w3.org/1999/xlink" width="91" height="121" viewBox="0 0 91 121">
    <defs>
        <path id="prefix__a" d="M0 118L91 118 91 0 0 0z"/>
    </defs>
    <g fill="none" fill-rule="evenodd">
        <ellipse cx="38" cy="117" fill="#D8D8D8" rx="32" ry="4"/>
        <path fill="#473437" d="M55.98 20.413c-.569-1.372-14.784.62-30.237 6.78C10.291 33.355-.547 41.353.021 42.725c.569 1.37 13.557-2.512 29.01-8.674 15.452-6.161 27.518-12.267 26.95-13.638"/>
        <path fill="#EFCE2E" d="M50 64l.026-1.577C61.8 61.982 63.629 34.56 78.922 34.014c14.706-.526 14.739 13.765 6.747 26.88l-4.017-2.406c4.115-6.754 7.923-20.423-3.446-20.116C65.245 38.709 65.701 63.412 50 64"/>
        <path fill="#FDCD15" d="M83 40.544c-.832-2.215-2.716-3.638-6.177-3.54-11.837.326-12.173 22.743-24.805 25.991-.632.221-1.294.354-1.993.382L50 65c15.276-.605 14.832-26.025 27.442-26.372 2.62-.075 4.402.664 5.558 1.916M88.24 37c2.926 5.583.71 15.19-4.24 23.943L85.685 62c5.64-9.69 7.266-19.987 2.555-25"/>
        <path fill="#F4E9DC" d="M35.781 111s-14.911-6.103-18.944-10.253c-4.034-8.137-13.16-54.093-11.675-73.03 0 0 9.045-8.104 29.08-9.573 17.406-1.277 25.048 6.382 25.048 6.382s3.397 53.457-4.67 76.221C46.554 106.864 35.781 111 35.781 111"/>
        <path fill="#F9F1E8" d="M58.267 24.467S56.44 22.697 52.554 21c7.196 13.11-.916 57.646-8.409 79.536-5.034 3.938-7.027 8.057-11.145 10.052.64.264 1.012.412 1.012.412s11.115-4.139 19.438-10.26c8.322-22.78 4.817-76.273 4.817-76.273"/>
        <path fill="#EDD9C3" d="M28.43 97.542C24.53 94.44 12.622 26.694 16.183 22 8.68 24.731 5.16 27.906 5.16 27.906 3.69 46.799 12.723 92.65 16.715 100.77 20.706 104.91 35.465 111 35.465 111s13.681-4.896 18.644-10.23c.473-.636.647-1.874.891-2.818-1.99 1.289-24.1 1.554-26.57-.41"/>
        <path fill="#E5C9AE" d="M15.542 22.35c-3.094 6.02 7.917 74.646 11.602 77.638 2.255 1.83 22.935.829 27.683-.268.046-.199.102-.46.173-.752-1.977 1.306-23.933 1.575-26.385-.415C24.74 95.41 12.917 26.757 16.453 22c-.273.101-.756.286-.911.35"/>
        <path fill="#F4E3D3" d="M26 104.888C16.22 96.097 4.63 48.643 6.119 29.559c0 0 1.624-2.243 4.92-4.559-3.972 1.994-5.877 3.702-5.877 3.702-1.488 19.084 7.653 65.402 11.693 73.604.285.294.628.599 1.011.91-.017-.018 5.263 2.315 8.134 1.672"/>
        <path fill="#C6A98D" d="M38.711 110.98c-1.073-.255-4.711-5.083-4.711-5.083l2.32-3c2.046-2.948 5.489-2.183 6.576.398.708 1.682-2.376 8.113-4.185 7.685"/>
        <path fill="#AF8461" d="M43 103.475c-1.147-2.813-4.585-3.617-6.642-.349L34 106.491s.446.652 1.068 1.509c2.235-2.109 5.2-3.79 7.932-4.525"/>
        <path fill="#EDD9C3" d="M41 110.992c1.02-1.582 2.334-7.97 2.334-7.97L54 101s-11.044 10.333-13 9.992"/>
        <path fill="#594547" d="M41 111.5c0-4-2.239-6.5-5-6.5s-5 2.5-5 6.5 2.239 6.5 5 6.5 5-2.5 5-6.5"/>
        <path fill="#443235" d="M37.74 105.564c-.703-.365-1.488-.564-2.32-.564-2.993 0-5.42 2.5-5.42 6.5s2.427 6.5 5.42 6.5c1.374 0 2.625-.532 3.58-1.489-3.188-.217-4.686-9.045-1.26-10.947"/>
        <path fill="#D6C2B4" d="M35 111c0-2.461-1.12-4-2.5-4s-2.5 1.539-2.5 4c0 2.461 1.12 4 2.5 4s2.5-1.539 2.5-4"/>
        <path fill="#594547" d="M34 111.5c0-.828-.448-1.5-1-1.5s-1 .672-1 1.5.448 1.5 1 1.5 1-.672 1-1.5"/>
        <path fill="#7A646F" d="M25.296 60.247c2.364 2.391 26.43 2.421 29.533-.436 1.802-1.66 3.396-28.879.833-34.236-1.35-2.815-30.813-4.211-34.977.55-2.176 2.489 1.236 30.706 4.611 34.122"/>
        <path fill="#42323A" d="M27.032 59.337c2.234 2.265 24.971 2.299 27.905-.408 1.703-1.572 3.227-27.395.802-32.484-1.275-2.676-29.16-3.998-33.096.527-2.056 2.363 1.197 29.129 4.39 32.365"/>
        <path fill="#D3BCA9" d="M15.726 68.726c-.748-4.876-2.799-7.952-4.58-7.713-1.782.24-2.62 3.702-1.872 8.578.75 4.877 2.8 8.637 4.582 8.398 1.78-.239 2.619-4.386 1.87-9.263"/>
        <path fill="#C6A98D" d="M8.683 71c.95-1.623 2.399-2.662 4.024-2.662.825 0 1.601.274 2.293.749-.033-.26-.07-.52-.114-.784-.766-4.609-2.865-7.517-4.69-7.29-1.823.225-2.682 3.499-1.915 8.108.107.651.245 1.278.402 1.879"/>
        <path fill="#3F3137" d="M14.731 68.539c-.553-3.444-1.755-5.657-2.713-5.534-.958.122-1.308 2.533-.755 5.976.554 3.444 1.778 6.137 2.735 6.015.958-.122 1.287-3.013.733-6.457"/>
        <path fill="#EDD9C3" d="M33.02 110.997c1.192.194 2.98-8.116 2.98-8.116s-13.878-.204-20-1.881c2.28 2.676 12.388 9.24 17.02 9.997"/>
        <path fill="#3A2C32" d="M46 24.356c-9.203-.801-22.657-.373-25.337 2.553-2.022 2.207.94 26.16 4.075 31.091C33.273 45.501 39.508 36.328 46 24.356M35 61.92c7.5.319 17.086-.302 18.926-1.986C55.512 58.482 56.94 36.328 55.214 29 48.918 41.401 43.359 50.975 35 61.92"/>
        <path fill="#2B1F25" d="M55.717 26.439c-1.297-2.67-29.67-3.988-33.675.525-.016.017-.028.048-.042.068 5.071-4.115 32.057-2.797 33.322-.196 2.385 4.91 1.014 29.16-.646 32.164.079-.054.163-.108.224-.164 1.734-1.568 3.284-27.322.817-32.397"/>
        <path fill="#B8FAFF" d="M47 47L52 47 52 37 47 37z"/>
        <mask id="prefix__b" fill="#fff">
            <use xlink:href="#prefix__a"/>
        </mask>
        <path fill="#B8FAFF" d="M49 47L52 47 52 39 49 39z" mask="url(#prefix__b)"/>
        <path fill="#56C5FF" d="M48 47L52 47 52 38 48 38z" mask="url(#prefix__b)"/>
        <path fill="#B8FAFF" d="M27 47L32 47 32 37 27 37z" mask="url(#prefix__b)"/>
        <path fill="#B8FAFF" d="M27 47L30 47 30 39 27 39z" mask="url(#prefix__b)"/>
        <path fill="#56C5FF" d="M27 47L31 47 31 38 27 38z" mask="url(#prefix__b)"/>
        <path fill="#3097C4" d="M80.847 61L62 65.269 64.152 74 83 69.731z" mask="url(#prefix__b)"/>
        <path fill="#56C5FF" d="M82.848 61L67 64.496 69.152 73 85 69.504z" mask="url(#prefix__b)"/>
        <path fill="#EFCE2E" d="M12.07 90.599C-6.712 87.386 1.843 67.15 12.52 63l1.082 1.89c-6.787 2.774-15.988 19.015-1.845 21.435 11.496 1.962 21.263-5.966 24.761-12.758L41 75.969c-4.963 9.657-16.053 16.837-28.93 14.63" mask="url(#prefix__b)"/>
        <path fill="#FDCD15" d="M4.48 80C3.94 74.193 8.934 66.58 13 64.742L12.098 63C7.635 65.445 2.37 74.304 4.48 80" mask="url(#prefix__b)"/>
        <path fill="#FDCD15" d="M40.185 74c-5.277 8.99-15.35 15.767-27.677 13.66C6.446 86.626 3.226 83.83 2 80.374c.626 4.322 3.822 8.003 10.983 9.225C25.9 91.806 37.022 84.627 42 74.97L40.185 74z" mask="url(#prefix__b)"/>
        <path fill="#EDA52F" d="M2.736 39C15.973 30.456 37.289 20.907 53 19.785c0 0-10.785-26.709-35.82-18.062C-9.32 10.875 2.736 39 2.736 39" mask="url(#prefix__b)"/>
        <path fill="#EFCE2E" d="M9 6C-6.53 17.51 2.752 39 2.752 39c.912-.583 3.639-2.72 4.622-3.31C4.516 29.096-.99 16.347 9 6" mask="url(#prefix__b)"/>
        <path fill="#FFBA57" d="M16.23 3.095C37.763-4.46 48.6 14.93 51.015 20c.67-.077 1.335-.144 1.986-.191 0 0-10.631-26.741-35.311-18.084C12.992 3.373 9.529 5.637 7 8.238c2.36-2.026 5.379-3.793 9.23-5.143" mask="url(#prefix__b)"/>
        <path fill="#FFBA57" d="M1.019 39.326c-.898.556-1.26 1.685-.852 2.66L.173 42C14.875 32.468 38.551 21.814 56 20.564l-.006-.015c-.426-1.04-1.489-1.664-2.602-1.531C36.695 21 15.417 30.416 1.02 39.326" mask="url(#prefix__b)"/>
        <path fill="#FFA655" d="M53.951 21c.69-.079 1.375-.148 2.049-.2l-.007-.017c-.458-1.196-1.6-1.915-2.798-1.763-.395.05-.795.109-1.195.168.843.564 1.505 1.172 1.951 1.812" mask="url(#prefix__b)"/>
        <path fill="#EFCE2E" d="M23.994 28c-8.36 3.423-16.365 7.448-22.956 11.375-.915.546-1.285 1.654-.867 2.611L.176 42C7.526 37.41 17.077 32.56 27 28.659c-1.064-.189-2.068-.41-3.006-.659" mask="url(#prefix__b)"/>
        <path fill="#7A4E42" d="M35 65.543s9.26 10.016 10.355 9.432C49.102 72.978 35.296 65 35.296 65l-.296.543z" mask="url(#prefix__b)"/>
        <path fill="#DBCAC6" d="M32.35 72c.538.095 7.927-9.466 7.642-10.686-.326-1.396-16.672-4.936-16.983-4.22-.31.715 7.403 14.561 9.341 14.905" mask="url(#prefix__b)"/>
        <path fill="#C19D97" d="M34.95 68s-5.15-3.7-4.944-3.978c.224-.3 5.994 2.58 5.994 2.58L34.95 68z" mask="url(#prefix__b)"/>
        <path fill="#EADAD8" d="M33.794 59.79c1.858-.091 3.622.13 5.206.586-2.621-1.75-16.699-5.003-16.99-4.27-.14.346 1.274 3.456 3.079 6.894 2.073-1.804 5.18-3.038 8.705-3.21" mask="url(#prefix__b)"/>
        <path fill="#C19D97" d="M32.268 70.82C30.742 70.572 25.319 62.886 23 59c1.556 3.257 7.497 12.723 9.18 13 .55.09 8.103-8.93 7.812-10.082-.016-.064-.081-.133-.17-.205-1.367 2.577-7.078 9.183-7.554 9.106" mask="url(#prefix__b)"/>
        <path fill="#2A2A2A" d="M78.596 67.956c-1.243-.337-.316-2.16.729-3.747.995-1.51 2.671-3.283 4.675-3.207l-.216.725c-.888.071-2.099 2.796-2.452 3.604-.551 1.262-1.489 2.964-2.736 2.625" mask="url(#prefix__b)"/>
        <path fill="#2A2A2A" d="M82.698 57L80 59.166 85.825 63 87 60.14c-.806-1.893-1.653-2.759-4.302-3.14" mask="url(#prefix__b)"/>
        <path fill="#2A2A2A" d="M83.433 69.817c1.062.795 2.3-1.142 3.24-3.023.893-1.79-.195-4.207-1.444-5.794l-.584.648c.452.771.336 3.425-.246 4.237-.913 1.267-2.03 3.134-.966 3.932M75.54 63.934c-1.192-.436-.194-2.397.907-4.096 1.048-1.615 3.606-1.978 5.553-1.795l-.25.791c-.866.03-3.025 1.47-3.41 2.341-.604 1.367-1.606 3.197-2.8 2.759M44.428 67.05c1.215.359.274 2.187-.78 3.775-1.004 1.512-2.68 3.277-4.648 3.17l.225-.729c.874-.058 2.109-2.793 2.47-3.605.563-1.267 1.513-2.973 2.733-2.612" mask="url(#prefix__b)"/>
        <path fill="#2A2A2A" d="M40.26 78L43 75.894 37.225 72 36 74.82c.777 1.89 1.611 2.76 4.26 3.18" mask="url(#prefix__b)"/>
        <path fill="#2A2A2A" d="M39.586 64.193c-1.036-.815-2.286 1.105-3.241 2.974-.908 1.78.13 4.22 1.338 5.833l.586-.64c-.434-.78-.28-3.439.306-4.243.919-1.254 2.048-3.107 1.011-3.924M46.478 69.073c1.173.463.156 2.435-.958 4.14-1.062 1.62-3.597 1.945-5.52 1.726l.26-.798c.857-.016 3.013-1.439 3.408-2.317.617-1.376 1.636-3.215 2.81-2.75" mask="url(#prefix__b)"/>
        <path fill="#EFCE2E" d="M17 4.364C19.755 3.605 36.179-2.466 49 19 37.326 7.03 30.058 3.481 17 4.364" mask="url(#prefix__b)"/>
    </g>
</svg>
