<svg xmlns="http://www.w3.org/2000/svg" xmlns:xlink="http://www.w3.org/1999/xlink" width="97" height="123" viewBox="0 0 97 123">
    <defs>
        <path id="prefix__a" d="M0.116 0.068L65.883 0.068 65.883 110.768 0.116 110.768z"/>
        <path id="prefix__c" d="M0.238 0.023L12.949 0.023 12.949 17 0.238 17z"/>
        <path id="prefix__e" d="M0.239 0.023L10.859 0.023 10.859 17 0.239 17z"/>
        <path id="prefix__g" d="M0 119L97 119 97 1 0 1z"/>
    </defs>
    <g fill="none" fill-rule="evenodd">
        <ellipse cx="45" cy="119" fill="#D8D8D8" rx="32" ry="4"/>
        <path fill="#FDCD15" d="M85.598 80C73.368 80 70.05 59.42 66 53.043L68.177 52c3.761 5.927 9.738 24.392 17.224 23.994 7.56-.406 6.815-12.204-1.17-16.777l3.05-5.35C101.073 61.765 99.896 80 85.599 80"/>
        <path fill="#FDCD15" d="M89.22 72c1.992-3.543.136-9.859-5.207-13L83 60.693c4.733 2.583 6.88 7.62 6.22 11.307"/>
        <path fill="#FDCD15" d="M86.479 78.025c-11.591 0-15.258-17.69-19.045-25.025L66 53.665C70.092 59.895 73.443 80 85.8 80c6.342 0 10.128-3.437 11.2-7.944-1.607 3.498-5.144 5.969-10.521 5.969"/>
        <g transform="translate(8)">
            <mask id="prefix__b" fill="#fff">
                <use xlink:href="#prefix__a"/>
            </mask>
            <path fill="#F4E9DC" d="M36.923 110.768s-17.83-7.265-22.653-12.204C9.447 88.878-1.467 34.174.31 11.635c0 0 10.816-9.647 34.773-11.396 20.814-1.52 29.951 7.598 29.951 7.598s4.062 63.63-5.584 90.727c-9.645 7.282-22.527 12.204-22.527 12.204" mask="url(#prefix__b)"/>
        </g>
        <path fill="#F9F1E8" d="M73.155 7.16S71.046 5.038 66.563 3c8.302 15.733-1.058 69.176-9.703 95.444-5.809 4.726-8.109 9.67-12.86 12.063.739.316 1.168.493 1.168.493s12.824-4.966 22.428-12.311c9.603-27.337 5.559-91.528 5.559-91.528"/>
        <path fill="#EDD9C3" d="M36.585 93.972C31.825 90.276 17.299 9.592 21.644 4c-9.156 3.253-13.449 7.034-13.449 7.034-1.793 22.502 9.227 77.112 14.097 86.783C27.162 102.747 45.167 110 45.167 110s16.692-5.83 22.747-12.183c.576-.759.789-2.233 1.086-3.357-2.428 1.535-29.403 1.85-32.415-.488"/>
        <path fill="#E5C9AE" d="M19.663 5.412c-3.79 7.088 9.699 87.875 14.214 91.397 2.761 2.154 28.094.975 33.91-.316.057-.234.126-.54.213-.885-2.421 1.538-29.318 1.854-32.322-.488C30.933 91.418 16.448 10.6 20.78 5c-.334.12-.926.337-1.117.412"/>
        <path fill="#F4E3D3" d="M34 102.867C21.893 92.427 7.543 36.077 9.385 13.414c0 0 2.011-2.663 6.092-5.414-4.918 2.368-7.276 4.395-7.276 4.395C6.358 35.058 17.676 90.06 22.678 99.8c.352.35.777.712 1.252 1.081-.022-.02 6.516 2.75 10.07 1.986"/>
        <path fill="#C6A98D" d="M49.234 110.975c-1.192-.305-5.234-6.098-5.234-6.098l2.577-3.601c2.274-3.537 6.1-2.619 7.308.478.787 2.019-2.641 9.736-4.65 9.221"/>
        <path fill="#AF8461" d="M54 101.829c-1.274-3.215-5.095-4.134-7.38-.4L44 105.276s.496.744 1.187 1.724c2.483-2.41 5.778-4.332 8.813-5.171"/>
        <path fill="#EDD9C3" d="M50 109.99c1.334-1.74 3.052-8.767 3.052-8.767L67 99s-14.442 11.366-17 10.99"/>
        <g transform="translate(38 102)">
            <mask id="prefix__d" fill="#fff">
                <use xlink:href="#prefix__c"/>
            </mask>
            <path fill="#594547" d="M12.949 8.511c0-5.223-2.846-8.488-6.356-8.488S.238 3.288.238 8.51c0 5.225 2.846 8.49 6.355 8.49 3.51 0 6.356-3.265 6.356-8.49" mask="url(#prefix__d)"/>
        </g>
        <g transform="translate(38 102)">
            <mask id="prefix__f" fill="#fff">
                <use xlink:href="#prefix__e"/>
            </mask>
            <path fill="#443235" d="M9.373.76C8.543.284 7.615.023 6.634.023 3.103.023.24 3.287.24 8.51c0 5.225 2.864 8.49 6.395 8.49 1.621 0 3.097-.697 4.225-1.946C7.097 14.773 5.329 3.243 9.373.76" mask="url(#prefix__f)"/>
        </g>
        <path fill="#D6C2B4" d="M45 111c0-3.076-1.343-5-3-5s-3 1.924-3 5c0 3.077 1.343 5 3 5s3-1.923 3-5"/>
        <path fill="#594547" d="M43 110c0-.552-.448-1-1-1-.551 0-1 .448-1 1s.449 1 1 1c.552 0 1-.448 1-1"/>
        <path fill="#7A646F" d="M33.442 49.887c2.874 2.882 32.143 2.919 35.918-.526 2.191-2 4.13-34.802 1.012-41.257-1.64-3.394-37.475-5.076-42.54.662-2.646 2.999 1.504 37.005 5.61 41.121"/>
        <path fill="#42323A" d="M33.182 49.022c2.745 2.694 30.679 2.734 34.283-.485 2.093-1.87 3.965-32.577.986-38.63-1.566-3.182-35.826-4.754-40.66.627-2.526 2.81 1.47 34.64 5.391 38.488"/>
        <path fill="#D3BCA9" d="M20.687 60.09c-.855-5.736-3.198-9.356-5.235-9.075-2.036.281-2.995 4.356-2.139 10.093.856 5.737 3.2 10.16 5.236 9.88 2.036-.282 2.993-5.16 2.138-10.898"/>
        <path fill="#C6A98D" d="M13.78 63c1.086-1.947 2.742-3.194 4.6-3.194.942 0 1.83.328 2.62.898-.038-.31-.08-.623-.13-.94-.876-5.53-3.275-9.02-5.36-8.75-2.084.272-3.066 4.2-2.19 9.732.124.781.281 1.533.46 2.254"/>
        <path fill="#3F3137" d="M20.731 61.462c-.553-4.018-1.756-6.599-2.713-6.456-.958.142-1.308 2.954-.755 6.972.553 4.018 1.778 7.16 2.735 7.017.958-.142 1.287-3.515.733-7.533"/>
        <path fill="#EDD9C3" d="M42.573 110.996c1.371.234 3.427-9.74 3.427-9.74S30.04 101.013 23 99c2.621 3.211 14.246 11.089 19.573 11.996"/>
        <path fill="#3A2C32" d="M58 7.43c-10.972-.967-27.014-.451-30.21 3.077C25.38 13.17 28.913 42.052 32.65 48 42.825 32.927 50.26 21.866 58 7.43M44 50.905c9.286.377 21.154-.356 23.432-2.347C69.396 46.843 71.163 20.66 69.026 12 61.232 26.656 54.35 37.97 44 50.905"/>
        <path fill="#B8FAFF" d="M39 43L45 43 45 34 39 34z"/>
        <mask id="prefix__h" fill="#fff">
            <use xlink:href="#prefix__g"/>
        </mask>
        <path fill="#B8FAFF" d="M40 42L43 42 43 35 40 35zM57 43L63 43 63 34 57 34z" mask="url(#prefix__h)"/>
        <path fill="#B8FAFF" d="M58 42L61 42 61 35 58 35z" mask="url(#prefix__h)"/>
        <path fill="#2B1F25" d="M68.46 9.926c-1.556-3.202-35.604-4.785-40.41.63-.018.021-.033.058-.05.082 6.085-4.937 38.469-3.356 39.986-.235 2.863 5.891 1.217 34.991-.775 38.597.095-.065.195-.129.27-.197 2.08-1.88 3.94-32.786.98-38.877" mask="url(#prefix__h)"/>
        <path fill="#56C5FF" d="M39 42L43 42 43 34 39 34zM57 42L61 42 61 34 57 34z" mask="url(#prefix__h)"/>
        <path fill="#E5C9AE" d="M67.205 84.449l-8.73 2.387-19.481 10.051s-3.163 1.382-5.44-5.528C31.277 84.449 29 72.764 29 72.764L38.994 70 71 74.146 67.205 84.45z" mask="url(#prefix__h)"/>
        <path fill="#2A2A2A" d="M75.074 49.816c.528-1.681 3.143-.46 5.411.928 2.159 1.319 4.678 3.55 4.507 6.256l-1.047-.281c-.074-1.199-3.988-2.788-5.148-3.251-1.813-.727-4.253-1.965-3.723-3.652" mask="url(#prefix__h)"/>
        <path fill="#2A2A2A" d="M89 55.559L86.129 52c-3.01 1.54-4.345 3.407-5.129 6.694L84.666 60c2.471-.945 3.762-1.416 4.334-4.441" mask="url(#prefix__h)"/>
        <path fill="#F4E9DC" d="M73.24 55.67c-1.006 1.618 1.33 3.464 3.61 4.857 2.17 1.325 5.167-.36 7.15-2.273l-.777-.874c-.957.697-4.213.563-5.19-.307-1.526-1.362-3.783-3.024-4.792-1.404" mask="url(#prefix__h)"/>
        <path fill="#2A2A2A" d="M80.103 46.71c.63-1.55 3.267-.281 5.543 1.12 2.164 1.337 2.575 4.646 2.26 7.17l-1.068-.314c-.012-1.122-1.9-3.898-3.076-4.385-1.837-.766-4.296-2.038-3.66-3.591" mask="url(#prefix__h)"/>
        <path fill="#E5C9AE" d="M44.457 49L43 56.307 62 57c-7.018-7.37-17.543-8-17.543-8" mask="url(#prefix__h)"/>
        <path fill="#FFF2D9" d="M82 52.772S77.886 51 77.115 51c-.772 0-9.9.788-15.43 5.185 0 0-11.089-3.413-20.828-2.231-1.725.209-3.857 2.494-3.857 2.494L60.593 68 82 52.772z" mask="url(#prefix__h)"/>
        <path fill="#1E5F7C" d="M63 58c0-.552-.672-1-1.5-1-.829 0-1.5.448-1.5 1s.671 1 1.5 1c.828 0 1.5-.448 1.5-1" mask="url(#prefix__h)"/>
        <path fill="#1E5F7C" d="M36 53.917L36.287 53.342 62.277 57.07 84.372 51 85 51.496 57.2 80z" mask="url(#prefix__h)"/>
        <path fill="#56C5FF" d="M33 76.568L35.683 54.406 62.13 58.205 85 52 74.013 73.782 57.02 81z" mask="url(#prefix__h)"/>
        <path fill="#3097C4" d="M33 76.5L35.671 54 62 57.857 56.913 81z" mask="url(#prefix__h)"/>
        <path fill="#FFF4E3" d="M35.856 75.5l21.59 3.694 15.37-6.054 9.667-18.864-20.641 6.264-.08-.01-23.541-3.135L35.856 75.5zM57.525 80L35 76.147l2.563-19.628 24.217 3.225L84 53 73.36 73.763 57.526 80z" mask="url(#prefix__h)"/>
        <path fill="#EFCE2E" d="M.287 71.035C2.007 62.86 11.167 55.75 17.376 54c1.159.762 1.513 1.363.81 2.8-4.491 1.265-13.295 8.433-14.463 13.985-2.074 9.864 23.782 14.794 46.33 5.466L52 80.83C24.606 92.162-3.135 87.3.287 71.035" mask="url(#prefix__h)"/>
        <path fill="#EFCE2E" d="M17.1 53.168C12.449 54.476 3.33 61.881 2.119 67.617c-.254 1.205-.09 2.336.41 3.383.013-.305.051-.615.118-.93 1.21-5.736 10.329-13.141 14.982-14.45.642-1.31.429-1.947-.455-2.62-.026.058-.043.108-.072.168" mask="url(#prefix__h)"/>
        <path fill="#FDCD15" d="M51.063 78.845C27.535 88.175 3.875 85.912 0 75c1.211 12.943 26.753 16.154 52 5.99l-.937-2.145z" mask="url(#prefix__h)"/>
        <path fill="#B8FAFF" d="M44 16L46 16 46 15 44 15zM47 16L49 16 49 15 47 15zM50 16L52 16 52 15 50 15zM55 16L57 16 57 15 55 15z" mask="url(#prefix__h)"/>
        <path fill="#2A2A2A" d="M61.69 72.546c1.15 1.426-1.11 3.285-3.342 4.722-2.124 1.367-5.178 2.583-7.348.943l.73-.856c1.033.582 4.216-2.332 5.153-3.201 1.465-1.357 3.655-3.04 4.807-1.608" mask="url(#prefix__h)"/>
        <path fill="#2A2A2A" d="M50.753 81L55 80.357 51.14 73l-3.046 2.253c-.313 2.419.055 3.803 2.659 5.747" mask="url(#prefix__h)"/>
        <path fill="#2A2A2A" d="M57.863 67.723c-.75-1.563-3.427-.308-5.717 1.088-2.178 1.329-2.416 4.651-1.942 7.189l1.096-.308c-.05-1.129 1.757-3.905 2.953-4.389 1.872-.754 4.361-2.015 3.61-3.58M62.731 78.44c1.065 1.066-1.225 2.3-3.472 3.238-2.137.889-5.203-.213-7.259-1.474l.753-.583c.983.458 4.25.352 5.204-.23 1.494-.91 3.707-2.023 4.774-.952" mask="url(#prefix__h)"/>
    </g>
</svg>
