<?xml version="1.0" encoding="UTF-8"?>
<svg width="79px" height="103px" viewBox="0 0 79 103" version="1.1" xmlns="http://www.w3.org/2000/svg" xmlns:xlink="http://www.w3.org/1999/xlink">
    <!-- Generator: Sketch 59 (86127) - https://sketch.com -->
    <title>sad_bot</title>
    <desc>Created with Sketch.</desc>
    <defs>
        <polygon id="path-1" points="0.08405 0.0493242997 10.0178024 0.0493242997 10.0178024 13.5172414 0.08405 13.5172414"></polygon>
    </defs>
    <g id="Home" stroke="none" stroke-width="1" fill="none" fill-rule="evenodd">
        <g id="Partner-delete-bottom-Modal" transform="translate(-159.000000, -456.000000)">
            <g id="Card_Invite" transform="translate(0.000000, 333.000000)">
                <g id="Message" transform="translate(78.000000, 29.000000)">
                    <g id="sad_bot" transform="translate(71.000000, 84.000000)">
                        <ellipse id="Shadow" fill="#D8D8D8" cx="53" cy="109.137931" rx="32" ry="3.86206897"></ellipse>
                        <g id="Group-7" transform="translate(20.115201, 76.833396) scale(1, -1) rotate(-9.000000) translate(-20.115201, -76.833396) translate(4.115201, 54.833396)">
                            <path d="M16.1687275,14.4561831 C20.7897349,14.098167 25.2574958,16.6715036 26.5151911,20.8014287 C26.3996995,21.4325968 25.5588355,21.5836768 25.2770786,20.9640177 C24.6643502,18.6176692 19.915342,16.1367101 16.538399,16.3982705 L16.2514663,16.4267551 C11.5705007,16.9943889 7.19849359,22.623094 8.20008509,39.8150511 L5.22543023,39.8648756 L5.17567443,38.9338704 C4.68370854,28.7900421 5.70554698,15.2663867 16.1687275,14.4561831 Z" id="Fill-67-Copy" fill="#EFCE2E" transform="translate(15.796395, 27.143972) scale(1, -1) rotate(-30.000000) translate(-15.796395, -27.143972) "></path>
                            <path d="M21.681525,2.04900983 C20.804025,0.930940861 19.115525,2.62469948 17.739275,4.34259603 C16.430025,5.97769948 15.097025,8.41176845 15.983275,10.4108719 L16.716275,9.89142362 C16.442025,8.96090638 19.036525,6.60504431 19.808275,5.91156155 C21.014775,4.8294581 22.563275,3.17383741 21.681525,2.04900983" id="Fill-8" fill="#2A2A2A"></path>
                            <path d="M12,9.96316155 L12.9705,6.50829948 L19.612,11.0510581 L17.21675,13.1829202 C15.0515,13.1189547 13.34925,12.2890926 12,9.96316155" id="Fill-10" fill="#2A2A2A"></path>
                            <path d="M25.7483,6.27433052 C26.98805,7.08174431 25.5323,9.08808914 24.01305,10.7639857 C22.5648,12.3570891 19.6708,12.1241581 17.55255,11.4186064 L17.9703,10.571365 C18.93655,10.7528822 21.5753,9.64639948 22.16005,8.73905465 C23.0708,7.32167534 24.5048,5.4671581 25.7483,6.27433052" id="Fill-12" fill="#2A2A2A"></path>
                            <path d="M17.011,0.326599482 C16.07675,-0.748262587 14.474,1.02539259 13.1835,2.80870293 C11.95775,4.506565 12.6335,7.29980638 13.61825,9.25449603 L14.32725,8.69690983 C14.0025,7.78497879 14.593,5.00139259 15.32925,4.27290983 C16.48425,3.13190983 17.9485,1.40266845 17.011,0.326599482" id="Fill-14" fill="#2A2A2A"></path>
                        </g>
                        <path d="M36.4761299,101.25901 C36.4761299,101.25901 52.8576299,97.8763203 57.7446299,94.4979755 C63.3606299,87.1853893 81.1011299,43.4773893 83.0398799,24.5404583 C83.0398799,24.5404583 75.2606299,14.9492514 55.0173799,9.95656172 C37.4301299,5.62018241 28.2078799,11.8229066 28.2078799,11.8229066 C28.2078799,11.8229066 14.9638799,63.9403203 19.0626299,87.8173203 C26.2028799,95.2761824 36.4761299,101.25901 36.4761299,101.25901" id="Fill-16" fill="#F4E9DC" transform="translate(50.657718, 54.838127) rotate(-19.000000) translate(-50.657718, -54.838127) "></path>
                        <path d="M29.6044077,19.2008005 C29.6044077,19.2008005 31.7406577,17.7686971 35.9059077,16.7621453 C26.3724077,28.4490074 26.2904077,73.7315246 29.7286577,96.5882143 C34.0044077,101.331801 35.2299077,105.733111 38.9521577,108.404697 C38.2684077,108.555076 37.8726577,108.636904 37.8726577,108.636904 C37.8726577,108.636904 27.5991577,102.653835 20.4589077,95.1952143 C16.3604077,71.3179729 29.6044077,19.2008005 29.6044077,19.2008005" id="Fill-18" fill="#F9F1E8" transform="translate(29.312040, 62.699525) rotate(-19.000000) translate(-29.312040, -62.699525) "></path>
                        <path d="M47.5606054,88.9255987 C52.1643554,86.5557366 76.8861054,21.7205298 74.0621054,16.4451849 C81.3248554,20.4853918 84.3833554,24.2516332 84.3833554,24.2516332 C82.4443554,43.1888056 64.7041054,86.8968056 59.0881054,94.2093918 C54.2011054,97.5877366 37.8196054,100.970185 37.8196054,100.970185 C37.8196054,100.970185 24.5633554,93.6872884 20.4058554,87.5287366 C20.0333554,86.814978 20.0798554,85.5598056 20.0008554,84.5836677 C21.8236054,86.212978 44.6468554,90.425047 47.5606054,88.9255987" id="Fill-20" fill="#EDD9C3" transform="translate(52.192105, 58.707685) rotate(-19.000000) translate(-52.192105, -58.707685) "></path>
                        <path d="M47.2937296,103.580212 C48.4087296,103.513592 52.9134796,99.3712812 52.9134796,99.3712812 L51.1534796,96.008626 C49.6549796,92.7456605 46.0887296,92.9097984 44.5337296,95.271695 C43.5209796,96.8102467 45.4147296,103.692695 47.2937296,103.580212" id="Fill-22" fill="#C6A98D" transform="translate(48.582309, 98.553462) rotate(-19.000000) translate(-48.582309, -98.553462) "></path>
                        <path d="M44.0851422,95.2207711 C45.6671422,92.9375642 49.1653922,92.8115642 50.6458922,96.0363918 L52.4058922,99.3990469 C52.4058922,99.3990469 51.8623922,99.8967711 51.1141422,100.546081 C49.2696422,98.3111504 46.6398922,96.3291849 44.0851422,95.2207711" id="Fill-24" fill="#AF8461" transform="translate(48.245517, 97.050509) rotate(-19.000000) translate(-48.245517, -97.050509) "></path>
                        <path d="M45.8672085,106.133473 C45.0142085,104.398197 44.7004585,97.9280244 44.7004585,97.9280244 L33.1652085,93.9064037 C33.1652085,93.9064037 43.6234585,106.088335 45.8672085,106.133473" id="Fill-26" fill="#EDD9C3" transform="translate(39.516209, 100.019938) rotate(-19.000000) translate(-39.516209, -100.019938) "></path>
                        <path d="M46.4682133,102.241071 C47.2282133,98.1414852 50.0792133,95.9895887 53.0102133,96.4957611 C55.9422133,97.0024162 57.8442133,99.9747611 57.0837133,104.075313 C56.3249633,108.173451 53.4734633,110.326071 50.5422133,109.819658 C47.6104633,109.313968 45.7087133,106.340658 46.4682133,102.241071" id="Fill-28" fill="#594547" transform="translate(51.776148, 103.157732) rotate(-19.000000) translate(-51.776148, -103.157732) "></path>
                        <g id="Group-32" transform="translate(52.674111, 102.823471) rotate(-19.000000) translate(-52.674111, -102.823471) translate(47.174111, 96.064850)">
                            <mask id="mask-2" fill="white">
                                <use xlink:href="#path-1"></use>
                            </mask>
                            <g id="Clip-31"></g>
                            <path d="M3.3968,0.305924138 C4.15555,0.0510275862 4.96255,-0.0201793103 5.7763,0.120303448 C8.70805,0.626958621 10.6103,3.59954483 9.8498,7.69985517 C9.09105,11.7979931 6.23955,13.9506138 3.3083,13.4444414 C1.9623,13.2119931 0.8383,12.4557517 0.08405,11.3130621 C3.24805,11.6302345 6.39155,2.83509655 3.3968,0.305924138" id="Fill-30" fill="#443235" mask="url(#mask-2)"></path>
                        </g>
                        <path d="M51.6701774,102.068684 C52.1379274,99.5399944 53.4404274,98.1344426 54.6859274,98.3492702 C55.9309274,98.5638564 56.6476774,100.319408 56.1801774,102.847374 C55.7111774,105.375822 54.4091774,106.782098 53.1636774,106.56727 C51.9184274,106.351719 51.2011774,104.597132 51.6701774,102.068684" id="Fill-33" fill="#D6C2B4" transform="translate(53.924827, 102.458266) rotate(-19.000000) translate(-53.924827, -102.458266) "></path>
                        <path d="M53.1896983,102.286861 C53.3159483,101.606895 53.7829483,101.117861 54.2336983,101.195826 C54.6824483,101.272826 54.9464483,101.887861 54.8201983,102.569274 C54.6934483,103.249723 54.2259483,103.738274 53.7764483,103.660068 C53.3261983,103.583309 53.0629483,102.96755 53.1896983,102.286861" id="Fill-35" fill="#594547" transform="translate(54.004816, 102.427974) rotate(-19.000000) translate(-54.004816, -102.427974) "></path>
                        <path d="M49.2885382,55.2344285 C46.4167882,57.1439802 21.5607882,52.881463 18.8720382,49.5422216 C17.3112882,47.6027388 20.5807882,20.7816354 24.1962882,16.0163251 C26.0970382,13.511532 56.7742882,17.4052216 60.2137882,22.7894285 C62.0117882,25.6039113 53.3917882,52.5058768 49.2885382,55.2344285" id="Fill-37" fill="#7A646F" transform="translate(39.464758, 35.473646) rotate(-19.000000) translate(-39.464758, -35.473646) "></path>
                        <path d="M48.6098336,54.3562606 C45.8525836,56.1871227 22.0028336,52.1032261 19.4215836,48.9001227 C17.9230836,47.0405365 21.0450836,21.2848813 24.5180836,16.7018123 C26.3440836,14.2926054 55.8285836,18.0376054 59.1283336,23.2163985 C60.8525836,25.9203296 52.5480836,51.7421227 48.6098336,54.3562606" id="Fill-39" fill="#42323A" transform="translate(39.198628, 35.382481) rotate(-19.000000) translate(-39.198628, -35.382481) "></path>
                        <path d="M66.2649612,56.9406595 C67.8107112,52.4469009 70.2427112,49.8629354 71.8464612,50.3729698 C73.4492112,50.8837285 73.6162112,54.2941767 72.0704612,58.7884181 C70.5247112,63.2831423 67.9717112,66.5137629 66.3684612,66.0034871 C64.7657112,65.4939354 64.7192112,61.435625 66.2649612,56.9406595" id="Fill-41" fill="#D3BCA9" transform="translate(69.139523, 58.182868) rotate(-19.000000) translate(-69.139523, -58.182868) "></path>
                        <path d="M70.4477047,60.6111702 C69.8927047,58.8382392 68.7777047,57.5724461 67.3122047,57.3189978 C66.5689547,57.1910668 65.8179547,57.3448254 65.1052047,57.7124461 C65.1834547,57.4582737 65.2657047,57.2028944 65.3537047,56.945584 C66.8994547,52.4518254 69.3314547,49.8678599 70.9352047,50.3778944 C72.5379547,50.8888944 72.7049547,54.2993427 71.1592047,58.793584 C70.9404547,59.428653 70.6999547,60.0335496 70.4477047,60.6111702" id="Fill-43" fill="#C6A98D" transform="translate(68.668820, 55.462664) rotate(-19.000000) translate(-68.668820, -55.462664) "></path>
                        <path d="M66.5776804,57.3338233 C67.7761804,53.8487888 69.3691804,51.7509612 70.2734304,52.0386853 C71.1786804,52.325444 71.0531804,54.8896164 69.8549304,58.3746509 C68.6556804,61.8592026 66.9494304,64.4525819 66.0454304,64.1655819 C65.1391804,63.8776164 65.3779304,60.8193405 66.5776804,57.3338233" id="Fill-45" fill="#3F3137" transform="translate(68.180838, 58.099858) rotate(-19.000000) translate(-68.180838, -58.099858) "></path>
                        <path d="M52.5434125,100.273658 C51.3016625,100.257003 51.0156625,91.7273822 51.0156625,91.7273822 C51.0156625,91.7273822 65.0934125,93.9509684 71.5949125,93.362727 C68.7986625,95.6109339 57.3684125,100.335692 52.5434125,100.273658" id="Fill-47" fill="#EDD9C3" transform="translate(61.305288, 96.000823) rotate(-19.000000) translate(-61.305288, -96.000823) "></path>
                        <path d="M33.3047089,13.8033111 C42.8174589,14.6128973 56.4262089,17.4073456 58.6064589,20.8286559 C60.2519589,23.4090008 52.7634589,47.0352077 48.6534589,51.4558284 C42.3039589,37.3558973 37.6737089,27.0123111 33.3047089,13.8033111" id="Fill-49" fill="#3A2C32" transform="translate(46.071805, 32.629570) rotate(-19.000000) translate(-46.071805, -32.629570) "></path>
                        <path d="M39.6076337,57.5769755 C31.7293837,56.5429066 21.8498837,54.2034583 20.2398837,52.2058031 C18.8526337,50.4852514 21.4236337,28.3198721 24.5643837,21.3838376 C28.8568837,34.7806307 32.8978837,45.2492514 39.6076337,57.5769755" id="Fill-51" fill="#3A2C32" transform="translate(29.731107, 39.480407) rotate(-19.000000) translate(-29.731107, -39.480407) "></path>
                        <path d="M23.5943645,16.890068 C25.4201145,14.4811025 54.9046145,18.2258611 58.2043645,23.4046542 C58.2176145,23.4239645 58.2246145,23.4565507 58.2356145,23.4782749 C53.7631145,18.5048956 25.7093645,15.0053783 23.9288645,17.3542404 C20.5706145,21.7859645 17.5386145,46.0221369 18.6988645,49.2901714 C18.6278645,49.2225852 18.5508645,49.1554818 18.4978645,49.0886197 C16.9993645,47.2287921 20.1211145,21.4731369 23.5943645,16.890068" id="Fill-53" fill="#2B1F25" transform="translate(38.174173, 32.716433) rotate(-19.000000) translate(-38.174173, -32.716433) "></path>
                        <polygon id="Fill-55" fill="#B8FAFF" transform="translate(29.745967, 36.930455) rotate(-19.000000) translate(-29.745967, -36.930455) " points="35.3129607 33.9592045 28.2846427 42.3392798 24.1789734 31.5216309 27.7372846 32.2962684 29.3407393 36.4911301 32.1157432 33.2584141"></polygon>
                        <polygon id="Fill-57" fill="#B8FAFF" transform="translate(29.719486, 36.907242) rotate(-19.000000) translate(-29.719486, -36.907242) " points="34.6731684 34.2633116 28.4191068 41.7202165 24.7658045 32.0942679 27.518681 32.6934528 29.2242126 37.1067042 32.1940536 33.7197022"></polygon>
                        <polygon id="Fill-59" fill="#B8FAFF" transform="translate(29.679144, 36.807198) rotate(-19.000000) translate(-29.679144, -36.807198) " points="34.1795269 34.4699649 28.4686318 41.1151631 25.178762 32.4992325 27.3031557 32.961641 29.095414 37.6879436 32.2036667 34.0368307"></polygon>
                        <polygon id="Fill-61" fill="#B8FAFF" transform="translate(44.950477, 34.921063) rotate(-19.000000) translate(-44.950477, -34.921063) " points="50.2936706 33.2427005 42.1675001 40.5628291 39.6072832 29.2792976 43.0231859 30.5413781 44.0271945 34.918813 47.2251288 32.1035239"></polygon>
                        <polygon id="Fill-63" fill="#B8FAFF" transform="translate(44.884337, 34.966233) rotate(-19.000000) translate(-44.884337, -34.966233) " points="49.6388743 33.4725311 42.4078468 39.9867083 40.1298006 29.9457578 42.7724959 30.9222378 43.8472235 35.5299038 47.2595124 32.5894255"></polygon>
                        <polygon id="Fill-65" fill="#B8FAFF" transform="translate(44.817211, 34.915675) rotate(-19.000000) translate(-44.817211, -34.915675) " points="49.1366591 33.6248017 42.5564798 39.4107659 40.497762 30.420584 42.5371264 31.1741507 43.6541684 36.1038915 47.2403085 32.9208962"></polygon>
                        <path d="M83.2093438,53.2847756 C79.2603369,50.9402286 74.0695384,51.2747094 71.0070146,54.403207 C70.8131403,55.0162058 71.4913171,55.5193998 72.0337308,55.0907836 C73.6829393,53.2687525 79.0808946,53.1398614 81.966786,54.8531479 C86.0576864,57.2822871 87.5449499,64.1898645 78.3856038,79.3726325 L81.0126129,80.7209237 L81.4947084,79.9132018 C86.7027264,71.0906308 92.1511446,58.5930574 83.2093438,53.2847756 Z" id="Fill-67" fill="#EFCE2E" transform="translate(79.473150, 66.238165) rotate(-19.000000) translate(-79.473150, -66.238165) "></path>
                        <path d="M79.6670764,87.1268476 C80.6830764,88.1295373 82.1378264,86.2443648 83.2793264,84.372951 C84.3653264,82.5918131 85.3708264,80.015089 84.2310764,78.1398131 L83.5715764,78.7439855 C83.8946032,79.4748304 82.4226399,81.3947851 81.512239,82.4905099 L80.8009278,83.3282584 C79.7953585,84.5363023 78.7164902,86.1876906 79.6670764,87.1268476 Z" id="Fill-73" fill="#2A2A2A" transform="translate(82.016817, 82.772687) rotate(-19.000000) translate(-82.016817, -82.772687) "></path>
                        <path d="M86.7448058,77.5546993 L86.2320558,81.1000787 L79.0518058,77.3997338 L81.1503058,74.9941476 C83.3065558,74.7942856 85.1035558,75.4112511 86.7448058,77.5546993 Z" id="Fill-75" fill="#2A2A2A" transform="translate(82.898306, 78.029378) rotate(-19.000000) translate(-82.898306, -78.029378) "></path>
                        <path d="M74.4787999,84.7005205 C73.1437999,84.0502446 74.3265499,81.8828998 75.6157999,80.0361067 C76.8447999,78.2793481 79.7460499,78.1591412 81.9395499,78.6020722 L81.6352999,79.493486 C80.6530499,79.4307274 78.1795499,80.8485894 77.7175499,81.8196584 L77.4883549,82.2865082 C76.7609749,83.7127674 75.6836749,85.285117 74.4787999,84.7005205 Z" id="Fill-77" fill="#2A2A2A" transform="translate(77.915410, 81.605109) rotate(-19.000000) translate(-77.915410, -81.605109) "></path>
                        <path d="M84.6151721,86.8354283 C85.6819221,87.7881524 87.0411721,85.8341869 88.0891721,83.9082214 C89.0839221,82.0749455 88.0496721,79.38598 86.8181721,77.5664627 L86.1876721,78.2056351 C86.6284221,79.07098 86.4051721,81.9040489 85.7696721,82.7162903 L85.5608435,82.9878271 C84.6138237,84.2450147 83.6187324,85.9472856 84.6151721,86.8354283 Z" id="Fill-79" fill="#2A2A2A" transform="translate(86.344327, 82.325474) rotate(-19.000000) translate(-86.344327, -82.325474) "></path>
                    </g>
                </g>
            </g>
        </g>
    </g>
</svg>