<svg xmlns="http://www.w3.org/2000/svg" xmlns:xlink="http://www.w3.org/1999/xlink" width="36" height="35" viewBox="0 0 36 35">
    <defs>
        <circle id="prefix__a" cx="17.666" cy="17.5" r="17.5"/>
        <path id="prefix__c" d="M0.942 0.073L45.482 0.073 45.482 37.997 0.942 37.997z"/>
    </defs>
    <g fill="none" fill-rule="evenodd">
        <mask id="prefix__b" fill="#fff">
            <use xlink:href="#prefix__a"/>
        </mask>
        <use fill="#2C5A91" xlink:href="#prefix__a"/>
        <g mask="url(#prefix__b)">
            <g transform="rotate(-65 25.633 32.848)">
                <mask id="prefix__d" fill="#fff">
                    <use xlink:href="#prefix__c"/>
                </mask>
                <path fill="#F4E9DC" d="M9.677 37.997c-4.483-2.35-8.648-6.346-8.648-6.346l-.028-.654-.032-1.02c-.064-2.508-.072-7.152.65-9.082C4.436 17.337 23.243 3.429 32.11.073l.324.157c1.26.65 5.97 3.464 10.201 10.97 3.626 6.432 2.878 11.064 2.56 12.34l-.083.3-.018.055-1.568.844c-1.371.728-3.558 1.867-6.224 3.18l-1.3.636c-5.78 2.803-13.366 6.183-19.831 8.071l-.441.127c-1.171.332-2.303.613-3.377.83l-.4.078c-.626.119-1.23.215-1.81.285l-.466.051z" mask="url(#prefix__d)"/>
                <path fill="#EDD9C3" d="M5.605 25.564c.564-2.446 28.661-22.337 31.554-21.709C34.305 1.005 32.11.073 32.11.073 23.242 3.429 4.435 17.337 1.62 20.894c-1.014 2.709-.59 10.757-.59 10.757s5.163 5.214 8.647 6.346c.39.08.988-.104 1.467-.193-1.012-.636-5.896-10.692-5.54-12.24" mask="url(#prefix__d)"/>
                <path fill="#7A646F" d="M21.949 16.184c-.56 1.582 4.603 12.575 6.546 13.391 1.129.474 13.623-4.523 15.464-6.82.966-1.208-4.748-14.954-7.769-15.853-1.579-.47-13.443 7.022-14.241 9.282" mask="url(#prefix__d)"/>
                <path fill="#42323A" d="M22.49 16.354c-.536 1.518 4.415 12.067 6.279 12.851 1.082.456 13.083-4.335 14.853-6.542.93-1.16-4.563-14.371-7.467-15.233-1.517-.45-12.9 6.756-13.665 8.924" mask="url(#prefix__d)"/>
                <path fill="#B8FAFF" d="M36.515 21.713L37.493 23.79 34.045 25.414 33.067 23.337z" mask="url(#prefix__d)"/>
                <path fill="#B8FAFF" d="M36.325 22.318L36.906 23.551 34.235 24.809 33.654 23.576zM31.331 13.322L33.181 17.249 31.746 17.925 29.896 13.998z" mask="url(#prefix__d)"/>
                <path fill="#B8FAFF" d="M31.545 14.195L32.644 16.527 31.532 17.051 30.434 14.719z" mask="url(#prefix__d)"/>
                <path fill="#2B1F25" d="M43.622 22.663c.93-1.16-4.563-14.371-7.467-15.233-.011-.003-.028-.002-.04-.005 2.953 1.433 8.15 14.011 7.242 15.143-1.712 2.135-12.993 6.685-14.71 6.57.041.024.083.051.122.067 1.082.456 13.083-4.335 14.853-6.542" mask="url(#prefix__d)"/>
                <path fill="#B8FAFF" d="M36.38 22.015l.794 1.686-2.994 1.41-.795-1.686 2.995-1.41zm-4.95-8.24l1.502 3.19-1.246.587-1.502-3.189 1.246-.587z" mask="url(#prefix__d)"/>
            </g>
        </g>
    </g>
</svg>
