<svg xmlns="http://www.w3.org/2000/svg" xmlns:xlink="http://www.w3.org/1999/xlink" width="99" height="124" viewBox="0 0 99 124">
    <defs>
        <path id="prefix__a" d="M0 0.136L31.291 0.136 31.291 62.09 0 62.09z"/>
        <path id="prefix__c" d="M0.084 0.051L10.018 0.051 10.018 14 0.084 14z"/>
    </defs>
    <g fill="none" fill-rule="evenodd">
        <ellipse cx="37" cy="120" fill="#D8D8D8" rx="32" ry="4"/>
        <g transform="translate(0 8.791)">
            <mask id="prefix__b" fill="#fff">
                <use xlink:href="#prefix__a"/>
            </mask>
            <path fill="#EFCE2E" d="M7.162 57.35c7.043 5.909 17.212 6.482 23.994.65.54-1.243-.642-2.469-1.81-1.7-3.689 3.43-14.205 2.372-19.352-1.945-7.297-6.12-8.342-21.027 13.496-50.734L18.748.136C6.018 17.452-9.279 43.562 7.162 57.35" mask="url(#prefix__b)"/>
        </g>
        <path fill="#EFCE2E" d="M29.073 68.297c-4.616 1.81-12.53.788-16.742-2.62-.801-.647-1.504-1.432-2.1-2.343 5.224 4.157 15.48 5.136 19.115 1.757 1.168-.769 2.35.457 1.81 1.7-.661.569-1.363 1.058-2.083 1.506M21.903 11.245C10.357 27.4-3.831 51.585 6.313 65.365-8.696 51.391 6.253 25.926 18.75 8.926l3.154 2.318z"/>
        <path fill="#2A2A2A" d="M27.135 2.122c-.878-1.158-2.566.597-3.942 2.376-1.31 1.693-2.643 4.214-1.756 6.285l.733-.538c-.275-.964 2.32-3.404 3.092-4.122 1.206-1.121 2.755-2.836 1.873-4"/>
        <path fill="#2A2A2A" d="M17.453 10.32l.97-3.58 6.642 4.706-2.395 2.208c-2.165-.066-3.867-.926-5.217-3.335"/>
        <path fill="#2A2A2A" d="M31.202 6.498c1.24.837-.216 2.915-1.736 4.65-1.448 1.65-4.342 1.41-6.46.678l.418-.877c.966.188 3.605-.958 4.19-1.898.91-1.468 2.344-3.389 3.588-2.553M22.464.338c-.934-1.113-2.537.724-3.827 2.571-1.226 1.759-.55 4.652.435 6.676l.709-.577c-.325-.945.265-3.828 1.002-4.582 1.155-1.182 2.619-2.973 1.681-4.088"/>
        <path fill="#F4E9DC" d="M35.784 113.198s16.382-3.503 21.269-7.002c5.616-7.574 23.356-52.843 25.295-72.456 0 0-7.78-9.934-28.022-15.105-17.588-4.491-26.81 1.933-26.81 1.933s-13.244 53.979-9.145 78.709c7.14 7.725 17.413 13.921 17.413 13.921"/>
        <path fill="#F9F1E8" d="M27.516 20.568s2.136-1.483 6.302-2.525c-9.534 12.104-9.616 59.004-6.178 82.677 4.276 4.913 5.502 9.471 9.224 12.238-.684.156-1.08.24-1.08.24s-10.273-6.196-17.413-13.921c-4.099-24.73 9.145-78.709 9.145-78.709"/>
        <path fill="#EDD9C3" d="M45.525 100.724c4.604-2.455 29.326-69.606 26.502-75.07 7.263 4.185 10.321 8.086 10.321 8.086-1.939 19.613-19.679 64.882-25.295 72.456-4.887 3.5-21.269 7.002-21.269 7.002s-13.256-7.543-17.413-13.921c-.373-.74-.326-2.04-.405-3.05 1.822 1.687 24.646 6.05 27.56 4.497"/>
        <path fill="#C6A98D" d="M32.483 112.436c1.115-.069 5.62-4.36 5.62-4.36l-1.76-3.482c-1.499-3.38-5.065-3.21-6.62-.763-1.013 1.593.88 8.721 2.76 8.605"/>
        <path fill="#AF8461" d="M29.782 103.75c1.582-2.366 5.08-2.496 6.56.844l1.76 3.483s-.543.515-1.291 1.188c-1.845-2.315-4.474-4.368-7.03-5.516"/>
        <path fill="#EDD9C3" d="M31.073 111.94c-.853-1.797-1.167-8.498-1.167-8.498L18.37 99.277s10.458 12.617 12.702 12.664"/>
        <path fill="#594547" d="M29.984 111.866c.76-4.246 3.611-6.475 6.542-5.95 2.932.524 4.834 3.603 4.074 7.85-.76 4.244-3.61 6.474-6.542 5.95s-4.833-3.604-4.074-7.85"/>
        <g transform="translate(30.75 105.791)">
            <mask id="prefix__d" fill="#fff">
                <use xlink:href="#prefix__c"/>
            </mask>
            <path fill="#443235" d="M3.397.317c.759-.264 1.566-.338 2.38-.192 2.931.524 4.833 3.603 4.073 7.85-.759 4.244-3.61 6.474-6.542 5.95C1.962 13.684.838 12.9.084 11.717c3.164.329 6.308-8.78 3.313-11.4" mask="url(#prefix__d)"/>
        </g>
        <path fill="#D6C2B4" d="M35.297 112.452c.468-2.62 1.77-4.075 3.016-3.853 1.245.223 1.961 2.04 1.494 4.66-.47 2.618-1.771 4.074-3.017 3.852-1.245-.223-1.962-2.04-1.493-4.66"/>
        <path fill="#594547" d="M36.822 112.706c.126-.704.593-1.21 1.044-1.13.449.08.713.717.586 1.423-.126.705-.594 1.21-1.043 1.13-.45-.08-.714-.718-.587-1.423"/>
        <path fill="#7A646F" d="M55.511 62.849c-2.872 1.977-27.728-2.437-30.416-5.896-1.561-2.009 1.708-29.788 5.324-34.723 1.9-2.594 32.578 1.438 36.017 7.015 1.798 2.915-6.822 30.778-10.925 33.604"/>
        <path fill="#42323A" d="M54.877 61.854c-2.758 1.897-26.607-2.333-29.189-5.65-1.498-1.927 1.624-28.602 5.097-33.349 1.826-2.495 31.31 1.384 34.61 6.747 1.724 2.8-6.58 29.545-10.518 32.252"/>
        <path fill="#D3BCA9" d="M63.477 73.34c1.546-4.654 3.978-7.33 5.582-6.802 1.603.53 1.77 4.062.224 8.716-1.546 4.656-4.099 8.002-5.702 7.473-1.603-.528-1.65-4.731-.104-9.386"/>
        <path fill="#C6A98D" d="M68.571 77.137c-.555-1.836-1.67-3.147-3.135-3.41-.743-.132-1.494.027-2.207.408.078-.264.16-.528.248-.795 1.546-4.654 3.978-7.33 5.582-6.802 1.603.53 1.77 4.062.224 8.716-.219.658-.46 1.285-.712 1.883"/>
        <path fill="#3F3137" d="M63.87 73.43c1.198-3.61 2.79-5.783 3.695-5.485.905.297.78 2.953-.418 6.562-1.2 3.61-2.906 6.295-3.81 5.998-.906-.298-.667-3.466.532-7.076"/>
        <path fill="#EDD9C3" d="M37.87 113.445c-1.241-.017-1.527-8.851-1.527-8.851s14.077 2.303 20.579 1.694c-2.796 2.328-14.227 7.222-19.052 7.157"/>
        <path fill="#3A2C32" d="M40.093 22.326c9.513.839 23.122 3.733 25.302 7.276 1.645 2.673-5.843 27.143-9.953 31.721-6.35-14.603-10.98-25.316-15.349-38.997M45.056 61.767c-7.878-1.071-17.758-3.494-19.368-5.563-1.387-1.782 1.184-24.74 4.325-31.923 4.292 13.875 8.333 24.718 15.043 37.486"/>
        <path fill="#2B1F25" d="M30.785 22.855c1.826-2.495 31.31 1.384 34.61 6.747.013.02.02.054.031.077-4.472-5.151-32.526-8.776-34.307-6.343-3.358 4.59-6.39 29.692-5.23 33.076-.07-.07-.148-.14-.2-.208-1.5-1.927 1.623-28.602 5.096-33.349"/>
        <path fill="#B8FAFF" d="M29.635 42.664L36.808 34.113 40.724 45.39 37.18 44.523 35.65 40.15 32.819 43.448z"/>
        <path fill="#B8FAFF" d="M30.27 42.368L36.654 34.759 40.138 44.794 37.396 44.123 35.768 39.522 32.74 42.976z"/>
        <path fill="#B8FAFF" d="M30.733 42.171L36.559 35.392 39.698 44.374 37.582 43.857 35.872 38.93 32.701 42.655zM44.142 46.278L51.315 37.727 55.232 49.003 51.687 48.137 50.157 43.764 47.326 47.061z"/>
        <path fill="#B8FAFF" d="M44.778 45.982L51.161 38.373 54.646 48.407 51.904 47.737 50.275 43.136 47.247 46.589z"/>
        <path fill="#B8FAFF" d="M45.24 45.784L51.066 39.006 54.205 47.988 52.089 47.47 50.379 42.544 47.208 46.268z"/>
        <path fill="#EFCE2E" d="M89.021 77.483c-7.73 4.975-17.89 4.266-23.886-2.373-.38-1.3.948-2.368 2.01-1.459 3.228 3.866 13.795 4.14 19.444.504 8.007-5.154 10.919-19.812-7.01-52.029l5.142-2.86c10.451 18.78 22.344 46.605 4.3 58.217"/>
        <path fill="#EFCE2E" d="M67.013 76.866c4.351 2.376 12.332 2.358 16.938-.493.877-.542 1.673-1.233 2.38-2.062-5.707 3.468-16.005 3.15-19.186-.66-1.062-.91-2.39.158-2.01 1.46.585.646 1.22 1.22 1.878 1.755M81.3 21.169c9.423 17.477 20.458 43.256 8.66 55.65 16.65-11.974 5.021-39.117-5.239-57.554l-3.42 1.904z"/>
        <path fill="#2A2A2A" d="M77.257 11.46c1.016-1.038 2.47.914 3.612 2.853 1.086 1.844 2.092 4.513.952 6.455l-.66-.625c.394-.922-1.873-3.669-2.549-4.478-1.056-1.264-2.376-3.16-1.355-4.205"/>
        <path fill="#2A2A2A" d="M85.83 20.81l-.512-3.672-7.18 3.832 2.098 2.492c2.156.207 3.953-.432 5.595-2.652"/>
        <path fill="#2A2A2A" d="M72.672 15.29c-1.335.674-.152 2.919 1.137 4.831 1.23 1.82 4.13 1.944 6.324 1.486l-.304-.924c-.983.065-3.456-1.403-3.918-2.409-.719-1.571-1.9-3.656-3.239-2.984M82.115 10.278c1.066-.987 2.426 1.037 3.474 3.032.994 1.898-.04 4.683-1.271 6.568l-.63-.662c.44-.896.217-3.83-.419-4.672-.997-1.317-2.225-3.278-1.154-4.266"/>
    </g>
</svg>
