<svg xmlns="http://www.w3.org/2000/svg" width="38" height="34" viewBox="0 0 38 34">
    <g fill="#5C5C5C">
        <path d="M33.546 0H9.296C7.193 0 5.48 1.696 5.48 3.774l-.156 21.353H.592c-.336 0-.592.296-.592.631v2.939c0 2.75 2.201 5 4.858 5.124v.035h20.42v-.04c.152.007.244.04.348.04h.015c2.834-.016 5.118-2.326 5.103-5.16V10.02h6.164c.336 0 .592-.303.592-.638V3.99C37.504 1.798 35.737.016 33.546 0zM5.124 32.642H5.12c-2.16 0-3.905-1.786-3.905-3.946v-2.355h19.281v2.345c-.005 1.367.535 2.68 1.5 3.648.103.103.21.156.32.308H5.124zm24.405-3.946c0 2.16-1.728 3.946-3.889 3.946h-.012c-2.172-.016-3.923-1.784-3.917-3.955v-2.929c.001-.34-.268-.62-.608-.631H6.538l.157-21.349c0-1.412 1.167-2.563 2.602-2.563h21.381c-.692.759-1.149 1.72-1.149 2.791v24.69zM36.285 4v4.806h-5.541V4.005c0-1.52 1.264-2.79 2.784-2.79h.017c1.523.015 2.748 1.257 2.74 2.781V4z"/>
        <path d="M14.26 14.948l3.131 2.14c.205.141.475.141.68 0l3.12-2.14c1.085-.74 1.886-2.286 1.886-3.598V7.02c.006-.23-.12-.442-.324-.546L17.986 4.13c-.167-.083-.364-.083-.53 0l-4.76 2.339c-.203.104-.33.316-.323.545v4.337c0 1.312.803 2.859 1.887 3.598zm-.672-7.556l4.137-2.041 4.137 2.046v3.953c0 .915-.6 2.079-1.356 2.594l-2.788 1.907-2.777-1.906c-.757-.516-1.353-1.68-1.353-2.595V7.392z"/>
        <path d="M16.698 12.267c.113.116.268.182.43.182h.001c.162 0 .316-.065.43-.18l2.416-2.416c.237-.237.237-.622 0-.86-.237-.237-.622-.237-.86 0l-1.983 1.984-.794-.8c-.236-.239-.62-.24-.859-.004-.238.236-.24.62-.004.859l1.223 1.235zM25.278 18.826H10.703c-.335 0-.607.272-.607.607 0 .336.272.607.607.607h14.575c.336 0 .608-.271.608-.607 0-.335-.272-.607-.608-.607zM25.278 21.635H10.703c-.335 0-.607.272-.607.607 0 .335.272.607.607.607h14.575c.336 0 .608-.272.608-.607 0-.335-.272-.607-.608-.607z"/>
    </g>
</svg>
