<svg xmlns="http://www.w3.org/2000/svg" width="83" height="54" viewBox="0 0 83 54">
    <g fill="none">
        <path fill="#D8D8D8" d="M72.421 57.089H25.08c-.768 0-1.392-.624-1.392-1.393 0-7.678 6.246-13.924 13.924-13.924h9.747c.769 0 1.392.624 1.392 1.393s-.623 1.392-1.392 1.392h-9.747c-5.67 0-10.365 4.26-11.052 9.747H72.42c.77 0 1.393.623 1.393 1.392 0 .77-.624 1.393-1.393 1.393z"/>
        <path fill="#D8D8D8" d="M72.421 57.089H8.371c-.77 0-1.393-.624-1.393-1.393 0-7.678 6.247-13.924 13.924-13.924h9.747c.77 0 1.393.624 1.393 1.393s-.624 1.392-1.393 1.392h-9.747c-5.67 0-10.365 4.26-11.052 9.747H72.42c.77 0 1.393.623 1.393 1.392 0 .77-.624 1.393-1.393 1.393zM29.963 5.13l2.003 6.01h2.936l-2.297-6.891c-.57-1.709-2.162-2.857-3.963-2.857h-6.347v2.785h6.347c.6 0 1.131.383 1.321.952z"/>
        <path fill="#D8D8D8" d="M26.472 5.57h-4.177c-1.538 0-2.785-1.247-2.785-2.785S20.757 0 22.295 0h4.177c1.538 0 2.785 1.247 2.785 2.785S28.01 5.57 26.472 5.57zM15.424 11.188l-2.313-6.94c-.57-1.708-2.162-2.856-3.963-2.856H2.801v2.785h6.347c.6 0 1.131.383 1.321.952l2.748 8.243c.22-1.078 1.073-1.971 2.207-2.184z"/>
        <path fill="#FDCD15" d="M29.086 14.805l8.648 25.944c.758 2.274 2.887 3.808 5.284 3.808h25.389c2.397 0 4.526-1.534 5.284-3.808l8.648-25.944c.6-1.804-.741-3.666-2.642-3.666H31.728c-1.9 0-3.243 1.862-2.642 3.666z"/>
        <path fill="#FFE26C" d="M13.305 14.805l8.649 25.944c.758 2.274 2.886 3.808 5.283 3.808h25.39c2.397 0 4.525-1.534 5.283-3.808l8.648-25.944c.601-1.804-.74-3.666-2.642-3.666H15.947c-1.9 0-3.243 1.862-2.642 3.666z"/>
        <g fill="#FFF">
            <path d="M26.53 8.354h-2.785c-.769 0-1.392-.623-1.392-1.392v-5.57c0-.769.623-1.392 1.392-1.392h2.785c.769 0 1.392.623 1.392 1.392v5.57c0 .769-.623 1.392-1.392 1.392zM15.39 8.354h-2.784c-.769 0-1.392-.623-1.392-1.392v-5.57c0-.769.623-1.392 1.392-1.392h2.785c.769 0 1.392.623 1.392 1.392v5.57c0 .769-.623 1.392-1.392 1.392zM4.252 8.354H1.467c-.77 0-1.393-.623-1.393-1.392v-5.57C.074.623.698 0 1.467 0h2.785c.768 0 1.392.623 1.392 1.392v5.57c0 .769-.624 1.392-1.392 1.392z" transform="translate(25.934 16.709)"/>
            <g>
                <path d="M26.53 8.354h-2.785c-.769 0-1.392-.623-1.392-1.392v-5.57c0-.769.623-1.392 1.392-1.392h2.785c.769 0 1.392.623 1.392 1.392v5.57c0 .769-.623 1.392-1.392 1.392zM15.39 8.354h-2.784c-.769 0-1.392-.623-1.392-1.392v-5.57c0-.769.623-1.392 1.392-1.392h2.785c.769 0 1.392.623 1.392 1.392v5.57c0 .769-.623 1.392-1.392 1.392zM4.252 8.354H1.467c-.77 0-1.393-.623-1.393-1.392v-5.57C.074.623.698 0 1.467 0h2.785c.768 0 1.392.623 1.392 1.392v5.57c0 .769-.624 1.392-1.392 1.392z" transform="translate(25.934 16.709) translate(0 13.924)"/>
            </g>
        </g>
        <path fill="#FFE26C" d="M6.978 5.57H2.801C1.263 5.57.016 4.323.016 2.785S1.263 0 2.801 0h4.177c1.538 0 2.785 1.247 2.785 2.785S8.516 5.57 6.978 5.57z"/>
    </g>
</svg>
