<svg xmlns="http://www.w3.org/2000/svg" width="36" height="29" viewBox="0 0 36 29">
    <g fill="none" fill-rule="evenodd" transform="translate(-16 -23)">
        <circle cx="26" cy="26" r="26" fill="#FDCD15"/>
        <path fill="#FFF" fill-rule="nonzero" d="M30.5 26c-5.244 0-9.5 4.256-9.5 9.5s4.256 9.5 9.5 9.5 9.5-4.256 9.5-9.5-4.256-9.5-9.5-9.5zm-4.683 15.466c.408-.855 2.897-1.691 4.683-1.691s4.285.836 4.684 1.691C33.892 42.492 32.267 43.1 30.5 43.1c-1.767 0-3.392-.608-4.683-1.634zm10.725-1.377c-1.358-1.654-4.655-2.214-6.042-2.214-1.387 0-4.683.56-6.042 2.214-.969-1.273-1.558-2.86-1.558-4.589 0-4.19 3.41-7.6 7.6-7.6 4.19 0 7.6 3.41 7.6 7.6 0 1.729-.589 3.316-1.558 4.589zM30.5 29.8c-1.843 0-3.325 1.482-3.325 3.325 0 1.843 1.482 3.325 3.325 3.325 1.843 0 3.325-1.482 3.325-3.325 0-1.843-1.482-3.325-3.325-3.325zm0 4.75c-.788 0-1.425-.636-1.425-1.425 0-.788.637-1.425 1.425-1.425s1.425.637 1.425 1.425-.637 1.425-1.425 1.425z" opacity=".775"/>
    </g>
</svg>
