<svg xmlns="http://www.w3.org/2000/svg" width="17" height="17" viewBox="0 0 17 17">
    <path fill="#A6A4A4" d="M8.5 0C3.808 0 0 3.808 0 8.5S3.808 17 8.5 17 17 13.192 17 8.5 13.192 0 8.5 0zM4.31 13.838c.365-.765 2.592-1.513 4.19-1.513 1.598 0 3.834.748 4.19 1.513-1.155.918-2.609 1.462-4.19 1.462-1.581 0-3.035-.544-4.19-1.462zm9.596-1.232c-1.216-1.48-4.165-1.981-5.406-1.981-1.241 0-4.19.502-5.406 1.98C2.227 11.466 1.7 10.047 1.7 8.5c0-3.748 3.051-6.8 6.8-6.8 3.748 0 6.8 3.051 6.8 6.8 0 1.547-.527 2.966-1.394 4.105zM8.5 3.4c-1.649 0-2.975 1.326-2.975 2.975S6.851 9.35 8.5 9.35s2.975-1.326 2.975-2.975S10.149 3.4 8.5 3.4zm0 4.25c-.705 0-1.275-.57-1.275-1.275S7.795 5.1 8.5 5.1c.706 0 1.275.57 1.275 1.275S9.205 7.65 8.5 7.65z"/>
</svg>
