<svg xmlns="http://www.w3.org/2000/svg" width="76" height="43" viewBox="0 0 76 43">
    <path fill="#FFF" d="M25.5-17C-2.376-17-25 5.624-25 33.5S-2.376 84 25.5 84 76 61.376 76 33.5 53.376-17 25.5-17zM1 65.646C3.18 61.274 16.467 57 26 57s22.87 4.274 25 8.646C44.103 70.89 35.432 74 26 74S7.897 70.891 1 65.646zM58.698 57C51.458 48.32 33.89 45.377 26.5 45.377 19.109 45.377 1.542 48.32-5.697 57-10.861 50.316-14 41.985-14 32.906-14 10.908 4.174-7 26.5-7S67 10.908 67 32.906c0 9.08-3.139 17.41-8.302 24.094zM26 4C16.577 4 9 11.577 9 21s7.577 17 17 17 17-7.577 17-17S35.423 4 26 4zm0 25c-4.427 0-8-3.573-8-8s3.573-8 8-8 8 3.573 8 8-3.573 8-8 8z" opacity=".573"/>
</svg>
