<?xml version="1.0" encoding="UTF-8"?>
<svg width="52px" height="52px" viewBox="0 0 52 52" version="1.1" xmlns="http://www.w3.org/2000/svg" xmlns:xlink="http://www.w3.org/1999/xlink">
    <!-- Generator: Sketch 59 (86127) - https://sketch.com -->
    <title>woman_square</title>
    <desc>Created with Sketch.</desc>
    <defs>
        <rect id="path-1" x="0" y="0" width="51.7" height="51.7" rx="11"></rect>
        <path d="M28.7496,70.5672 C44.6275656,70.5672 57.4992,57.6955656 57.4992,41.8176 C57.4992,32.1227621 51.1969951,8.85313324 49.6311843,2.178 C41.7663995,-1.43897471 33.3276179,1.29185294 27.1444902,1.29185294 C8.42542905,19.462057 -2.84217094e-14,25.9396344 -2.84217094e-14,41.8176 C-2.84217094e-14,57.6955656 12.8716344,70.5672 28.7496,70.5672 Z" id="path-3"></path>
        <linearGradient x1="3.18675517%" y1="53.1867552%" x2="96.8132448%" y2="53.1867552%" id="linearGradient-5">
            <stop stop-color="#76DAF8" offset="0%"></stop>
            <stop stop-color="#41B2ED" offset="100%"></stop>
        </linearGradient>
    </defs>
    <g id="Home" stroke="none" stroke-width="1" fill="none" fill-rule="evenodd">
        <g id="Reports_Shares" transform="translate(-30.000000, -784.000000)">
            <g id="Details" transform="translate(30.000000, 586.000000)">
                <g id="Partner_3" transform="translate(0.000000, 198.000000)">
                    <g id="woman_square">
                        <mask id="mask-2" fill="white">
                            <use xlink:href="#path-1"></use>
                        </mask>
                        <use id="Mask" fill="#FFFFFF" xlink:href="#path-1"></use>
                        <g id="female_image" mask="url(#mask-2)">
                            <g transform="translate(-6.600000, 3.300000)">
                                <mask id="mask-4" fill="white">
                                    <use xlink:href="#path-3"></use>
                                </mask>
                                <g id="Mask" stroke="none" fill="none"></g>
                                <g id="Group-27" stroke="none" stroke-width="1" fill="none" fill-rule="evenodd" mask="url(#mask-4)">
                                    <g transform="translate(7.840800, 2.178000)" id="Group-26">
                                        <g>
                                            <polygon id="Fill-1" fill="#B77548" points="23.0868 36.5904 34.848 36.238874 32.0255183 20.9088 23.8926707 21.1521137 23.7979003 22.9681126 23.5071422 28.5551458"></polygon>
                                            <path d="M23.4628853,28.4379619 C24.6189041,28.4054974 25.7697935,28.1568191 26.834767,27.6990692 C28.6024563,26.9374514 30.125862,25.60251 31.1209486,23.937729 C28.7486417,23.6345103 26.3904403,23.2403909 24.0181334,22.9358736 C23.9302939,22.925485 23.8418132,22.9137978 23.7520503,22.9060063 L23.4628853,28.4379619 Z" id="Fill-2" fill="#89512A"></path>
                                            <path d="M17.4780036,18.0337948 C17.9056601,20.8939197 19.7804237,23.4858877 22.3335389,24.7851181 C24.8879365,26.0836992 28.0475929,26.0616234 30.59622,24.7539522 C33.1442059,23.4469302 35.0247401,20.8893747 35.556265,18.0461313 C36.1544711,19.169404 37.3714005,19.5304096 38.6075647,19.2765369 C39.8418055,19.0239629 40.8657445,18.0273019 41.2966067,16.8293608 C41.6242416,15.9164583 41.6306532,14.8775934 41.2542899,13.9848188 C40.8779266,13.0900964 40.1078886,12.362891 39.1826889,12.1031748 C38.2991648,11.8544965 37.2457323,11.9466957 36.552634,12.5440431 L36.4583829,12.6316973 C36.4673592,11.9752645 36.4192718,11.3168839 36.3134798,10.6701905 C36.0230325,8.87360349 35.3049287,7.14908775 34.1816093,5.73168644 C32.6524331,3.80264417 30.3679656,2.47549425 27.9379539,2.23460745 C27.6519947,2.20603867 27.3634709,2.19240357 27.0743059,2.19565002 C26.9986485,2.1969486 26.92235,2.19759789 26.8473338,2.20149363 C26.3921073,2.2177259 25.9394455,2.27226631 25.4931954,2.36316698 L25.4925542,2.36316698 C25.4412611,2.37355563 25.3912503,2.38459357 25.3405983,2.39563151 C23.8037281,2.73715835 22.3630325,3.51435916 21.2769006,4.66620062 C20.6761299,5.30185609 20.1946157,6.02711365 19.797094,6.80301588 C19.6156446,7.15622994 19.4515066,7.52113124 19.3014742,7.89317474 C19.2662102,7.97888109 19.2322285,8.06458745 19.2008114,8.15094309 C19.054626,8.52493446 18.9231874,8.90541873 18.8013662,9.28850016 C18.5942702,9.94038789 18.4141031,10.6013657 18.2435535,11.2539027 C17.6645824,13.4686328 17.139469,15.7677707 17.4780036,18.0337948" id="Fill-4" fill="#B77548"></path>
                                            <path d="M37.4492378,16.7361227 L37.0754391,16.6153546 L37.3280578,14.0422161 L37.7268618,14.0824721 L37.5390007,15.9978793 C37.7557142,15.8089357 38.0108975,15.6660918 38.2872392,15.5842812 C38.7847825,15.4368922 39.3336189,15.4920819 39.7926924,15.7368645 L39.6061136,16.0959222 C39.2387266,15.8998364 38.7982469,15.8556847 38.3994429,15.9738555 C38.0006388,16.0920264 37.6544103,16.3699228 37.4492378,16.7361227" id="Fill-6" fill="#000000"></path>
                                            <path d="M24.4124492,17.6672703 C24.2822929,17.6672703 24.1502131,17.6348057 24.0264685,17.5692274 C23.8257841,17.4646916 23.6719048,17.2887339 23.6244586,17.1114775 C23.5520071,16.8413727 23.6020179,16.5621777 23.6424112,16.3388218 L24.2848576,12.7936953 L24.6791735,12.8670651 L24.0367271,16.4115423 C24.0001808,16.614121 23.9623521,16.8238418 24.0110806,17.0049939 C24.0232627,17.0497949 24.0880202,17.1445914 24.2104826,17.2088711 C24.2880634,17.2491271 24.4086023,17.2880846 24.5426055,17.2380892 L24.6804558,17.6192228 C24.5938987,17.6516873 24.5034945,17.6672703 24.4124492,17.6672703" id="Fill-8" fill="#000000"></path>
                                            <circle id="Oval" fill="#212121" cx="37.026" cy="19.1664" r="1"></circle>
                                            <path d="M25.6515629,19.4782066 C25.5733409,19.4782066 25.49576,19.4730123 25.4181792,19.4632729 L25.4694723,19.0607128 C25.8823819,19.1146039 26.3177323,18.9827979 26.6338262,18.7087973 C26.9492789,18.4347966 27.1448339,18.0192507 27.1557337,17.5978611 L27.5564613,17.6082498 C27.5423556,18.1426159 27.2948663,18.6691905 26.8941388,19.0172103 C26.5523984,19.3132868 26.10166,19.4782066 25.6515629,19.4782066" id="Fill-10" fill="#000000"></path>
                                            <path d="M27.6107678,13.4928514 C27.6197441,13.8058094 27.7941408,14.0544877 28.0005956,14.0486441 C28.2064092,14.0428005 28.3667003,13.7837335 28.357724,13.4707755 C28.3481065,13.1571681 28.1737099,12.9084899 27.9678962,12.9143335 C27.7614414,12.9208264 27.6017916,13.1798933 27.6107678,13.4928514" id="Fill-12" fill="#000000"></path>
                                            <path d="M21.121803,13.0553594 C21.1307793,13.3683174 21.3058171,13.617645 21.5116308,13.6111521 C21.7180856,13.6053085 21.8777354,13.3462416 21.8687591,13.0332835 C21.8591417,12.7196762 21.684745,12.4709979 21.4789314,12.4768415 C21.2724766,12.4833344 21.1128267,12.7424013 21.121803,13.0553594" id="Fill-14" fill="#000000"></path>
                                            <path d="M20.9417642,11.3595423 C20.7487738,11.3601916 20.4891023,11.3887604 20.3147057,11.3296749 C19.9736064,11.2134519 19.9922002,10.9498399 20.3256055,10.791413 C20.6699106,10.6271425 21.1565541,10.594678 21.5489465,10.5777964 C21.8156707,10.5661092 22.211269,10.558967 22.4299059,10.6855787 C22.6389254,10.806996 22.6709836,11.0199633 22.5138984,11.1881296 C22.172158,11.5530309 21.4303312,11.3582437 20.9417642,11.3595423" id="Fill-16" fill="#000000"></path>
                                            <path d="M28.8051282,11.8236552 C28.9968363,11.8476789 29.2513784,11.9074137 29.4315455,11.8691055 C29.7841857,11.7957357 29.7963678,11.5314744 29.484121,11.3334408 C29.1609743,11.1295636 28.6813836,11.0386629 28.2941205,10.9743831 C28.0306021,10.9308806 27.6382097,10.8763402 27.4067495,10.9756817 C27.1849067,11.0711274 27.1278431,11.2789004 27.264411,11.4639482 C27.5606288,11.8678069 28.3204082,11.7632712 28.8051282,11.8236552" id="Fill-18" fill="#000000"></path>
                                            <path d="M39.2806587,6.59699598 C38.367,7.5384673 36.8628291,7.80142998 35.6606466,7.28978901 C34.4591051,6.77749876 33.6057158,5.55098888 33.4608127,4.23877264 C33.3255271,3.00771773 33.8070413,1.71108447 34.7457055,0.915703526 C35.6837285,0.121621164 37.0609488,-0.124459961 38.1919622,0.34692499 C40.4123133,1.27086547 40.9226799,4.90494476 39.2806587,6.59699598" id="Fill-20" fill="#000000"></path>
                                            <path d="M51.7739966,67.247033 C65.2224125,60.693094 46.5465862,32.4677838 44.4794733,31.7522656 C42.4117192,31.0367474 33.749593,30.8646854 33.749593,30.8646854 C33.749593,30.8646854 28.1785186,36.1414698 23.2819488,31.4185302 C23.2819488,31.4185302 14.7762666,31.3795728 13.0842347,32.7502252 C11.3928439,34.1208776 0,68.3891351 0,68.3891351 L48.0013874,68.3891351" id="Fill-22" fill="url(#linearGradient-5)"></path>
                                            <path d="M19.2004908,8.15081323 C23.5822059,8.65141626 26.8425251,5.44067441 26.8425251,5.44067441 C28.816028,11.6576316 36.4587034,12.6315674 36.4587034,12.6315674 C36.4670386,11.975784 36.4189513,11.316754 36.3138004,10.6700606 C36.0233531,8.87347363 35.3052493,7.14960718 34.1812887,5.73155658 C32.6521125,3.80251431 30.3682862,2.47536439 27.9376333,2.23447759 C27.6516741,2.20590881 27.3631503,2.19227371 27.0739853,2.19552016 C26.998328,2.19681874 26.9226706,2.19811732 26.8470132,2.20136378 C26.3924279,2.21759604 25.939125,2.27213645 25.4928748,2.36303713 L25.4922336,2.36303713 C25.4415817,2.37342578 25.3909297,2.38446372 25.3409189,2.39550166 C23.8040487,2.73767778 22.3633531,3.5142293 21.27658,4.66607076 C20.6758093,5.30172623 20.1949363,6.02698379 19.7967734,6.80288602 C19.6159651,7.15610009 19.4518271,7.52100138 19.3011536,7.89369417 C19.2665307,7.97875123 19.2319079,8.06445759 19.2004908,8.15081323" id="Fill-24" fill="#000000"></path>
                                        </g>
                                    </g>
                                </g>
                                <path d="M27.8767043,33.5412 C25.128925,33.5412 21.7857117,33.9795024 20.9008586,34.8576588 C20.3109565,35.4430965 18.4977566,39.9355234 15.4612589,48.3349398" id="Path-3" stroke="#161616" stroke-width="0.605" fill="none" mask="url(#mask-4)"></path>
                            </g>
                        </g>
                    </g>
                </g>
            </g>
        </g>
    </g>
</svg>