<svg xmlns="http://www.w3.org/2000/svg" xmlns:xlink="http://www.w3.org/1999/xlink" width="101" height="115" viewBox="0 0 101 115">
    <defs>
        <linearGradient id="prefix__d" x1="3.187%" x2="96.813%" y1="53.187%" y2="53.187%">
            <stop offset="0%" stop-color="#76DAF8"/>
            <stop offset="100%" stop-color="#41B2ED"/>
        </linearGradient>
        <filter id="prefix__a" width="117.4%" height="146.9%" x="-8.7%" y="-23.5%" filterUnits="objectBoundingBox">
            <feOffset dy="2" in="SourceAlpha" result="shadowOffsetOuter1"/>
            <feGaussianBlur in="shadowOffsetOuter1" result="shadowBlurOuter1" stdDeviation="5"/>
            <feColorMatrix in="shadowBlurOuter1" result="shadowMatrixOuter1" values="0 0 0 0 0 0 0 0 0 0 0 0 0 0 0 0 0 0 0.07 0"/>
            <feMerge>
                <feMergeNode in="shadowMatrixOuter1"/>
                <feMergeNode in="SourceGraphic"/>
            </feMerge>
        </filter>
        <path id="prefix__b" d="M39.917 97.978c23.641-.046 39.917-17.872 39.917-39.917 0-13.46-8.75-45.769-10.925-55.037-10.92-5.022-22.636-1.23-31.22-1.23C11.698 27.022 0 36.015 0 58.06c0 22.045 16.275 39.963 39.917 39.917z"/>
    </defs>
    <g fill="none" fill-rule="evenodd" filter="url(#prefix__a)" transform="translate(10 5)">
        <circle cx="40.32" cy="57.6" r="40.32" fill="#FFF"/>
        <g transform="translate(1)">
            <mask id="prefix__c" fill="#fff">
                <use xlink:href="#prefix__b"/>
            </mask>
            <g mask="url(#prefix__c)">
                <g transform="translate(10.886 3.024)">
                    <path fill="#B77548" d="M32.054 50.803L48.384 50.315 44.465 29.03 33.173 29.368 33.042 31.89 32.638 39.647z"/>
                    <path fill="#89512A" d="M32.577 39.484c1.605-.045 3.203-.39 4.681-1.026 2.455-1.057 4.57-2.91 5.951-5.222-3.294-.421-6.568-.968-9.862-1.391-.121-.015-.244-.03-.369-.042l-.401 7.681z"/>
                    <path fill="#B77548" d="M24.267 25.039c.594 3.97 3.197 7.57 6.742 9.373 3.546 1.803 7.933 1.773 11.472-.043 3.537-1.815 6.148-5.366 6.886-9.313.83 1.56 2.52 2.06 4.237 1.708 1.714-.35 3.135-1.734 3.733-3.398.455-1.267.464-2.71-.058-3.95-.523-1.241-1.592-2.251-2.877-2.612-1.226-.345-2.689-.217-3.651.613l-.131.121c.012-.911-.054-1.825-.201-2.723-.404-2.495-1.4-4.889-2.96-6.857-2.123-2.678-5.295-4.521-8.67-4.855-.396-.04-.797-.059-1.198-.054-.105.001-.211.002-.315.008-.632.022-1.26.098-1.88.224h-.001l-.211.045C33.05 3.8 31.049 4.88 29.54 6.48c-.834.882-1.502 1.89-2.054 2.967-.252.49-.48.997-.688 1.513-.05.12-.096.238-.14.358-.203.52-.385 1.048-.555 1.58-.287.905-.537 1.822-.774 2.728-.804 3.075-1.533 6.267-1.063 9.414"/>
                    <path fill="#000" d="M51.996 23.237l-.52-.168.351-3.572.554.056-.26 2.659c.3-.262.654-.46 1.038-.574.69-.205 1.453-.128 2.09.212l-.259.498c-.51-.272-1.121-.333-1.675-.17-.554.165-1.034.55-1.32 1.059M33.895 24.53c-.18 0-.364-.045-.536-.136-.279-.146-.492-.39-.558-.636-.1-.375-.031-.763.025-1.073l.892-4.922.547.102-.892 4.921c-.05.282-.103.573-.035.824.017.062.107.194.277.283.107.056.275.11.46.04l.192.53c-.12.045-.246.067-.372.067"/>
                    <circle cx="51.408" cy="26.611" r="1.21" fill="#212121"/>
                    <path fill="#000" d="M35.615 27.044c-.108 0-.216-.007-.324-.02l.072-.56c.573.075 1.177-.108 1.616-.488.438-.38.71-.958.725-1.543l.556.015c-.02.742-.363 1.473-.92 1.956-.474.411-1.1.64-1.725.64M38.336 18.734c.012.434.254.78.54.772.287-.009.51-.368.497-.803-.014-.435-.256-.78-.542-.772-.286.009-.508.368-.495.803M29.326 18.126c.013.435.256.781.541.772.287-.008.509-.368.496-.802-.013-.436-.255-.78-.541-.773-.287.01-.508.369-.496.803M29.076 15.772c-.268 0-.628.04-.87-.042-.474-.16-.448-.527.015-.747.478-.228 1.153-.273 1.698-.296.37-.017.92-.027 1.223.15.29.168.335.463.117.697-.475.507-1.504.236-2.183.238M39.994 16.416c.266.034.62.117.87.063.49-.101.506-.468.073-.743-.449-.283-1.115-.41-1.653-.499-.365-.06-.91-.136-1.232.002-.308.132-.387.421-.197.678.411.56 1.466.415 2.139.5M54.538 9.16c-1.268 1.307-3.357 1.672-5.026.961-1.668-.71-2.853-2.414-3.054-4.236-.188-1.709.48-3.51 1.784-4.614C49.544.17 51.457-.173 53.027.481c3.083 1.284 3.791 6.33 1.511 8.678"/>
                    <path fill="url(#prefix__d)" d="M71.885 93.368c18.672-9.1-7.258-48.289-10.128-49.282-2.871-.994-14.898-1.233-14.898-1.233s-7.735 7.327-14.534.77c0 0-11.81-.055-14.158 1.848C15.818 47.374 0 94.954 0 94.954h66.647"/>
                    <path fill="#000" d="M26.659 11.317c6.083.695 10.61-3.763 10.61-3.763 2.74 8.632 13.351 9.984 13.351 9.984.012-.91-.055-1.825-.2-2.723-.404-2.495-1.401-4.888-2.962-6.857-2.123-2.678-5.294-4.521-8.669-4.856-.397-.04-.797-.058-1.199-.054-.105.002-.21.004-.315.008-.631.023-1.26.099-1.88.225-.071.014-.141.03-.21.045-2.135.475-4.135 1.553-5.644 3.153-.834.882-1.502 1.889-2.055 2.966-.25.49-.479.997-.688 1.515-.048.118-.096.237-.14.357"/>
                </g>
            </g>
            <path stroke="#161616" stroke-width=".605" d="M28.953 96.689L36.961 75.6M38.705 46.57c-3.815 0-8.457.608-9.686 1.827-.819.813-3.336 7.05-7.552 18.713" mask="url(#prefix__c)"/>
        </g>
    </g>
</svg>
