<svg xmlns="http://www.w3.org/2000/svg" xmlns:xlink="http://www.w3.org/1999/xlink" width="121" height="143" viewBox="0 0 121 143">
    <defs>
        <linearGradient id="prefix__c" x1="3.187%" x2="96.813%" y1="53.187%" y2="53.187%">
            <stop offset="0%" stop-color="#76DAF8"/>
            <stop offset="100%" stop-color="#41B2ED"/>
        </linearGradient>
        <path id="prefix__a" d="M59.4 145.8c32.806 0 59.4-26.594 59.4-59.4 0-20.03-13.021-68.108-16.256-81.9-16.25-7.473-33.685-1.83-46.46-1.83C17.408 40.21 0 53.593 0 86.4c0 32.806 26.594 59.4 59.4 59.4z"/>
    </defs>
    <g fill="none" fill-rule="evenodd" transform="translate(1 -4)">
        <circle cx="59.4" cy="86.4" r="59.4" stroke="#979797" stroke-width=".9"/>
        <mask id="prefix__b" fill="#fff">
            <use xlink:href="#prefix__a"/>
        </mask>
        <g mask="url(#prefix__b)">
            <g transform="translate(16.2 4.5)">
                <path fill="#B77548" d="M47.7 75.6L72 74.874 66.168 43.2 49.365 43.703 49.169 47.455 48.568 58.998z"/>
                <path fill="#89512A" d="M48.477 58.756c2.389-.067 4.766-.58 6.967-1.527 3.652-1.573 6.8-4.331 8.855-7.77-4.901-.627-9.773-1.442-14.675-2.07-.181-.022-.364-.046-.55-.063l-.597 11.43z"/>
                <path fill="#B77548" d="M36.112 37.26c.883 5.91 4.757 11.265 10.032 13.949 5.277 2.683 11.806 2.637 17.071-.064 5.265-2.7 9.15-7.985 10.248-13.86 1.236 2.321 3.75 3.067 6.305 2.543 2.55-.522 4.665-2.582 5.556-5.057.676-1.886.69-4.032-.088-5.877-.777-1.848-2.368-3.35-4.28-3.887-1.825-.514-4.002-.324-5.434.91l-.195.182c.019-1.357-.08-2.717-.3-4.053-.6-3.712-2.083-7.275-4.404-10.204-3.16-3.985-7.88-6.727-12.9-7.225-.59-.06-1.187-.087-1.784-.08-.157.002-.314.003-.47.012-.94.033-1.875.146-2.797.334h-.001c-.106.021-.21.044-.314.067-3.176.705-6.152 2.311-8.396 4.69-1.242 1.314-2.237 2.813-3.058 4.416-.375.73-.714 1.484-1.024 2.252-.073.177-.143.354-.208.533-.302.773-.574 1.559-.825 2.35-.428 1.347-.8 2.713-1.153 4.06-1.196 4.577-2.28 9.327-1.581 14.009"/>
                <path fill="#000" d="M77.374 34.579l-.772-.25.522-5.316.824.083-.388 3.957c.448-.39.975-.685 1.546-.854 1.028-.305 2.162-.19 3.11.315l-.385.742c-.76-.405-1.67-.496-2.493-.252-.824.244-1.54.818-1.964 1.575M50.439 36.503c-.269 0-.542-.067-.798-.203-.414-.216-.732-.58-.83-.946-.15-.558-.047-1.135.037-1.596l1.327-7.325.815.152-1.327 7.323c-.076.419-.154.852-.053 1.226.025.093.159.289.412.422.16.083.409.163.686.06l.285.787c-.18.067-.366.1-.554.1"/>
                <circle cx="76.5" cy="39.6" r="1.8" fill="#212121"/>
                <path fill="#000" d="M53 40.244c-.163 0-.323-.01-.483-.03l.106-.832c.853.111 1.752-.161 2.406-.727.651-.567 1.055-1.425 1.078-2.296l.828.022c-.03 1.104-.54 2.192-1.369 2.91-.706.612-1.637.953-2.567.953M57.047 27.878c.019.646.379 1.16.805 1.148.426-.012.757-.547.738-1.194-.02-.648-.38-1.162-.805-1.15-.427.014-.757.55-.738 1.196M43.64 26.974c.019.646.38 1.162.806 1.148.426-.012.756-.547.737-1.194-.02-.648-.38-1.161-.805-1.15-.427.014-.756.55-.738 1.196M43.268 23.47c-.399.001-.935.06-1.295-.062-.705-.24-.667-.784.022-1.112.711-.34 1.717-.406 2.528-.441.55-.024 1.368-.039 1.82.223.432.25.498.69.173 1.038-.706.754-2.238.351-3.248.354M59.515 24.429c.396.05.922.173 1.294.094.729-.152.754-.698.109-1.107-.668-.421-1.659-.609-2.46-.742-.544-.09-1.354-.202-1.832.003-.459.197-.577.627-.295 1.009.612.834 2.182.618 3.184.743M81.158 13.63c-1.887 1.945-4.995 2.489-7.479 1.432-2.483-1.059-4.246-3.593-4.545-6.304-.28-2.544.715-5.223 2.655-6.866 1.938-1.64 4.783-2.15 7.12-1.175 4.588 1.909 5.642 9.417 2.25 12.913"/>
                <path fill="url(#prefix__c)" d="M106.971 138.94c27.786-13.541-10.8-71.858-15.071-73.336-4.272-1.478-22.17-1.834-22.17-1.834s-11.51 10.902-21.627 1.144c0 0-17.574-.08-21.07 2.752C23.54 70.498 0 141.3 0 141.3h99.176"/>
                <path fill="#000" d="M39.67 16.84c9.054 1.035 15.79-5.599 15.79-5.599 4.077 12.845 19.868 14.857 19.868 14.857.017-1.355-.082-2.716-.3-4.052-.6-3.712-2.083-7.274-4.406-10.204-3.159-3.986-7.878-6.728-12.9-7.225-.59-.06-1.187-.088-1.784-.08-.156.002-.313.005-.469.011-.94.034-1.876.146-2.798.334h-.001l-.313.067c-3.175.707-6.152 2.312-8.397 4.692-1.241 1.313-2.235 2.811-3.058 4.415-.373.73-.712 1.483-1.024 2.253-.071.176-.143.353-.208.532"/>
            </g>
        </g>
        <path stroke="#161616" stroke-width=".9" d="M43.084 143.882L55.001 112.5M57.596 69.3c-5.677 0-12.584.906-14.412 2.72-1.22 1.21-4.965 10.491-11.24 27.846" mask="url(#prefix__b)"/>
    </g>
</svg>
